<svg id="arrow-follow" viewBox="0 0 95 12" fill="none" xmlns="http://www.w3.org/2000/svg">
	<path d="M1 5.25C0.585786 5.25 0.25 5.58579 0.25 6C0.25 6.41421 0.585786 6.75 1 6.75V5.25ZM94.5303 6.53033C94.8232 6.23744 94.8232 5.76256 94.5303 5.46967L89.7574 0.696699C89.4645 0.403806 88.9896 0.403806 88.6967 0.696699C88.4038 0.989593 88.4038 1.46447 88.6967 1.75736L92.9393 6L88.6967 10.2426C88.4038 10.5355 88.4038 11.0104 88.6967 11.3033C88.9896 11.5962 89.4645 11.5962 89.7574 11.3033L94.5303 6.53033ZM3.58333 6.75C3.99755 6.75 4.33333 6.41421 4.33333 6C4.33333 5.58579 3.99755 5.25 3.58333 5.25V6.75ZM8.75 5.25C8.33579 5.25 8 5.58579 8 6C8 6.41421 8.33579 6.75 8.75 6.75V5.25ZM13.9167 6.75C14.3309 6.75 14.6667 6.41421 14.6667 6C14.6667 5.58579 14.3309 5.25 13.9167 5.25V6.75ZM19.0833 5.25C18.6691 5.25 18.3333 5.58579 18.3333 6C18.3333 6.41421 18.6691 6.75 19.0833 6.75V5.25ZM24.25 6.75C24.6642 6.75 25 6.41421 25 6C25 5.58579 24.6642 5.25 24.25 5.25V6.75ZM29.4167 5.25C29.0024 5.25 28.6667 5.58579 28.6667 6C28.6667 6.41421 29.0024 6.75 29.4167 6.75V5.25ZM34.5833 6.75C34.9975 6.75 35.3333 6.41421 35.3333 6C35.3333 5.58579 34.9975 5.25 34.5833 5.25V6.75ZM39.75 5.25C39.3358 5.25 39 5.58579 39 6C39 6.41421 39.3358 6.75 39.75 6.75V5.25ZM44.9167 6.75C45.3309 6.75 45.6667 6.41421 45.6667 6C45.6667 5.58579 45.3309 5.25 44.9167 5.25V6.75ZM50.0833 5.25C49.6691 5.25 49.3333 5.58579 49.3333 6C49.3333 6.41421 49.6691 6.75 50.0833 6.75V5.25ZM55.25 6.75C55.6642 6.75 56 6.41421 56 6C56 5.58579 55.6642 5.25 55.25 5.25V6.75ZM60.4167 5.25C60.0025 5.25 59.6667 5.58579 59.6667 6C59.6667 6.41421 60.0025 6.75 60.4167 6.75V5.25ZM65.5833 6.75C65.9976 6.75 66.3333 6.41421 66.3333 6C66.3333 5.58579 65.9976 5.25 65.5833 5.25V6.75ZM70.75 5.25C70.3358 5.25 70 5.58579 70 6C70 6.41421 70.3358 6.75 70.75 6.75V5.25ZM75.9167 6.75C76.3309 6.75 76.6667 6.41421 76.6667 6C76.6667 5.58579 76.3309 5.25 75.9167 5.25V6.75ZM81.0833 5.25C80.6691 5.25 80.3333 5.58579 80.3333 6C80.3333 6.41421 80.6691 6.75 81.0833 6.75V5.25ZM86.25 6.75C86.6642 6.75 87 6.41421 87 6C87 5.58579 86.6642 5.25 86.25 5.25V6.75ZM91.4167 5.25C91.0024 5.25 90.6667 5.58579 90.6667 6C90.6667 6.41421 91.0024 6.75 91.4167 6.75V5.25ZM1 6.75H3.58333V5.25H1V6.75ZM8.75 6.75H13.9167V5.25H8.75V6.75ZM19.0833 6.75H24.25V5.25H19.0833V6.75ZM29.4167 6.75H34.5833V5.25H29.4167V6.75ZM39.75 6.75H44.9167V5.25H39.75V6.75ZM50.0833 6.75H55.25V5.25H50.0833V6.75ZM60.4167 6.75H65.5833V5.25H60.4167V6.75ZM70.75 6.75H75.9167V5.25H70.75V6.75ZM81.0833 6.75H86.25V5.25H81.0833V6.75ZM91.4167 6.75H94V5.25H91.4167V6.75Z" fill="#D2D9D5"/>
</svg>