<svg id="benefit-ozon" viewBox="0 0 50 50" fill="none" xmlns="http://www.w3.org/2000/svg">
	<g clip-path="url(#clip0_15_8321)">
		<path d="M0 10.5263C0 4.71279 4.71279 0 10.5263 0H39.4737C45.2872 0 50 4.71279 50 10.5263V39.4737C50 45.2872 45.2872 50 39.4737 50H10.5263C4.71279 50 0 45.2872 0 39.4737V10.5263Z" fill="#2962FF"/>
		<path d="M21.5721 27.8604H18.0455L22.548 21.9038C22.6467 21.7735 22.6193 21.5817 22.4877 21.4843C22.4383 21.446 22.3726 21.424 22.3081 21.424H15.795C15.2221 21.424 14.7547 21.8928 14.7547 22.4643C14.7547 23.0359 15.2234 23.5046 15.795 23.5046H18.7212L14.2037 29.4668C14.0995 29.597 14.1269 29.7834 14.2585 29.8862C14.3133 29.9301 14.3778 29.952 14.4436 29.9465H21.5666C22.1396 29.9191 22.5809 29.4284 22.5535 28.8514C22.5261 28.3169 22.1012 27.892 21.5666 27.8646V27.8591L21.5721 27.8604ZM44.3312 21.424C43.7582 21.424 43.2909 21.8928 43.2909 22.4643V25.958L37.6659 21.4939C37.5411 21.3898 37.3493 21.4062 37.2465 21.5378C37.2026 21.5926 37.1807 21.657 37.1807 21.7283V28.9062C37.1807 29.4791 37.6494 29.9465 38.221 29.9465C38.7925 29.9465 39.2613 29.4833 39.2613 28.9062V25.4125L44.8863 29.8821C45.0165 29.9863 45.2084 29.9643 45.3111 29.8328C45.355 29.7779 45.3769 29.7135 45.3769 29.6477V22.4643C45.3728 21.8873 44.9096 21.424 44.3312 21.424ZM29.4477 28.0564C27.0655 28.0564 25.2892 26.8023 25.2892 25.6798C25.2892 24.5573 27.071 23.3032 29.4477 23.3032C31.8298 23.3032 33.6061 24.5573 33.6061 25.6798C33.6061 26.8023 31.8339 28.0564 29.4477 28.0564ZM29.4477 21.2212C26.0033 21.2212 23.2073 23.2154 23.2073 25.6798C23.2073 28.1442 26.0033 30.1384 29.4477 30.1384C32.892 30.1384 35.6881 28.1442 35.6881 25.6798C35.6881 23.2154 32.892 21.2212 29.4477 21.2212ZM8.95973 28.0619C7.64668 28.0619 6.5776 26.9997 6.5776 25.6853C6.5776 24.3709 7.63982 23.3032 8.95424 23.3032C10.2687 23.3032 11.3364 24.3654 11.3364 25.6798V25.6853C11.3364 26.9942 10.2741 28.0564 8.95973 28.0619ZM8.95973 21.2212C6.49673 21.2212 4.50112 23.2154 4.49564 25.6798C4.49564 28.1428 6.48988 30.1384 8.95424 30.1439C11.4172 30.1439 13.4129 28.1496 13.4183 25.6853V25.6798C13.4129 23.2168 11.4186 21.2212 8.95973 21.2212Z" fill="white"/>
	</g>
	<defs>
		<clipPath id="clip0_15_8321">
			<rect width="50" height="50" fill="white"/>
		</clipPath>
	</defs>
</svg>