<svg id="benefit-avito" viewBox="0 0 50 50" fill="none" xmlns="http://www.w3.org/2000/svg">
	<path fill-rule="evenodd" clip-rule="evenodd" d="M14.9427 47.9814C23.185 47.9814 29.8667 41.3264 29.8667 33.1168C29.8667 24.9072 23.185 18.2521 14.9427 18.2521C6.70048 18.2521 0.0189209 24.9072 0.0189209 33.1168C0.0189209 41.3264 6.70048 47.9814 14.9427 47.9814Z" fill="#04E061"/>
	<path fill-rule="evenodd" clip-rule="evenodd" d="M40.8266 46.1082C45.806 46.1082 49.843 42.0873 49.843 37.1276C49.843 32.1679 45.806 28.1463 40.8266 28.1463C35.847 28.1463 31.8096 32.1672 31.8096 37.1276C31.8096 42.0879 35.8464 46.1082 40.8266 46.1082Z" fill="#FF4053"/>
	<path fill-rule="evenodd" clip-rule="evenodd" d="M17.7954 16.3239C20.8775 16.3239 23.3758 13.8353 23.3758 10.7649C23.3758 7.69505 20.8775 5.20592 17.7954 5.20592C14.7133 5.20592 12.2144 7.69429 12.2144 10.7649C12.2144 13.8347 14.7126 16.3239 17.7954 16.3239Z" fill="#965EEB"/>
	<path fill-rule="evenodd" clip-rule="evenodd" d="M37.3216 26.2098C44.0228 26.2098 49.4548 20.7991 49.4548 14.1246C49.4548 7.45058 44.0222 2.03931 37.3216 2.03931C30.6203 2.03931 25.1882 7.45001 25.1882 14.1246C25.1882 20.7991 30.6203 26.2098 37.3216 26.2098Z" fill="#00AAFF"/>
</svg>