<svg id="cart-empty" viewBox="0 0 60 60" xmlns="http://www.w3.org/2000/svg">
	<path opacity="0.12" d="M52.5652 26.4483L54.4101 20.2989C55.4572 16.8084 55.9808 15.0632 55.6021 13.6799C55.2704 12.4684 54.4949 11.4261 53.4299 10.7603C52.2137 10.0001 50.3916 10.0001 46.7474 10.0001H11.7305L15.3532 25.6984C16.1196 29.0196 16.5028 30.6801 17.4058 31.9187C18.2024 33.0113 19.2796 33.8682 20.5233 34.3987C21.9332 35.0001 23.6374 35.0001 27.0459 35.0001H41.0713C44.2749 35.0001 45.8767 35.0001 47.2278 34.4545C48.4206 33.9728 49.4695 33.1924 50.2736 32.1884C51.1844 31.051 51.6447 29.5167 52.5652 26.4483Z"/>
	<path fill-rule="evenodd" clip-rule="evenodd" d="M2.49989 1.56265L3.76982 1.5625C4.02015 1.5625 4.16855 1.56251 4.30349 1.56682C8.02985 1.68607 11.2362 4.23683 12.1902 7.84096C12.2247 7.97142 12.2581 8.11594 12.3143 8.35964L12.4766 9.06265H46.7949C48.5771 9.06264 49.9781 9.06264 51.083 9.1614C52.2032 9.26154 53.1353 9.47043 53.9271 9.9654C55.1919 10.756 56.1128 11.9937 56.5066 13.4324C56.7532 14.333 56.6854 15.2858 56.4594 16.3876C56.2366 17.4743 55.834 18.8163 55.3218 20.5233L53.3963 26.9417C52.5407 29.7951 52.0315 31.4935 51.0056 32.7744C50.101 33.904 48.9211 34.7819 47.5792 35.3238C46.0575 35.9383 44.2844 35.9381 41.3055 35.9377L27.0091 35.9377C26.7989 35.9377 26.5944 35.9377 26.3954 35.9375H15C12.7563 35.9375 10.9375 37.7563 10.9375 40C10.9375 42.2437 12.7563 44.0625 15 44.0625H52.5C53.0178 44.0625 53.4375 44.4822 53.4375 45C53.4375 45.5178 53.0178 45.9375 52.5 45.9375H46.8302C47.827 46.9996 48.4375 48.4285 48.4375 50C48.4375 53.2792 45.7792 55.9375 42.5 55.9375C39.2208 55.9375 36.5625 53.2792 36.5625 50C36.5625 48.4285 37.173 46.9996 38.1698 45.9375H26.8302C27.827 46.9996 28.4375 48.4285 28.4375 50C28.4375 53.2792 25.7792 55.9375 22.5 55.9375C19.2208 55.9375 16.5625 53.2792 16.5625 50C16.5625 48.4285 17.173 46.9996 18.1698 45.9375H15C11.7208 45.9375 9.0625 43.2792 9.0625 40C9.0625 36.7208 11.7208 34.0625 15 34.0625H18.1629C17.5935 33.6023 17.0838 33.068 16.6486 32.471C16.1126 31.7359 15.7533 30.9031 15.4329 29.8664C15.1182 28.8485 14.8244 27.5754 14.4483 25.9453L10.4919 8.8009C10.4298 8.53209 10.4035 8.41861 10.3776 8.32075C9.63563 5.51754 7.1418 3.53361 4.24352 3.44086C4.14236 3.43763 4.02589 3.43751 3.75011 3.4375L2.50011 3.43765C1.98235 3.43772 1.56256 3.01803 1.5625 2.50027C1.56244 1.9825 1.98212 1.56272 2.49989 1.56265ZM35.0171 34.0627C35.0114 34.0625 35.0057 34.0625 35 34.0625H26.4413C25.0314 34.0615 23.9703 34.0533 23.1038 33.99C22.1293 33.9187 21.4645 33.7809 20.8915 33.5364C19.8032 33.0722 18.8607 32.3224 18.1637 31.3664C17.7966 30.863 17.5128 30.2462 17.2242 29.3127C16.9322 28.3679 16.6532 27.1614 16.2669 25.4877L12.9093 10.9377H46.7477C48.5873 10.9377 49.9045 10.9385 50.916 11.029C51.9218 11.1189 52.5089 11.2901 52.9332 11.5553C53.7986 12.0963 54.4287 12.9431 54.6982 13.9275C54.8303 14.4101 54.8256 15.0216 54.6227 16.0108C54.4186 17.0057 54.041 18.2676 53.5124 20.0295L51.6676 26.1789C50.7233 29.3266 50.3115 30.6417 49.5421 31.6024C48.8385 32.4809 47.9208 33.1637 46.8771 33.5852C45.7359 34.0461 44.3579 34.0627 41.0716 34.0627H35.0171ZM22.5 45.9375C20.2563 45.9375 18.4375 47.7563 18.4375 50C18.4375 52.2437 20.2563 54.0625 22.5 54.0625C24.7437 54.0625 26.5625 52.2437 26.5625 50C26.5625 47.7563 24.7437 45.9375 22.5 45.9375ZM42.5 45.9375C40.2563 45.9375 38.4375 47.7563 38.4375 50C38.4375 52.2437 40.2563 54.0625 42.5 54.0625C44.7437 54.0625 46.5625 52.2437 46.5625 50C46.5625 47.7563 44.7437 45.9375 42.5 45.9375Z"/>
</svg>