<svg id="cdek" width="80" height="22" viewBox="0 0 80 22" fill="none" xmlns="http://www.w3.org/2000/svg">
<g id="cdek 1" clip-path="url(#clip0_1299_230540)">
<g id="Vector">
<path fill-rule="evenodd" clip-rule="evenodd" d="M54.026 22H59.7112L62.1538 15.0798L64.6935 12.9586L66.694 19.2169C67.3127 21.1513 67.9496 22 69.3387 22H73.6914L69.201 9.71939L80 0H73.026L66.4706 6.92036C65.707 7.72598 64.9345 8.51892 64.16 9.46602H64.094L67.3673 0H61.6816L54.026 22Z" fill="#1AB248"/>
<path fill-rule="evenodd" clip-rule="evenodd" d="M53.7808 0.000871703C55.5636 0.00116104 57.293 0.00144167 58.7413 0.00156848L57.5678 3.63386C57.199 4.77509 56.2629 5.32107 54.1995 5.32107C50.617 5.32107 45.3161 5.32044 41.7332 5.31981L42.9068 1.68753C43.2754 0.545673 44.2114 0 46.2748 0C48.4091 0 51.1532 0.000445324 53.7808 0.000871703ZM43.3814 8.33957C46.9637 8.33957 52.2649 8.3402 55.8478 8.34114L54.6743 11.9733C54.3055 13.1148 53.3694 13.6605 51.3059 13.6605C47.7234 13.6605 42.4225 13.6599 38.8396 13.6589L40.0131 10.0271C40.3818 8.88538 41.3179 8.33957 43.3814 8.33957ZM52.812 16.6802C49.2294 16.6796 43.9284 16.6789 40.3459 16.6789C38.2822 16.6789 37.3464 17.2249 36.9777 18.3658L35.8042 21.9986C39.3871 21.9989 44.688 22 48.2706 22C50.3339 22 51.27 21.4539 51.6387 20.3123L52.812 16.6802Z" fill="#1AB248"/>
<path fill-rule="evenodd" clip-rule="evenodd" d="M28.2476 5.29886L31.2987 5.30011C33.8983 5.30074 33.3049 8.46921 31.9893 11.5573C30.83 14.279 28.7754 16.6809 26.3243 16.6806L21.2379 16.68C19.2091 16.68 18.2738 17.2259 17.8792 18.3668L16.6234 21.9994L20.3531 22L23.9991 21.9704C27.2324 21.9443 29.8794 21.7163 32.9748 19.0013C36.2461 16.1334 40.0602 8.68282 39.4068 4.3735C38.8949 0.996563 37.0355 0.00156841 32.5331 0.00125472L24.3285 0L19.5513 13.6448L22.5867 13.6486C24.3931 13.6506 25.2997 13.6727 26.2607 11.1492L28.2476 5.29886Z" fill="#1AB248"/>
<path fill-rule="evenodd" clip-rule="evenodd" d="M14.2213 5.31782L11.9265 5.31845C7.3294 5.32065 3.39015 16.6825 8.82566 16.6806L12.3181 16.68C14.3324 16.68 15.8276 17.3978 15.1656 19.3334L14.2532 21.9994L10.5491 22L7.53626 21.9704C3.68187 21.9327 1.19462 20.0784 0.299047 17.2628C-0.670094 14.2159 0.698161 7.86086 4.66936 3.78989C6.97356 1.42819 10.1653 0.00156841 14.2577 0.00125472L21.8182 0L20.6363 3.32972C19.8727 5.48109 18.3126 5.32065 17.4223 5.32033L14.2213 5.31782Z" fill="#1AB248"/>
</g>
</g>
<defs>
<clipPath id="clip0_1299_230540">
<rect width="80" height="22" fill="white"/>
</clipPath>
</defs>
</svg>
