<svg id="checkbox-rec" viewBox="0 0 48 48" xmlns="http://www.w3.org/2000/svg">
	<path opacity="0.12" d="M4 23.2C4 16.4794 4 13.1191 5.30792 10.5521C6.4584 8.29417 8.29417 6.4584 10.5521 5.30792C13.1191 4 16.4794 4 23.2 4H24.8C31.5206 4 34.8809 4 37.4479 5.30792C39.7058 6.4584 41.5416 8.29417 42.6921 10.5521C44 13.1191 44 16.4794 44 23.2V24.8C44 31.5206 44 34.8809 42.6921 37.4479C41.5416 39.7058 39.7058 41.5416 37.4479 42.6921C34.8809 44 31.5206 44 24.8 44H23.2C16.4794 44 13.1191 44 10.5521 42.6921C8.29417 41.5416 6.4584 39.7058 5.30792 37.4479C4 34.8809 4 31.5206 4 24.8V23.2Z"/>
	<path d="M23.1651 3.25C19.8343 3.25 17.2889 3.25 15.2573 3.41598C13.2099 3.58326 11.6184 3.92286 10.2116 4.63967C7.81255 5.86205 5.86205 7.81255 4.63967 10.2116C3.92286 11.6184 3.58326 13.2099 3.41598 15.2573C3.25 17.2889 3.25 19.8343 3.25 23.1651V24.8349C3.25 28.1657 3.25 30.7111 3.41598 32.7427C3.58326 34.7901 3.92286 36.3816 4.63967 37.7884C5.86205 40.1874 7.81255 42.138 10.2116 43.3603C11.6184 44.0771 13.2099 44.4167 15.2573 44.584C17.2889 44.75 19.8343 44.75 23.1651 44.75H24.835C28.1657 44.75 30.7111 44.75 32.7427 44.584C34.7901 44.4167 36.3816 44.0771 37.7884 43.3603C40.1874 42.138 42.138 40.1874 43.3603 37.7884C44.0771 36.3816 44.4167 34.7901 44.584 32.7427C44.75 30.7111 44.75 28.1657 44.75 24.835V21.7778C44.75 21.3636 44.4142 21.0278 44 21.0278C43.5858 21.0278 43.25 21.3636 43.25 21.7778V24.8C43.25 28.1727 43.2494 30.6571 43.089 32.6205C42.9293 34.5751 42.6149 35.9473 42.0238 37.1074C40.9452 39.2242 39.2242 40.9452 37.1074 42.0238C35.9473 42.6149 34.5751 42.9293 32.6205 43.089C30.6571 43.2494 28.1727 43.25 24.8 43.25H23.2C19.8273 43.25 17.3429 43.2494 15.3795 43.089C13.4249 42.9293 12.0527 42.6149 10.8926 42.0238C8.77578 40.9452 7.05475 39.2242 5.97618 37.1074C5.38507 35.9473 5.0707 34.5751 4.911 32.6205C4.75058 30.6571 4.75 28.1727 4.75 24.8V23.2C4.75 19.8273 4.75058 17.3429 4.911 15.3795C5.0707 13.4249 5.38507 12.0527 5.97618 10.8926C7.05475 8.77578 8.77578 7.05475 10.8926 5.97618C12.0527 5.38507 13.4249 5.0707 15.3795 4.911C17.3429 4.75058 19.8273 4.75 23.2 4.75H32.8889C33.3031 4.75 33.6389 4.41421 33.6389 4C33.6389 3.58579 33.3031 3.25 32.8889 3.25H23.1651Z"/>
	<path d="M44.5303 8.53033C44.8232 8.23744 44.8232 7.76256 44.5303 7.46967C44.2374 7.17678 43.7626 7.17678 43.4697 7.46967L24 26.9393L18.5303 21.4697C18.2374 21.1768 17.7626 21.1768 17.4697 21.4697C17.1768 21.7626 17.1768 22.2374 17.4697 22.5303L23.4697 28.5303C23.7626 28.8232 24.2374 28.8232 24.5303 28.5303L44.5303 8.53033Z"/>
</svg>