<svg id="discount-green" width="82" height="58" viewBox="0 0 82 58" fill="none" xmlns="http://www.w3.org/2000/svg">
<path fill-rule="evenodd" clip-rule="evenodd" d="M32.7069 -19C31.3362 -19 30.061 -18.2982 29.3276 -17.1402L1.46093 26.8598C0.633302 28.1666 0.633303 29.8334 1.46093 31.1402L29.3276 75.1402C30.061 76.2982 31.3362 77 32.7069 77H122.506C124.715 77 126.506 75.2091 126.506 73V-15C126.506 -17.2092 124.715 -19 122.506 -19H32.7069ZM80.1866 -3.44246C80.8259 -4.50803 80.4803 -5.89011 79.4147 -6.52941C78.3492 -7.1687 76.9671 -6.82313 76.3278 -5.75756L36.0109 61.4425C35.3716 62.508 35.7172 63.8901 36.7828 64.5294C37.8484 65.1687 39.2304 64.8232 39.8697 63.7576L80.1866 -3.44246ZM31.5449 17.0041C31.5449 12.6796 35.0503 9.17412 39.3741 9.17412C43.6979 9.17412 47.2034 12.6796 47.2034 17.0041C47.2034 21.3287 43.6979 24.8341 39.3741 24.8341C35.0504 24.8341 31.5449 21.3287 31.5449 17.0041ZM39.3741 4.67412C32.5647 4.67412 27.0449 10.1946 27.0449 17.0041C27.0449 23.8136 32.5647 29.3341 39.3741 29.3341C46.1835 29.3341 51.7034 23.8136 51.7034 17.0041C51.7034 10.1946 46.1835 4.67412 39.3741 4.67412ZM68.9784 40.996C68.9784 36.6714 72.4839 33.166 76.8077 33.166C81.1315 33.166 84.6369 36.6714 84.6369 40.996C84.6369 45.3205 81.1315 48.826 76.8077 48.826C72.4839 48.826 68.9784 45.3205 68.9784 40.996ZM76.8077 28.666C69.9983 28.666 64.4784 34.1865 64.4784 40.996C64.4784 47.8055 69.9983 53.326 76.8077 53.326C83.6171 53.326 89.1369 47.8055 89.1369 40.996C89.1369 34.1865 83.6171 28.666 76.8077 28.666Z" fill="#71CF71"/>
</svg>
