<svg id="logo" viewBox="0 0 948 260" fill="none" xmlns="http://www.w3.org/2000/svg">
	<path fill-rule="evenodd" clip-rule="evenodd" d="M250.088 75.524L251.211 184.335H275.328V99.6413H310.664V75.524H250.088Z" fill="#464847"/>
	<path fill-rule="evenodd" clip-rule="evenodd" d="M328.051 75.524L327.489 184.335H392.552V160.217L352.168 159.655L351.608 141.708L386.943 140.585V117.589H352.729V98.5187L391.991 99.08L391.431 75.524H328.051Z" fill="#464847"/>
	<path fill-rule="evenodd" clip-rule="evenodd" d="M424.253 170.933C401.62 148.6 401.375 112.105 423.709 89.4693C446.043 66.8346 482.536 66.5893 505.172 88.9226C527.807 111.256 528.052 147.751 505.719 170.387C483.385 193.021 446.889 193.267 424.253 170.933ZM488.296 153.197C501.141 140.179 501 119.188 487.983 106.344C474.964 93.4986 453.973 93.64 441.129 106.657C428.284 119.676 428.424 140.667 441.444 153.511C454.461 166.356 475.452 166.216 488.296 153.197Z" fill="#464847"/>
	<path fill-rule="evenodd" clip-rule="evenodd" d="M553.032 201.9L528.845 201.721L529.025 159.721L541.747 159.655C554.532 136.449 556.601 106.543 556.889 75.524H626.439V160.217L639.9 160.777L641.023 200.599L616.904 201.161L616.344 184.335H552.964L553.032 201.9ZM565.864 159.655L599.516 159.095L598.956 98.5187L577.643 97.9587C576.955 119.447 574.063 140.052 565.864 159.655Z" fill="#464847"/>
	<path fill-rule="evenodd" clip-rule="evenodd" d="M756.295 170.933C733.661 148.6 733.416 112.105 755.749 89.4693C778.084 66.8346 814.577 66.5893 837.213 88.9226C859.847 111.256 860.093 147.751 837.76 170.387C815.427 193.021 778.931 193.267 756.295 170.933ZM820.337 153.197C833.183 140.179 833.041 119.188 820.024 106.344C807.005 93.4986 786.015 93.64 773.169 106.657C760.325 119.676 760.465 140.667 773.485 153.511C786.503 166.356 807.493 166.216 820.337 153.197Z" fill="#464847"/>
	<path fill-rule="evenodd" clip-rule="evenodd" d="M655.941 184.335L654.82 75.524H696.325C708.392 78.484 720.677 81.0467 722.687 102.445C723.347 114.751 717.295 122.26 707.543 127.125C717.448 129.104 725.207 134.768 724.369 155.168C723.461 168.439 714.272 180.408 691.837 184.335H655.941ZM679.095 160.86L692.668 160.704C698.923 158.237 700.787 154.013 700.513 148.933C699.931 142.9 696.683 140.423 692.177 139.619L678.937 139.127L679.095 160.86ZM679.524 117.543L691.405 117.407C696.881 115.249 698.512 111.552 698.275 107.105C697.764 101.823 694.919 99.6533 690.977 98.9493L679.387 98.5187L679.524 117.543Z" fill="#464847"/>
	<path fill-rule="evenodd" clip-rule="evenodd" d="M872.957 184.335L872.509 75.524H913.789C932.859 75.524 947.817 88.5693 947.443 111.487C946.169 133.56 931.289 146.485 916.033 146.933L896.963 146.709L897.187 184.335H872.957ZM896.963 123.377L912.488 123.199C919.644 120.377 921.773 115.547 921.463 109.737C920.796 102.836 917.079 100.003 911.928 99.08L896.784 98.5187L896.963 123.377Z" fill="#464847"/>
	<path fill-rule="evenodd" clip-rule="evenodd" d="M56.5413 226.577C27.212 217.175 7.31732 200.323 0.453323 173.183V170.041C3.61599 131.357 36.5747 123.601 65.2907 128.985C89.9693 136.388 98.944 145.587 111.732 159.721L161.763 87.9307L135.288 139.529L186.441 56.9693L193.397 72.0013L111.732 209.976C96.5547 228.411 77.652 231.901 56.5413 226.577ZM103.432 184.335C101.86 163.535 79.4253 143.567 54.5227 143.344C24.4587 143.344 13.3907 166.639 27.824 184.335L31.1893 178.567C38.9467 192.252 49.5267 202.179 64.3947 206.387C89.072 211.097 104.104 202.796 103.432 184.335Z" fill="#464847"/>
	<path fill-rule="evenodd" clip-rule="evenodd" d="M47.568 114.851L25.3573 114.177L70.2267 58.988C60.5893 59.4933 51.66 58.58 44.4267 54.2773C35.676 48.22 37.472 37.6746 43.304 34.5333C50.9693 28.5146 61.892 36.4386 73.816 48.6693C61.8933 36.6346 55.82 24.2747 54.5227 11.6507C56.356 2.16798 62.928 -0.757362 72.4707 0.433304C82.6587 5.04264 86.0213 19.2733 83.24 42.1613L106.572 6.93864C130.579 2.89997 172.083 -6.74668 197.211 32.964L195.864 52.4826C182.709 27.932 162.892 19.38 140.673 16.5866L161.315 25.336L123.623 21.0733L102.983 48.6693C126.444 47.8173 145.587 53.204 158.397 67.7386L148.975 80.9746C134.277 67.14 121.004 64.684 108.141 65.4946C116.505 66.4213 122.701 68.972 128.559 71.7773L87.5027 67.0653L59.2333 103.859L72.2467 81.424L47.568 114.851ZM65.6853 49.8506L68.3787 49.5133C59.408 41.24 50.3187 35.1546 47.4013 40.9893C45.36 47.0493 54.2013 49.0173 65.6853 49.8506ZM78.6987 36.388L78.5867 33.36C80.096 18.9906 78.9227 6.88664 70.8467 9.01731C61.9653 12.776 71.42 25.092 78.6987 36.388Z" fill="#9CC013"/>
	<path fill-rule="evenodd" clip-rule="evenodd" d="M165.448 92.3493L86.452 226.907C103.152 225.341 119.147 213.147 134.736 194.863C148.865 184.879 166.517 184.335 181.1 205.648L229.896 62.624C202.725 48.868 182.995 89.6 165.448 92.3493Z" fill="#464847"/>
</svg>