<svg id="logo" width="166" height="46" viewBox="0 0 166 46" fill="none" xmlns="http://www.w3.org/2000/svg"><path d="M6.034 26H.761L8.795 2.727h6.341L23.16 26h-5.273l-5.83-17.955h-.181L6.035 26zm-.33-9.148H18.16v3.841H5.705v-3.84zm30.484 3.796l4.727-12.103h3.682L37.79 26h-3.216L27.926 8.545h3.67l4.591 12.103zM30.494 8.545V26H25.87V8.545h4.625zM42.12 26V8.545h4.569V26H42.12zm8.312 0V8.545h15.261V26h-4.625V12.352H55V26h-4.568zm27.079.34c-1.795 0-3.34-.363-4.636-1.09a7.471 7.471 0 01-2.977-3.114c-.697-1.348-1.046-2.943-1.046-4.784 0-1.795.349-3.37 1.046-4.727.697-1.356 1.678-2.413 2.943-3.17 1.273-.758 2.765-1.137 4.477-1.137 1.152 0 2.224.186 3.216.557 1 .364 1.871.913 2.614 1.648.75.735 1.333 1.659 1.75 2.773.416 1.106.625 2.401.625 3.886v1.33H70.784v-3h10.182c0-.698-.152-1.315-.455-1.853a3.257 3.257 0 00-1.261-1.261c-.53-.31-1.148-.466-1.852-.466-.735 0-1.387.17-1.955.511-.56.334-1 .784-1.318 1.353a3.818 3.818 0 00-.489 1.875v2.852c0 .863.16 1.61.478 2.238a3.493 3.493 0 001.375 1.455c.59.34 1.291.511 2.102.511a4.59 4.59 0 001.477-.227 3.06 3.06 0 001.148-.682 2.97 2.97 0 00.727-1.113L85.42 21a6.112 6.112 0 01-1.397 2.818c-.697.796-1.599 1.417-2.705 1.864-1.098.44-2.367.659-3.807.659zm11.171 6.205v-24h4.772v2.932h.216c.213-.47.52-.947.92-1.431.41-.493.94-.902 1.592-1.228.659-.333 1.477-.5 2.454-.5 1.273 0 2.447.334 3.523 1 1.076.66 1.936 1.655 2.58 2.989.644 1.326.966 2.989.966 4.989 0 1.946-.315 3.59-.944 4.931-.621 1.334-1.469 2.345-2.545 3.034-1.068.682-2.265 1.023-3.591 1.023-.94 0-1.739-.155-2.398-.466-.651-.31-1.185-.7-1.602-1.17a5.945 5.945 0 01-.955-1.443h-.147v9.34h-4.841zm4.738-15.272c0 1.038.144 1.943.432 2.716.288.772.705 1.375 1.25 1.806.546.425 1.209.637 1.989.637.788 0 1.454-.216 2-.648.545-.44.958-1.045 1.239-1.818.287-.78.431-1.678.431-2.693 0-1.008-.14-1.894-.42-2.66-.28-.764-.693-1.363-1.239-1.795-.545-.432-1.216-.647-2.011-.647-.788 0-1.455.208-2 .625-.538.416-.95 1.007-1.239 1.772-.288.765-.432 1.667-.432 2.705zM108.932 26V8.545h4.841v6.773h1.363l4.75-6.773h5.682l-6.17 8.66L125.636 26h-5.75l-4.306-6.193h-1.807V26h-4.841zm23.375-6.386l6.284-11.069h4.773V26h-4.614V14.898L132.489 26h-4.807V8.545h4.625v11.069zm27.085-4.274v3.808h-9.114V15.34h9.114zm-7.523-6.795V26h-4.625V8.545h4.625zm10.557 0V26h-4.591V8.545h4.591z" fill="#B22B29"/><path d="M0 40h13v1H0v-1zm19.569 4v-6.545h2.62c.482 0 .884.07 1.206.214.321.142.563.34.725.594.162.252.243.541.243.87 0 .255-.051.48-.154.674-.102.192-.242.35-.421.473a1.74 1.74 0 01-.608.259v.064a1.493 1.493 0 011.234.758c.136.231.205.508.205.83a1.7 1.7 0 01-.26.93c-.17.27-.422.485-.757.642-.334.158-.747.237-1.237.237H19.57zm1.384-1.131h1.128c.386 0 .667-.074.844-.22a.739.739 0 00.265-.595.88.88 0 00-.131-.48.89.89 0 00-.374-.326 1.281 1.281 0 00-.572-.118h-1.16v1.739zm0-2.675h1.026c.19 0 .358-.034.505-.1a.84.84 0 00.351-.287.75.75 0 00.131-.444.718.718 0 00-.252-.572c-.166-.145-.403-.218-.71-.218h-1.051v1.62zm6.377-.32h1.56c.52 0 .967.084 1.342.252.377.167.668.402.873.707.204.304.305.663.303 1.077.002.411-.099.774-.303 1.09a2.053 2.053 0 01-.873.735c-.375.177-.822.265-1.342.265h-2.445v-6.545h1.38v5.433h1.065c.249 0 .459-.045.63-.134a.96.96 0 00.386-.362.933.933 0 00.131-.495.844.844 0 00-.294-.658c-.196-.181-.48-.272-.853-.272h-1.56v-1.093zm5.992-2.42V44h-1.38v-6.545h1.38zM35.361 44v-6.545h4.344v1.14h-2.96v1.279h1.064c.518 0 .964.084 1.34.252.377.167.667.402.872.707.204.304.307.663.307 1.077 0 .411-.103.774-.307 1.09a2.052 2.052 0 01-.873.735c-.375.177-.821.265-1.339.265h-2.448zm1.384-1.112h1.064c.247 0 .456-.045.627-.134a.955.955 0 00.52-.857c0-.26-.099-.48-.297-.658-.196-.181-.479-.272-.85-.272h-1.064v1.92zm11.393-2.161c0 .714-.135 1.321-.406 1.822-.268.5-.635.883-1.099 1.147a3.108 3.108 0 01-1.56.394 3.1 3.1 0 01-1.566-.397 2.821 2.821 0 01-1.096-1.147c-.268-.5-.403-1.107-.403-1.819 0-.713.135-1.32.403-1.821a2.8 2.8 0 011.096-1.145 3.099 3.099 0 011.566-.396c.578 0 1.098.132 1.56.396.464.262.831.644 1.1 1.145.27.5.405 1.108.405 1.821zm-1.403 0c0-.462-.069-.852-.207-1.17a1.583 1.583 0 00-.579-.722 1.557 1.557 0 00-.876-.246c-.334 0-.626.082-.875.246-.25.164-.444.405-.582.722-.136.318-.205.708-.205 1.17 0 .463.069.853.205 1.17.138.318.332.558.582.722.249.164.54.246.875.246.335 0 .627-.082.876-.246a1.58 1.58 0 00.579-.722c.138-.317.207-.707.207-1.17zM50.063 44v-6.545h2.583c.496 0 .92.094 1.269.284.35.188.615.449.799.783.185.332.278.716.278 1.15 0 .435-.094.819-.281 1.151a1.94 1.94 0 01-.816.777c-.353.185-.782.278-1.284.278h-1.646v-1.11h1.422c.266 0 .486-.045.658-.137a.911.911 0 00.39-.386 1.21 1.21 0 00.131-.572 1.18 1.18 0 00-.13-.57.874.874 0 00-.39-.38c-.175-.091-.397-.137-.665-.137h-.934V44h-1.384zm15.275-6.545V44H63.97v-5.42h-2.646V44h-1.368v-6.545h5.382zM67.555 44v-6.545h2.583c.496 0 .92.094 1.269.284.35.188.615.449.799.783.185.332.278.716.278 1.15 0 .435-.094.819-.282 1.151a1.94 1.94 0 01-.814.777c-.354.185-.782.278-1.285.278h-1.646v-1.11h1.422c.266 0 .486-.045.658-.137a.911.911 0 00.39-.386 1.21 1.21 0 00.131-.572 1.18 1.18 0 00-.13-.57.874.874 0 00-.39-.38c-.175-.091-.397-.137-.665-.137h-.934V44h-1.384zm12.742-3.273c0 .714-.135 1.321-.405 1.822-.269.5-.635.883-1.1 1.147a3.108 3.108 0 01-1.56.394 3.1 3.1 0 01-1.566-.397 2.821 2.821 0 01-1.096-1.147c-.268-.5-.402-1.107-.402-1.819 0-.713.134-1.32.402-1.821a2.8 2.8 0 011.097-1.145 3.098 3.098 0 011.566-.396c.577 0 1.097.132 1.56.396.464.262.83.644 1.099 1.145.27.5.406 1.108.406 1.821zm-1.403 0c0-.462-.069-.852-.207-1.17a1.583 1.583 0 00-.579-.722 1.557 1.557 0 00-.876-.246c-.334 0-.626.082-.875.246-.25.164-.443.405-.582.722-.136.318-.204.708-.204 1.17 0 .463.068.853.204 1.17.139.318.332.558.582.722.25.164.541.246.876.246.334 0 .626-.082.875-.246a1.58 1.58 0 00.579-.722c.138-.317.207-.707.207-1.17zm5.917-2.569h1.464c.524 0 .989.11 1.394.332.407.222.725.534.955.936.233.401.349.872.349 1.413 0 .524-.117.981-.349 1.371a2.4 2.4 0 01-.955.911c-.405.215-.87.323-1.394.323h-1.464c-.526 0-.993-.107-1.4-.32a2.4 2.4 0 01-.958-.907c-.23-.39-.345-.85-.345-1.381 0-.541.116-1.012.348-1.413.234-.402.555-.714.962-.933a2.868 2.868 0 011.393-.332zm0 1.157c-.28 0-.53.056-.744.169-.213.11-.38.28-.499.505-.12.226-.179.508-.179.847 0 .324.06.593.182.809.124.215.292.376.505.482.213.107.458.16.735.16h1.474c.279 0 .523-.054.732-.163.21-.109.374-.27.489-.486.117-.215.175-.481.175-.799 0-.339-.058-.621-.175-.847a1.151 1.151 0 00-.49-.508 1.515 1.515 0 00-.731-.17H84.81zm1.387-1.975v6.928h-1.313V37.34h1.313zM90.892 44v-6.545h4.41v1.14h-3.026v1.56h2.8v1.141h-2.8v1.563h3.04V44h-4.424zm12.186-4.254h-1.4a1.374 1.374 0 00-.156-.483 1.225 1.225 0 00-.304-.364 1.34 1.34 0 00-.428-.23 1.643 1.643 0 00-.521-.08c-.339 0-.634.084-.886.253-.25.166-.446.409-.584.728-.139.318-.208.703-.208 1.157 0 .467.07.859.208 1.176.14.318.336.558.588.72.251.161.542.242.872.242.186 0 .357-.024.515-.073.16-.05.301-.12.425-.214a1.24 1.24 0 00.307-.349 1.36 1.36 0 00.172-.466l1.4.006a2.596 2.596 0 01-.85 1.614 2.72 2.72 0 01-.863.518 3.168 3.168 0 01-1.128.188 3.089 3.089 0 01-1.566-.396 2.814 2.814 0 01-1.087-1.147c-.264-.5-.396-1.107-.396-1.819 0-.713.134-1.32.403-1.821a2.798 2.798 0 011.093-1.145c.46-.264.978-.396 1.553-.396.379 0 .731.053 1.055.16.326.106.614.262.866.467.251.202.456.45.613.744.16.294.262.63.307 1.01zm7.668 0h-1.4a1.375 1.375 0 00-.157-.483 1.237 1.237 0 00-.303-.364 1.345 1.345 0 00-.429-.23 1.635 1.635 0 00-.521-.08 1.55 1.55 0 00-.885.253 1.62 1.62 0 00-.585.728c-.138.318-.208.703-.208 1.157 0 .467.07.859.208 1.176.141.318.337.558.588.72.252.161.543.242.873.242.185 0 .357-.024.514-.073a1.229 1.229 0 00.732-.563 1.36 1.36 0 00.173-.466l1.4.006c-.037.3-.127.59-.272.87a2.632 2.632 0 01-1.441 1.262 3.178 3.178 0 01-1.129.188 3.092 3.092 0 01-1.566-.396 2.81 2.81 0 01-1.086-1.147c-.264-.5-.397-1.107-.397-1.819 0-.713.135-1.32.403-1.821a2.81 2.81 0 011.093-1.145c.46-.264.978-.396 1.553-.396.38 0 .731.053 1.055.16.326.106.615.262.866.467.252.202.456.45.614.744.16.294.262.63.307 1.01zm1.892-2.291h1.381v4.116h.054l2.829-4.116h1.211V44h-1.384v-4.12h-.048L113.837 44h-1.199v-6.545zm13.533 3.272c0 .714-.135 1.321-.406 1.822-.268.5-.635.883-1.099 1.147a3.109 3.109 0 01-1.56.394 3.098 3.098 0 01-1.566-.397 2.82 2.82 0 01-1.096-1.147c-.269-.5-.403-1.107-.403-1.819 0-.713.134-1.32.403-1.821a2.798 2.798 0 011.096-1.145 3.097 3.097 0 011.566-.396 3.09 3.09 0 011.56.396c.464.262.831.644 1.099 1.145.271.5.406 1.108.406 1.821zm-1.403 0c0-.462-.069-.852-.208-1.17a1.582 1.582 0 00-.578-.722 1.556 1.556 0 00-.876-.246 1.56 1.56 0 00-.876.246 1.6 1.6 0 00-.581.722c-.137.318-.205.708-.205 1.17 0 .463.068.853.205 1.17a1.6 1.6 0 00.581.722c.25.164.542.246.876.246.335 0 .627-.082.876-.246.249-.164.442-.404.578-.722.139-.317.208-.707.208-1.17zM128.096 44v-6.545h1.384v2.7h2.809v-2.7h1.381V44h-1.381v-2.704h-2.809V44h-1.384zm8.743 0h-1.483l2.26-6.545h1.783L141.656 44h-1.483l-1.64-5.05h-.051L136.839 44zm-.092-2.573h3.502v1.08h-3.502v-1.08zM142.989 44v-1.112l.185-.016a.84.84 0 00.579-.272c.147-.164.256-.425.329-.783.074-.36.122-.844.144-1.45l.108-2.912h4.443V44h-1.346v-5.436h-1.812l-.102 2.278c-.034.733-.122 1.332-.262 1.797-.139.464-.36.807-.665 1.029-.303.221-.717.332-1.243.332h-.358zm13.844-3.273c0 .714-.136 1.321-.406 1.822-.269.5-.635.883-1.1 1.147a3.105 3.105 0 01-1.559.394 3.098 3.098 0 01-1.566-.397 2.822 2.822 0 01-1.097-1.147c-.268-.5-.402-1.107-.402-1.819 0-.713.134-1.32.402-1.821a2.8 2.8 0 011.097-1.145 3.097 3.097 0 011.566-.396c.577 0 1.097.132 1.559.396.465.262.831.644 1.1 1.145.27.5.406 1.108.406 1.821zm-1.403 0c0-.462-.07-.852-.208-1.17a1.584 1.584 0 00-.579-.722 1.555 1.555 0 00-.875-.246c-.335 0-.627.082-.876.246a1.608 1.608 0 00-.582.722c-.136.318-.204.708-.204 1.17 0 .463.068.853.204 1.17.139.318.333.558.582.722.249.164.541.246.876.246.334 0 .626-.082.875-.246a1.58 1.58 0 00.579-.722c.138-.317.208-.707.208-1.17zM158.758 44v-6.545h2.621c.481 0 .883.07 1.204.214.322.142.564.34.726.594.162.252.243.541.243.87 0 .255-.051.48-.154.674-.102.192-.242.35-.421.473a1.74 1.74 0 01-.608.259v.064a1.487 1.487 0 011.234.758c.136.231.204.508.204.83 0 .347-.086.657-.258.93-.171.27-.423.485-.758.642-.334.158-.747.237-1.237.237h-2.796zm1.384-1.131h1.128c.386 0 .667-.074.844-.22a.741.741 0 00.265-.595.882.882 0 00-.131-.48.893.893 0 00-.374-.326 1.283 1.283 0 00-.572-.118h-1.16v1.739zm0-2.675h1.026c.189 0 .358-.034.505-.1a.837.837 0 00.351-.287.752.752 0 00.131-.444.719.719 0 00-.252-.572c-.167-.145-.403-.218-.71-.218h-1.051v1.62z" fill="#070707"/></svg>