<svg id="messages" viewBox="0 0 50 50" fill="none" xmlns="http://www.w3.org/2000/svg">
	<path opacity="0.4" d="M45.8333 13.0208V23.6457C45.8333 26.2916 44.9583 28.5208 43.3958 30.0624C41.8542 31.6249 39.625 32.4999 36.9792 32.4999V36.2707C36.9792 37.6874 35.3958 38.5416 34.2292 37.75L32.2084 36.4166C32.3959 35.7708 32.4792 35.0624 32.4792 34.3124V25.8333C32.4792 21.5833 29.6458 18.75 25.3958 18.75H11.25C10.9583 18.75 10.6875 18.7708 10.4167 18.7917V13.0208C10.4167 7.70829 13.9583 4.16663 19.2708 4.16663H36.9792C42.2917 4.16663 45.8333 7.70829 45.8333 13.0208Z" fill="#9CC013"/>
	<path d="M32.4792 25.8334V34.3124C32.4792 35.0624 32.3959 35.7708 32.2084 36.4166C31.4375 39.4791 28.8958 41.3958 25.3958 41.3958H19.7292L13.4375 45.5833C12.5 46.2292 11.25 45.5417 11.25 44.4167V41.3958C9.12499 41.3958 7.35418 40.6875 6.12501 39.4583C4.87501 38.2083 4.16667 36.4374 4.16667 34.3124V25.8334C4.16667 21.8751 6.625 19.1459 10.4167 18.7917C10.6875 18.7709 10.9583 18.75 11.25 18.75H25.3958C29.6458 18.75 32.4792 21.5834 32.4792 25.8334Z" fill="#9CC013"/>
</svg>