<svg id="order" width="250" height="252" viewBox="0 0 250 252" fill="none" xmlns="http://www.w3.org/2000/svg">
<g id="order">
<g id="Group">
<path id="Vector" d="M208.183 146.28C208.183 146.954 208.133 147.611 208.049 148.285C208.049 148.403 208.033 148.521 207.999 148.638C207.983 148.756 207.949 148.874 207.933 149.009C207.883 149.245 207.866 149.464 207.816 149.7C207.733 150.087 207.633 150.491 207.516 150.879C207.499 150.997 207.449 151.115 207.433 151.232C207.416 151.3 207.383 151.367 207.366 151.435L207.233 151.923C207.116 152.243 206.999 152.563 206.883 152.883C206.766 153.186 206.633 153.49 206.499 153.776C206.499 153.793 206.499 153.826 206.483 153.826C206.483 153.843 206.483 153.877 206.466 153.894C206.349 154.146 206.233 154.399 206.116 154.685C205.983 154.989 205.816 155.258 205.683 155.561C205.549 155.797 205.416 156.05 205.266 156.269C205.266 156.286 205.249 156.319 205.249 156.336C205.233 156.353 205.199 156.387 205.199 156.404C205.016 156.707 204.849 156.976 204.683 157.279C204.499 157.583 204.299 157.852 204.083 158.155C203.999 158.273 203.916 158.391 203.833 158.509C203.783 158.576 203.749 158.644 203.699 158.711C203.616 158.829 203.516 158.964 203.433 159.082C203.166 159.436 202.883 159.772 202.616 160.092L202.233 160.48C202.116 160.615 201.999 160.732 201.883 160.85C201.766 160.985 201.633 161.12 201.499 161.272C201.233 161.541 200.933 161.794 200.633 162.063C200.433 162.248 200.249 162.434 200.033 162.585C199.416 163.074 198.783 163.529 198.149 163.899L197.166 164.472C196.733 164.725 196.299 164.927 195.883 165.112L195.749 165.179C195.666 165.23 195.583 165.23 195.499 165.264C195.249 165.348 195.016 165.449 194.799 165.516C194.733 165.533 194.633 165.567 194.566 165.584C194.499 165.6 194.399 165.6 194.333 165.634C194.199 165.685 194.066 165.702 193.916 165.718C193.833 165.735 193.749 165.769 193.666 165.769C193.583 165.786 193.483 165.786 193.399 165.819C193.283 165.819 193.199 165.836 193.083 165.836C193.033 165.836 192.966 165.853 192.916 165.853C192.749 165.853 192.599 165.853 192.433 165.836C192.383 165.836 192.316 165.853 192.266 165.836H192.249C192.049 165.836 191.833 165.819 191.633 165.769C191.616 165.769 191.566 165.769 191.549 165.752C191.483 165.752 191.416 165.735 191.366 165.702C191.283 165.685 191.166 165.685 191.066 165.651C190.983 165.6 190.883 165.584 190.799 165.533C190.749 165.533 190.683 165.516 190.633 165.483C190.616 165.466 190.566 165.466 190.549 165.432C190.366 165.365 190.199 165.264 190.033 165.179C190.033 165.179 190.016 165.163 189.983 165.163L163.583 149.649L109.649 117.965C109.783 118.033 109.949 118.134 110.099 118.201C110.166 118.218 110.233 118.269 110.299 118.285C110.349 118.302 110.416 118.336 110.466 118.336C110.649 118.403 110.833 118.471 111.033 118.521C111.083 118.521 111.149 118.538 111.216 118.538C111.449 118.589 111.699 118.622 111.949 118.622C111.999 118.639 112.066 118.622 112.116 118.639C112.316 118.639 112.549 118.639 112.749 118.622C112.866 118.622 112.949 118.605 113.066 118.605C113.233 118.589 113.416 118.555 113.583 118.521C113.716 118.504 113.849 118.471 113.999 118.437C114.166 118.42 114.299 118.37 114.449 118.319C114.683 118.252 114.899 118.151 115.149 118.066C115.283 118.016 115.399 117.982 115.533 117.898C115.949 117.713 116.383 117.511 116.816 117.275L117.799 116.668C118.433 116.298 119.083 115.843 119.699 115.355C119.899 115.186 120.083 115.001 120.299 114.832C120.733 114.462 121.149 114.074 121.549 113.636L121.899 113.283C122.416 112.71 122.899 112.104 123.383 111.48C123.433 111.413 123.466 111.346 123.516 111.278C124.016 110.588 124.499 109.88 124.933 109.105C124.933 109.089 124.949 109.055 124.949 109.038C125.399 108.246 125.799 107.471 126.133 106.663C126.149 106.646 126.149 106.612 126.149 106.612C126.499 105.804 126.783 104.995 127.033 104.187C127.049 104.12 127.083 104.052 127.099 103.985C127.299 103.244 127.483 102.502 127.599 101.778C127.616 101.643 127.649 101.526 127.666 101.408C127.783 100.599 127.849 99.8411 127.849 99.0831L127.716 46.2938V46.2264L127.583 1L132.549 9.64102L137.566 6.76068L142.566 15.4859L147.599 12.6056L152.599 21.3308L157.633 18.4505L162.633 27.1757L167.666 24.2954L172.666 33.0206L177.683 30.1234L182.699 38.8824L187.716 35.9852L192.716 44.7441L197.749 41.8469L202.749 50.6058L207.783 47.7087L207.949 48.0119L208.216 146.247L208.183 146.28Z" fill="#E6E3D2" stroke="#2F292B" stroke-width="0.25" stroke-miterlimit="10"/>
<path id="Vector_2" d="M185.416 156.892L185.216 84.8496C185.216 81.6324 184.166 79.2742 182.266 78.3141L101.933 31.1338C103.749 32.195 104.866 34.4689 104.883 37.6693L105.083 109.711C105.083 113.434 106.399 116.062 108.499 117.291L188.833 164.472C186.733 163.242 185.433 160.614 185.416 156.892Z" fill="#2F292B" stroke="#2F292B" stroke-width="0.25" stroke-miterlimit="10"/>
<path id="Vector_3" d="M182.8 78.7191C182.8 78.7191 182.716 78.6685 182.633 78.6517C182.566 78.6349 182.5 78.6012 182.45 78.5843C182.216 78.5169 182.016 78.4496 181.783 78.399C181.716 78.399 181.65 78.3822 181.583 78.3485C181.316 78.298 181.016 78.2643 180.716 78.2306H180.55C180.3 78.2306 180.05 78.2306 179.8 78.2474C179.683 78.2474 179.566 78.2643 179.45 78.2643C179.25 78.2811 179.033 78.3317 178.816 78.3822C178.683 78.399 178.516 78.4327 178.366 78.4664C178.183 78.5169 178 78.5506 177.85 78.6012C177.583 78.6854 177.3 78.7864 177.033 78.9044C176.866 78.9549 176.716 79.0223 176.583 79.0896C176.1 79.2918 175.6 79.5276 175.1 79.8308C174.35 80.2687 173.616 80.7909 172.916 81.3804C172.683 81.5657 172.466 81.7679 172.233 81.9868C171.733 82.4248 171.233 82.8796 170.766 83.368C170.633 83.5028 170.5 83.6375 170.383 83.806C169.766 84.4461 169.2 85.1367 168.666 85.8778C168.6 85.9452 168.55 86.0126 168.483 86.0799C167.916 86.9053 167.366 87.7307 166.866 88.6066C166.85 88.6234 166.85 88.6739 166.816 88.6908C166.3 89.5835 165.833 90.5099 165.433 91.4532C165.433 91.4532 165.433 91.4701 165.416 91.5037C165.033 92.4302 164.683 93.3398 164.416 94.2999C164.4 94.3672 164.35 94.4683 164.333 94.5357C164.083 95.4116 163.9 96.2706 163.766 97.1128C163.716 97.2476 163.7 97.416 163.683 97.5508C163.55 98.4435 163.483 99.3699 163.483 100.246L163.616 149.616V149.666L163.916 250.815L163.566 251L158.566 242.275L153.533 245.156L148.533 236.43L143.5 239.311L138.5 230.585L133.483 233.466L128.483 224.741L123.45 227.621L118.466 218.896L113.433 221.776L108.433 213.051L103.4 215.948L98.3995 207.189L93.3829 210.086L88.3662 201.327L83.5495 204.123L83.1162 53.0992C83.1162 52.3412 83.1662 51.5832 83.2495 50.7916C83.2662 50.6568 83.2995 50.5389 83.3162 50.4042C83.3329 50.2694 83.3662 50.101 83.3995 49.9662C83.4495 49.6967 83.4662 49.444 83.5329 49.1577C83.6162 48.7029 83.7329 48.265 83.8495 47.7933C83.8995 47.6586 83.9329 47.5238 83.9662 47.3722C83.9829 47.3048 84.0329 47.2038 84.0495 47.1364C84.0995 46.9511 84.1329 46.7658 84.2162 46.5806C84.3329 46.1931 84.4662 45.8226 84.5995 45.452C84.7329 45.0983 84.8995 44.7445 85.0329 44.3908C85.0329 44.3908 85.0384 44.374 85.0496 44.3403L85.0662 44.2898C85.1995 43.9697 85.3329 43.6665 85.4996 43.3465C85.6662 43.0264 85.8162 42.6727 85.9995 42.3527C86.1329 42.0832 86.2995 41.7968 86.4495 41.5273C86.4662 41.5105 86.4662 41.4599 86.4995 41.4431C86.5162 41.4263 86.5162 41.3926 86.5495 41.3589C86.7495 41.0388 86.9662 40.6851 87.1662 40.3651C87.3662 40.0114 87.5995 39.6745 87.8329 39.3207C87.9495 39.186 88.0329 39.0681 88.1496 38.9333C88.1996 38.8491 88.2329 38.7649 88.3162 38.6975C88.3995 38.5628 88.5162 38.3943 88.6329 38.2596C88.9329 37.8722 89.2495 37.4679 89.5662 37.0805L90.0162 36.6257C90.1329 36.4573 90.2662 36.3225 90.3995 36.1877C90.5329 36.053 90.6996 35.8677 90.8329 35.733C91.1829 35.3792 91.5162 35.1097 91.8662 34.8065C92.0995 34.6044 92.3162 34.3854 92.5495 34.2001C93.2495 33.6274 93.9829 33.0884 94.7662 32.6505C95.2496 32.3473 95.7495 32.1283 96.2329 31.9093C96.2829 31.8925 96.3495 31.842 96.3995 31.8251C96.4829 31.8083 96.5829 31.7746 96.6995 31.7409C96.9662 31.623 97.2495 31.5388 97.5162 31.4714C97.5829 31.4209 97.6829 31.404 97.7662 31.3872L98.0329 31.3198C98.1995 31.2693 98.3496 31.2524 98.5162 31.2356L98.7829 31.1682C98.8995 31.1514 99.0162 31.1514 99.1329 31.1514C99.2495 31.1345 99.3662 31.1008 99.4829 31.1008C99.5496 31.1008 99.6162 31.084 99.6662 31.084H100.433C100.683 31.1008 100.916 31.1345 101.133 31.1682C101.183 31.1682 101.216 31.1851 101.25 31.1851C101.316 31.2019 101.383 31.2356 101.45 31.2356C101.566 31.2524 101.683 31.2861 101.8 31.3198C101.916 31.3366 102 31.3872 102.116 31.404C102.166 31.4546 102.233 31.4546 102.3 31.4882C102.35 31.4882 102.383 31.5051 102.416 31.5051C102.466 31.5219 102.483 31.5556 102.533 31.5556C102.55 31.5725 102.583 31.6062 102.583 31.6062C102.75 31.6567 102.883 31.7241 103.016 31.8083C103.033 31.8083 103.066 31.8251 103.083 31.8588L127.733 46.3447L182.816 78.7191H182.8Z" fill="#F9F7F2" stroke="#2F292B" stroke-width="0.25" stroke-miterlimit="10"/>
<g id="Group_2">
<path id="Vector_4" d="M126.283 144.074C127.083 144.546 127.716 145.657 127.716 146.584C127.716 147.51 127.066 147.881 126.266 147.426L91.8494 127.348C91.0494 126.876 90.416 125.764 90.416 124.838C90.416 123.912 91.066 123.541 91.8494 123.996L126.266 144.074H126.283Z" fill="#2F292B" stroke="#2F292B" stroke-width="0.25" stroke-miterlimit="10"/>
<path id="Vector_5" d="M116.632 115.945C117.432 116.416 118.066 117.528 118.066 118.454C118.066 119.381 117.416 119.735 116.632 119.28L91.9324 104.878C91.1324 104.406 90.499 103.295 90.499 102.368C90.499 101.442 91.149 101.071 91.9324 101.526L116.632 115.928V115.945Z" fill="#2F292B" stroke="#2F292B" stroke-width="0.25" stroke-miterlimit="10"/>
<path id="Vector_6" d="M155.599 175.555L90.6328 137.656" stroke="#2F292B" stroke-width="0.25" stroke-miterlimit="10"/>
<path id="Vector_7" d="M136.033 138.853C136.833 139.325 137.466 140.453 137.466 141.363C137.466 142.272 136.816 142.66 136.016 142.205L91.8826 116.45C91.0826 115.979 90.4492 114.867 90.4492 113.941C90.4492 113.014 91.0992 112.644 91.8826 113.098L136.016 138.853H136.033Z" fill="#2F292B" stroke="#2F292B" stroke-width="0.25" stroke-miterlimit="10"/>
<path id="Vector_8" d="M128.332 111.868C129.132 112.339 129.766 113.468 129.766 114.378C129.766 115.287 129.116 115.658 128.316 115.203L91.9656 93.9962C91.1656 93.5245 90.5322 92.4128 90.5322 91.4864C90.5322 90.56 91.1822 90.1894 91.9656 90.6442L128.316 111.851L128.332 111.868Z" fill="#2F292B" stroke="#2F292B" stroke-width="0.25" stroke-miterlimit="10"/>
<path id="Vector_9" d="M154.466 149.885C155.116 150.272 155.666 151.216 155.666 151.974C155.666 152.732 155.116 153.052 154.466 152.664L149.216 149.599C148.549 149.211 148.016 148.268 148.016 147.51C148.016 146.752 148.549 146.432 149.216 146.819L154.466 149.885Z" fill="#F1D747" stroke="#2F292B" stroke-width="0.25" stroke-miterlimit="10"/>
<path id="Vector_10" d="M154.432 160.767C155.082 161.154 155.632 162.098 155.632 162.856C155.632 163.614 155.082 163.934 154.432 163.546L149.182 160.481C148.516 160.093 147.982 159.15 147.982 158.392C147.982 157.634 148.516 157.314 149.182 157.701L154.432 160.767Z" fill="#F1D747" stroke="#2F292B" stroke-width="0.25" stroke-miterlimit="10"/>
<path id="Vector_11" d="M154.533 127.432C155.183 127.819 155.733 128.746 155.733 129.521C155.733 130.296 155.183 130.582 154.533 130.211L149.283 127.146C148.616 126.758 148.083 125.832 148.083 125.057C148.083 124.282 148.616 123.979 149.283 124.366L154.533 127.432Z" fill="#F1D747" stroke="#2F292B" stroke-width="0.25" stroke-miterlimit="10"/>
<path id="Vector_12" d="M150.016 186.168C153.066 187.953 155.566 192.333 155.566 195.887C155.566 199.441 153.033 200.907 149.983 199.121L138.249 192.282C135.183 190.497 132.699 186.117 132.699 182.547C132.699 179.009 135.216 177.544 138.283 179.329L150.016 186.168Z" fill="#F3483A" stroke="#2F292B" stroke-width="0.25" stroke-miterlimit="10"/>
<path id="Vector_13" d="M154.5 138.33C155.15 138.718 155.7 139.644 155.7 140.419C155.7 141.194 155.15 141.48 154.5 141.11L149.25 138.044C148.583 137.657 148.05 136.73 148.05 135.955C148.05 135.181 148.583 134.877 149.25 135.265L154.5 138.33Z" fill="#F1D747" stroke="#2F292B" stroke-width="0.25" stroke-miterlimit="10"/>
<path id="Vector_14" d="M116.632 81.97C117.432 82.4416 118.066 83.5533 118.066 84.4797C118.066 85.4062 117.416 85.7599 116.632 85.3051L91.9324 70.9034C91.1324 70.4318 90.499 69.3201 90.499 68.3936C90.499 67.4672 91.149 67.0966 91.9324 67.5514L116.632 81.9531V81.97Z" fill="#2F292B" stroke="#2F292B" stroke-width="0.25" stroke-miterlimit="10"/>
<path id="Vector_15" d="M136.033 104.861C136.833 105.332 137.466 106.461 137.466 107.371C137.466 108.28 136.816 108.667 136.016 108.213L91.8826 82.4581C91.0826 81.9864 90.4492 80.8747 90.4492 79.9483C90.4492 79.0219 91.0992 78.6513 91.8826 79.1061L136.016 104.861H136.033Z" fill="#2F292B" stroke="#2F292B" stroke-width="0.25" stroke-miterlimit="10"/>
<path id="Vector_16" d="M154.466 115.91C155.116 116.298 155.666 117.241 155.666 117.999C155.666 118.757 155.116 119.077 154.466 118.69L149.216 115.624C148.549 115.237 148.016 114.293 148.016 113.535C148.016 112.777 148.549 112.457 149.216 112.845L154.466 115.91Z" fill="#F1D747" stroke="#2F292B" stroke-width="0.25" stroke-miterlimit="10"/>
<path id="Vector_17" d="M154.5 104.339C155.15 104.727 155.7 105.653 155.7 106.428C155.7 107.203 155.15 107.489 154.5 107.119L149.25 104.053C148.583 103.666 148.05 102.739 148.05 101.964C148.05 101.189 148.583 100.886 149.25 101.274L154.5 104.339Z" fill="#F1D747" stroke="#2F292B" stroke-width="0.25" stroke-miterlimit="10"/>
</g>
</g>
<path id="Vector_18" d="M118.933 123.676C118.933 123.676 120.733 136.376 114.6 149.582C110.666 158.071 103.083 163.815 96.3331 170.435C91.7664 174.916 84.4164 180.727 83.5331 193.949L83.3164 146.011L118.933 123.693V123.676Z" fill="#2F292B" stroke="#2F292B" stroke-width="0.25" stroke-miterlimit="10"/>
<g id="Group_3">
<path id="Vector_19" d="M81.1663 164.584C102.061 164.584 119 147.645 119 126.75C119 105.856 102.061 88.917 81.1663 88.917C60.2716 88.917 43.333 105.856 43.333 126.75C43.333 147.645 60.2716 164.584 81.1663 164.584Z" fill="#33A3C6" stroke="#2F292B" stroke-width="0.25" stroke-miterlimit="10"/>
<path id="Vector_20" d="M81.166 157C97.8726 157 111.416 143.457 111.416 126.75C111.416 110.043 97.8726 96.5 81.166 96.5C64.4594 96.5 50.916 110.043 50.916 126.75C50.916 143.457 64.4594 157 81.166 157Z" fill="#F9F7F2" stroke="#2F292B" stroke-width="0.25" stroke-miterlimit="10"/>
<g id="Group_4">
<path id="Vector_21" d="M80.1665 135.617L76.1331 139.667L62.0498 125.634C64.2831 123.401 67.8998 123.401 70.1331 125.634L76.1165 131.601H76.1498L80.1665 135.634V135.617Z" fill="#2F292B" stroke="#2F292B" stroke-width="0.25" stroke-miterlimit="10"/>
<path id="Vector_22" d="M100.3 115.484L80.1663 135.617L76.133 139.667L72.083 135.617L76.1163 131.584L92.1997 115.484C94.433 113.25 98.0497 113.25 100.283 115.484H100.3Z" fill="#2F292B" stroke="#2F292B" stroke-width="0.25" stroke-miterlimit="10"/>
</g>
</g>
</g>
</svg>
