<svg id="pa-empty" viewBox="0 0 60 60" xmlns="http://www.w3.org/2000/svg">
	<path opacity="0.12" d="M55 39.1026V18.2044C55 17.7672 54.7707 17.3622 54.3958 17.1373C53.9988 16.8991 53.5023 16.901 53.1072 17.1423L33.1265 29.341C31.9908 30.0343 31.423 30.381 30.8156 30.5164C30.2785 30.6361 29.7215 30.6361 29.1844 30.5164C28.577 30.381 28.0092 30.0343 26.8735 29.341L6.89284 17.1423C6.49765 16.901 6.00119 16.8991 5.60416 17.1373C5.22934 17.3622 5 17.7672 5 18.2044V39.1026C5 40.3414 5 40.9608 5.17774 41.5174C5.33502 42.0099 5.59245 42.4646 5.93386 42.8528C6.31965 43.2916 6.85078 43.6103 7.91303 44.2476L26.913 55.6476C28.0354 56.321 28.5966 56.6577 29.1957 56.7893C29.7256 56.9057 30.2744 56.9057 30.8043 56.7893C31.4034 56.6577 31.9646 56.321 33.087 55.6476L52.087 44.2476C53.1492 43.6103 53.6804 43.2916 54.0661 42.8528C54.4075 42.4646 54.665 42.0099 54.8223 41.5174C55 40.9608 55 40.3414 55 39.1026Z"/>
	<path fill-rule="evenodd" clip-rule="evenodd" d="M28.9946 2.29464C29.657 2.14918 30.343 2.14918 31.0054 2.29464C31.7568 2.45964 32.443 2.87175 33.4361 3.46815L52.695 15.0235C53.6359 15.5875 54.2863 15.9775 54.7702 16.5277C55.1969 17.0131 55.5187 17.5814 55.7153 18.197C55.9383 18.8951 55.938 19.6534 55.9375 20.7505V39.2492C55.938 40.3462 55.9383 41.1046 55.7153 41.8026C55.5187 42.4183 55.1969 42.9866 54.7702 43.4719C54.2863 44.0222 53.6359 44.4121 52.695 44.9762L33.4361 56.5315C32.4431 57.1279 31.7568 57.54 31.0054 57.705C30.343 57.8505 29.657 57.8505 28.9946 57.705C28.2432 57.54 27.557 57.1279 26.5639 56.5315L7.30506 44.9762C6.36417 44.4122 5.71368 44.0222 5.22983 43.4719C4.80307 42.9866 4.48129 42.4183 4.28468 41.8026C4.06177 41.1046 4.06206 40.3462 4.06247 39.2492V20.7505C4.06206 19.6534 4.06177 18.8951 4.28468 18.197C4.48129 17.5814 4.80307 17.0131 5.22983 16.5277C5.71369 15.9775 6.36413 15.5875 7.30505 15.0235L26.5639 3.46815C27.557 2.87176 28.2432 2.45964 28.9946 2.29464ZM30.6033 4.126C30.2058 4.03873 29.7942 4.03873 29.3968 4.126C28.9831 4.21684 28.5742 4.4486 27.3954 5.15592L8.39538 16.5559C8.27982 16.6253 8.1722 16.69 8.07183 16.7506L18.2388 22.9637C18.2461 22.959 18.2534 22.9544 18.2609 22.9499L40.0593 9.62873L32.6046 5.15592C31.4258 4.4486 31.0169 4.21684 30.6033 4.126ZM20.0364 24.0622L30 30.1511L51.9282 16.7506C51.8278 16.69 51.7202 16.6252 51.6046 16.5559L41.8619 10.7103C41.8239 10.7429 41.7829 10.7729 41.7388 10.7998L20.0364 24.0622ZM53.3892 17.7971C53.3216 17.9994 53.1851 18.1799 52.9889 18.2998L30.9375 31.7756V55.7688C31.2807 55.6307 31.7314 55.3677 32.6046 54.8437L51.6046 43.4437C52.72 42.7745 53.0956 42.5369 53.3621 42.2338C53.6182 41.9426 53.8112 41.6016 53.9292 41.2322C54.052 40.8478 54.0625 40.4034 54.0625 39.1027V20.897C54.0625 19.5962 54.052 19.1519 53.9292 18.7674C53.8154 18.4112 53.6318 18.0813 53.3892 17.7971ZM29.0625 55.7688V31.7756L7.01115 18.2998C6.81492 18.1799 6.67838 17.9994 6.61086 17.7971C6.36823 18.0813 6.18459 18.4112 6.07081 18.7674C5.94804 19.1519 5.93751 19.5962 5.93751 20.897V39.1027C5.93751 40.4034 5.94804 40.8478 6.07081 41.2322C6.18878 41.6016 6.38185 41.9426 6.6379 42.2338C6.90439 42.5369 7.28001 42.7745 8.39538 43.4438L27.3954 54.8438C28.2686 55.3677 28.7194 55.6307 29.0625 55.7688Z"/>
</svg>