<svg id="percentage-circle" width="167" height="167" viewBox="0 0 167 167" fill="none" xmlns="http://www.w3.org/2000/svg">
<path opacity="0.4" d="M83.5 153.083C121.93 153.083 153.083 121.93 153.083 83.5C153.083 45.0702 121.93 13.9167 83.5 13.9167C45.0702 13.9167 13.9167 45.0702 13.9167 83.5C13.9167 121.93 45.0702 153.083 83.5 153.083Z" fill="#FAE74D"/>
<path d="M57.8934 111.472C56.5713 111.472 55.2493 110.985 54.2055 109.941C52.1876 107.923 52.1876 104.583 54.2055 102.566L99.7825 56.9886C101.8 54.9707 105.14 54.9707 107.158 56.9886C109.176 59.0065 109.176 62.3465 107.158 64.3644L61.5813 109.941C60.5376 110.985 59.2155 111.472 57.8934 111.472Z" fill="#F7D139"/>
<path d="M60.7463 53.3007C55.1101 53.3007 50.4479 57.8932 50.4479 63.5991C50.4479 69.2353 55.0405 73.8973 60.7463 73.8973C66.3826 73.8973 71.0445 69.3049 71.0445 63.5991C70.975 57.8932 66.3826 53.3007 60.7463 53.3007Z" fill="#F7D139"/>
<path d="M106.254 93.172C100.617 93.172 95.9555 97.7643 95.9555 103.47C95.9555 109.106 100.548 113.769 106.254 113.769C111.89 113.769 116.552 109.176 116.552 103.47C116.552 97.7643 111.96 93.172 106.254 93.172Z" fill="#F7D139"/>
</svg>
