<svg id="thumbs-up" width="20" height="20" viewBox="0 0 20 20" fill="none" xmlns="http://www.w3.org/2000/svg">
<path d="M11.369 0.208984C12.7473 0.208984 13.6766 1.61824 13.1336 2.88508L12.4786 4.41352C12.3311 4.75753 12.2331 4.98723 12.1704 5.16515C12.1076 5.34336 12.103 5.41022 12.1035 5.43271C12.1094 5.67151 12.2509 5.88607 12.4681 5.98555C12.4885 5.99491 12.5518 6.01698 12.7403 6.0295C12.9286 6.04199 13.1783 6.04232 13.5526 6.04232H14.5325C15.3111 6.04231 15.9359 6.04231 16.4363 6.08548C16.9488 6.1297 17.3964 6.22315 17.7967 6.45079C18.4272 6.80931 18.9133 7.37597 19.1718 8.05365C19.3359 8.48393 19.3602 8.94051 19.326 9.45381C19.2926 9.95494 19.1976 10.5725 19.0792 11.3421L18.6352 14.2282C18.5457 14.8095 18.4733 15.2806 18.3847 15.6613C18.2931 16.0549 18.1749 16.3968 17.9718 16.7082C17.6467 17.2065 17.1862 17.6015 16.6443 17.8471C16.3056 18.0005 15.9497 18.0653 15.5467 18.096C15.157 18.1257 14.6803 18.1257 14.0921 18.1257H8.13925C7.46189 18.1257 6.91555 18.1257 6.47313 18.0895C6.0176 18.0523 5.61748 17.9737 5.2473 17.785C4.65929 17.4854 4.18122 17.0074 3.88162 16.4194C3.693 16.0492 3.61437 15.6491 3.57715 15.1935C3.541 14.7511 3.54101 14.2048 3.54102 13.5274L3.54101 10.7285C3.54092 9.58734 3.54086 8.9066 3.69643 8.25859C3.83423 7.68463 4.0615 7.13595 4.36992 6.63266C4.71812 6.06444 5.19951 5.58313 6.00651 4.77626L10.0115 0.77129C10.3715 0.411251 10.8598 0.208984 11.369 0.208984Z" fill="#2B2D32"/>
<path d="M2.29102 6.66732C2.29102 6.32214 2.01119 6.04232 1.66602 6.04232C1.32084 6.04232 1.04102 6.32214 1.04102 6.66732V16.6673C1.04102 17.0125 1.32084 17.2923 1.66602 17.2923C2.01119 17.2923 2.29102 17.0125 2.29102 16.6673L2.29102 6.66732Z" fill="#2B2D32"/>
</svg>
