<svg id="tt_heart_splash" viewBox="0 0 60 60" xmlns="http://www.w3.org/2000/svg">
	<path opacity="0.12" d="M5 22.4998C5 39.9999 27.5 52.4997 30 52.4997C31.2731 52.4997 37.7325 49.2583 43.766 43.7658L10.779 10.7788C7.37059 13.4514 5 17.5805 5 22.4998Z"/>
	<path fill-rule="evenodd" clip-rule="evenodd" d="M4.33709 4.33709C4.7032 3.97097 5.2968 3.97097 5.66291 4.33709L53.1629 51.8371C53.529 52.2032 53.529 52.7968 53.1629 53.1629C52.7968 53.529 52.2032 53.529 51.8371 53.1629L43.7302 45.0561C40.872 47.5706 37.9658 49.584 35.5755 50.9994C34.2875 51.762 33.1392 52.3569 32.2196 52.7647C31.7606 52.9682 31.3475 53.13 30.9955 53.2428C30.6679 53.3477 30.312 53.4374 30 53.4374C29.6927 53.4374 29.3442 53.3505 29.0238 53.2489C28.6799 53.1398 28.2773 52.9834 27.8305 52.7868C26.9353 52.3929 25.8184 51.8183 24.5643 51.0818C22.0554 49.6083 18.9571 47.463 15.9374 44.7612C9.93152 39.3875 4.0625 31.6523 4.0625 22.5C4.0625 17.6633 6.2183 13.5487 9.39192 10.7177L4.33709 5.66291C3.97097 5.2968 3.97097 4.7032 4.33709 4.33709ZM10.7201 12.0459C7.86144 14.5581 5.9375 18.2102 5.9375 22.5C5.9375 30.8478 11.3185 38.1125 17.1876 43.3638C20.1054 45.9744 23.1009 48.0479 25.5138 49.465C26.7207 50.1738 27.7718 50.7125 28.5856 51.0705C28.9932 51.2499 29.3304 51.3791 29.5907 51.4616C29.7207 51.5029 29.8231 51.5298 29.8999 51.5458C29.9608 51.5585 29.9922 51.5615 30 51.5622C30.008 51.5615 30.0406 51.5584 30.1043 51.5449C30.1837 51.5282 30.2896 51.5 30.4236 51.4571C30.6921 51.3711 31.0397 51.2368 31.4595 51.0506C32.2977 50.679 33.38 50.1203 34.6202 49.386C36.896 48.0385 39.6694 46.1198 42.4016 43.7274L10.7201 12.0459Z"/>
	<path d="M39.9864 8.43742C36.4736 8.38659 33.0628 9.59595 30.7801 13.0201C30.6062 13.2809 30.3135 13.4375 30 13.4375C29.6866 13.4375 29.3938 13.2809 29.22 13.0201C26.9429 9.60447 23.4718 8.43752 20 8.43752C19.6119 8.43752 19.2233 8.4555 18.8354 8.49097C18.3197 8.53811 17.8635 8.15833 17.8164 7.64272C17.7693 7.1271 18.149 6.6709 18.6646 6.62376C19.1084 6.58319 19.5539 6.56252 20 6.56252C23.5422 6.56252 27.2991 7.66312 29.9988 10.928C32.6843 7.66045 36.391 6.5102 40.0136 6.56261C47.9574 6.67756 55.9375 13.1716 55.9375 22.5C55.9375 28.0433 53.7814 33.0651 50.7662 37.341C50.5959 37.5824 50.4228 37.8216 50.2472 38.0584C49.9388 38.4743 49.3516 38.5614 48.9357 38.253C48.5199 37.9446 48.4327 37.3575 48.7411 36.9416C48.9081 36.7165 49.0724 36.4894 49.2338 36.2604C52.1011 32.1943 54.0625 27.5439 54.0625 22.5C54.0625 14.3285 47.0426 8.53952 39.9864 8.43742Z"/>
</svg>