<svg id="zoom-in" width="24" height="24" viewBox="0 0 24 24" fill="none" xmlns="http://www.w3.org/2000/svg">
<g id="icon_24px/zoom-in">
<g id="Union">
<path d="M11.75 8C11.75 7.58579 11.4142 7.25 11 7.25C10.5858 7.25 10.25 7.58579 10.25 8V10.25H8C7.58579 10.25 7.25 10.5858 7.25 11C7.25 11.4142 7.58579 11.75 8 11.75H10.25V14C10.25 14.4142 10.5858 14.75 11 14.75C11.4142 14.75 11.75 14.4142 11.75 14V11.75H14C14.4142 11.75 14.75 11.4142 14.75 11C14.75 10.5858 14.4142 10.25 14 10.25H11.75V8Z" fill="white"/>
<path fill-rule="evenodd" clip-rule="evenodd" d="M1.25 11C1.25 5.61522 5.61522 1.25 11 1.25C16.3848 1.25 20.75 5.61522 20.75 11C20.75 13.4224 19.8666 15.6385 18.4043 17.3437L21.5303 20.4697C21.8232 20.7626 21.8232 21.2374 21.5303 21.5303C21.2374 21.8232 20.7626 21.8232 20.4697 21.5303L17.3437 18.4043C15.6385 19.8666 13.4224 20.75 11 20.75C5.61522 20.75 1.25 16.3848 1.25 11ZM11 2.75C6.44365 2.75 2.75 6.44365 2.75 11C2.75 15.5563 6.44365 19.25 11 19.25C15.5563 19.25 19.25 15.5563 19.25 11C19.25 6.44365 15.5563 2.75 11 2.75Z" fill="white"/>
</g>
</g>
</svg>
