<svg width="24" height="25" viewBox="0 0 24 25" xmlns="http://www.w3.org/2000/svg">
<path d="M12 8.6665C12.4142 8.6665 12.75 9.00229 12.75 9.4165V13.4165C12.75 13.8307 12.4142 14.1665 12 14.1665C11.5858 14.1665 11.25 13.8307 11.25 13.4165V9.4165C11.25 9.00229 11.5858 8.6665 12 8.6665Z"/>
<path d="M12 17.4165C12.5523 17.4165 13 16.9688 13 16.4165C13 15.8642 12.5523 15.4165 12 15.4165C11.4477 15.4165 11 15.8642 11 16.4165C11 16.9688 11.4477 17.4165 12 17.4165Z"/>
<path fill-rule="evenodd" clip-rule="evenodd" d="M9.63375 2.4092C11.1381 1.72994 12.8619 1.72994 14.3662 2.4092C15.3086 2.8347 16.0652 3.65469 16.8442 4.78853C17.6216 5.91999 18.4906 7.47193 19.6142 9.4784L20.0053 10.1768C21.0849 12.1046 21.9209 13.5974 22.4602 14.8083C23.0015 16.0236 23.2971 17.0651 23.1821 18.07C22.9981 19.6786 22.1444 21.1351 20.8308 22.0816C20.0102 22.6729 18.9571 22.9239 17.6322 23.0454C16.3123 23.1665 14.6014 23.1665 12.392 23.1665H11.6081C9.39867 23.1665 7.68766 23.1665 6.36775 23.0454C5.04292 22.9239 3.98977 22.6729 3.16917 22.0816C1.85556 21.1351 1.00189 19.6786 0.817873 18.07C0.702923 17.0651 0.998461 16.0236 1.53975 14.8083C2.07905 13.5975 2.91503 12.1047 3.9946 10.1769L4.38566 9.47855C5.50931 7.47201 6.37842 5.92003 7.1558 4.78853C7.93479 3.6547 8.69139 2.8347 9.63375 2.4092ZM13.749 3.7763C12.637 3.27424 11.363 3.27424 10.251 3.7763C9.69289 4.02832 9.12892 4.56552 8.39213 5.63794C7.65836 6.70596 6.82222 8.19752 5.67432 10.2473L5.32332 10.8741C4.21967 12.8449 3.41796 14.2781 2.90998 15.4186C2.40068 16.5621 2.2397 17.3011 2.30815 17.8995C2.44416 19.0885 3.07514 20.165 4.04607 20.8646C4.53473 21.2167 5.25823 21.4374 6.50476 21.5517C7.74804 21.6658 9.3902 21.6665 11.649 21.6665H12.351C14.6098 21.6665 16.252 21.6658 17.4952 21.5517C18.7418 21.4374 19.4653 21.2167 19.9539 20.8646C20.9249 20.165 21.5558 19.0885 21.6918 17.8995C21.7603 17.3011 21.5993 16.5621 21.09 15.4186C20.582 14.2781 19.7803 12.8449 18.6767 10.8741L18.3257 10.2473C17.1778 8.19751 16.3416 6.70595 15.6079 5.63793C14.8711 4.56552 14.3071 4.02832 13.749 3.7763Z"/>
</svg>
