<svg width="24" height="24" viewBox="0 0 24 24" xmlns="http://www.w3.org/2000/svg">
<path d="M12 7.24996C12.4142 7.24996 12.75 7.58575 12.75 7.99996V13C12.75 13.4142 12.4142 13.75 12 13.75C11.5857 13.75 11.25 13.4142 11.25 13V7.99996C11.25 7.58575 11.5857 7.24996 12 7.24996Z"/>
<path d="M12 17C12.5522 17 13 16.5522 13 16C13 15.4477 12.5522 15 12 15C11.4477 15 11 15.4477 11 16C11 16.5522 11.4477 17 12 17Z"/>
<path fill-rule="evenodd" clip-rule="evenodd" d="M10.5574 1.24995H13.4425C14.3314 1.2498 14.9042 1.2497 15.452 1.38121C15.9366 1.49757 16.4 1.68949 16.825 1.94992C17.3053 2.24426 17.7103 2.64938 18.3387 3.278L20.7219 5.66124C21.3505 6.28964 21.7557 6.69463 22.05 7.17495C22.3104 7.59994 22.5024 8.06328 22.6187 8.54795C22.7502 9.09571 22.7501 9.66853 22.75 10.5574V13.4426C22.7501 14.3314 22.7502 14.9042 22.6187 15.452C22.5024 15.9366 22.3104 16.4 22.05 16.825C21.7557 17.3053 21.3505 17.7103 20.7219 18.3387L18.3387 20.7219C17.7103 21.3505 17.3053 21.7557 16.825 22.05C16.4 22.3104 15.9366 22.5024 15.452 22.6187C14.9042 22.7502 14.3314 22.7501 13.4426 22.75H10.5574C9.66853 22.7501 9.09571 22.7502 8.54795 22.6187C8.06328 22.5024 7.59994 22.3104 7.17495 22.05C6.69462 21.7557 6.28964 21.3505 5.66123 20.7219L3.278 18.3387C2.64939 17.7103 2.24426 17.3053 1.94992 16.825C1.68948 16.4 1.49756 15.9366 1.3812 15.452C1.2497 14.9042 1.2498 14.3314 1.24995 13.4425V10.5574C1.2498 9.66855 1.2497 9.09572 1.3812 8.54795C1.49756 8.06328 1.68948 7.59994 1.94992 7.17495C2.24426 6.69463 2.64937 6.28966 3.27799 5.66126L5.66124 3.27801C6.28965 2.64938 6.69463 2.24426 7.17495 1.94992C7.59994 1.68949 8.06328 1.49757 8.54795 1.38121C9.09571 1.2497 9.66854 1.2498 10.5574 1.24995ZM10.6509 2.74996C9.63687 2.74996 9.25207 2.75478 8.89812 2.83976C8.5665 2.91938 8.24948 3.05069 7.95869 3.22888C7.64832 3.41908 7.37282 3.68776 6.65577 4.40481L4.40481 6.65578C3.68776 7.37283 3.41908 7.64832 3.22888 7.9587C3.05069 8.24948 2.91937 8.5665 2.83976 8.89812C2.75478 9.25208 2.74996 9.63687 2.74996 10.6509V13.349C2.74996 14.3631 2.75478 14.7478 2.83976 15.1018C2.91937 15.4334 3.05069 15.7504 3.22888 16.0412C3.41908 16.3516 3.68776 16.6271 4.40481 17.3442L6.65577 19.5951C7.37282 20.3122 7.64832 20.5808 7.95869 20.771C8.24948 20.9492 8.5665 21.0806 8.89812 21.1602C9.25207 21.2451 9.63686 21.25 10.6509 21.25H13.349C14.3631 21.25 14.7478 21.2451 15.1018 21.1602C15.4334 21.0806 15.7504 20.9492 16.0412 20.771C16.3516 20.5808 16.6271 20.3122 17.3441 19.5951L19.5951 17.3442C20.3122 16.6271 20.5808 16.3516 20.771 16.0412C20.9492 15.7504 21.0805 15.4334 21.1602 15.1018C21.2451 14.7478 21.25 14.3631 21.25 13.349V10.6509C21.25 9.63687 21.2451 9.25208 21.1602 8.89812C21.0805 8.5665 20.9492 8.24948 20.771 7.9587C20.5808 7.64832 20.3122 7.37283 19.5951 6.65578L17.3441 4.40481C16.6271 3.68776 16.3516 3.41908 16.0412 3.22888C15.7504 3.05069 15.4334 2.91938 15.1018 2.83976C14.7478 2.75478 14.3631 2.74996 13.349 2.74996H10.6509Z"/>
</svg>
