<svg width="24" height="24" viewBox="0 0 24 24" xmlns="http://www.w3.org/2000/svg">
<path d="M7.75003 8.00001C7.75003 7.5858 7.41425 7.25001 7.00003 7.25001C6.58582 7.25001 6.25003 7.5858 6.25003 8.00001L6.25003 16C6.25003 16.4142 6.58582 16.75 7.00003 16.75C7.41425 16.75 7.75003 16.4142 7.75003 16L7.75003 8.00001Z"/>
<path d="M12 10.25C12.4142 10.25 12.75 10.5858 12.75 11L12.75 16C12.75 16.4142 12.4142 16.75 12 16.75C11.5858 16.75 11.25 16.4142 11.25 16L11.25 11C11.25 10.5858 11.5858 10.25 12 10.25Z"/>
<path d="M17.75 9.00001C17.75 8.5858 17.4142 8.25001 17 8.25001C16.5858 8.25001 16.25 8.5858 16.25 9.00001L16.25 16C16.25 16.4142 16.5858 16.75 17 16.75C17.4142 16.75 17.75 16.4142 17.75 16L17.75 9.00001Z"/>
<path fill-rule="evenodd" clip-rule="evenodd" d="M11.5661 1.25C9.91462 1.25 8.62922 1.24999 7.59814 1.33424C6.55124 1.41977 5.70065 1.59588 4.93556 1.98571C3.66547 2.63285 2.63285 3.66547 1.9857 4.93557C1.59587 5.70065 1.41977 6.55125 1.33423 7.59814C1.24999 8.62923 1.24999 9.91462 1.25 11.5661L1.25 12.4339C1.24999 14.0854 1.24999 15.3708 1.33423 16.4019C1.41977 17.4488 1.59587 18.2994 1.9857 19.0644C2.63285 20.3345 3.66547 21.3672 4.93556 22.0143C5.70065 22.4041 6.55124 22.5802 7.59814 22.6658C8.62922 22.75 9.91461 22.75 11.566 22.75L12.434 22.75C14.0853 22.75 15.3708 22.75 16.4019 22.6658C17.4488 22.5802 18.2993 22.4041 19.0644 22.0143C20.3345 21.3672 21.3671 20.3345 22.0143 19.0644C22.4041 18.2994 22.5802 17.4488 22.6658 16.4019C22.75 15.3708 22.75 14.0855 22.75 12.4341L22.75 11.566C22.75 9.91468 22.75 8.62919 22.6658 7.59814C22.5802 6.55125 22.4041 5.70065 22.0143 4.93557C21.3671 3.66547 20.3345 2.63285 19.0644 1.98571C18.2994 1.59588 17.4488 1.41977 16.4019 1.33424C15.3708 1.24999 14.0854 1.25 12.4339 1.25L11.5661 1.25ZM5.61655 3.32222C6.13493 3.05809 6.76615 2.90721 7.72028 2.82926C8.68317 2.75059 9.90746 2.75 11.6 2.75L12.4 2.75C14.0925 2.75 15.3168 2.75059 16.2797 2.82926C17.2338 2.90721 17.8651 3.05809 18.3835 3.32222C19.3713 3.82555 20.1744 4.6287 20.6778 5.61655C20.9419 6.13494 21.0928 6.76616 21.1707 7.72029C21.2494 8.68318 21.25 9.90747 21.25 11.6L21.25 12.4C21.25 14.0925 21.2494 15.3168 21.1707 16.2797C21.0928 17.2338 20.9419 17.8651 20.6778 18.3835C20.1744 19.3713 19.3713 20.1745 18.3834 20.6778C17.8651 20.9419 17.2338 21.0928 16.2797 21.1707C15.3168 21.2494 14.0925 21.25 12.4 21.25L11.6 21.25C9.90747 21.25 8.68317 21.2494 7.72028 21.1707C6.76615 21.0928 6.13493 20.9419 5.61655 20.6778C4.6287 20.1745 3.82555 19.3713 3.32221 18.3835C3.05808 17.8651 2.90721 17.2338 2.82925 16.2797C2.75058 15.3168 2.75 14.0925 2.75 12.4L2.75 11.6C2.75 9.90747 2.75058 8.68318 2.82925 7.72029C2.90721 6.76616 3.05808 6.13494 3.32221 5.61655C3.82555 4.6287 4.6287 3.82555 5.61655 3.32222Z"/>
</svg>
