<svg width="24" height="24" viewBox="0 0 24 24" xmlns="http://www.w3.org/2000/svg">
<path d="M12.75 8C12.75 7.58579 12.4142 7.25 12 7.25C11.5858 7.25 11.25 7.58579 11.25 8V10.25H9C8.58579 10.25 8.25 10.5858 8.25 11C8.25 11.4142 8.58579 11.75 9 11.75H11.25V14C11.25 14.4142 11.5858 14.75 12 14.75C12.4142 14.75 12.75 14.4142 12.75 14V11.75H15C15.4142 11.75 15.75 11.4142 15.75 11C15.75 10.5858 15.4142 10.25 15 10.25H12.75V8Z"/>
<path fill-rule="evenodd" clip-rule="evenodd" d="M11.9664 1.25C10.5947 1.25 9.51929 1.24999 8.65494 1.32061C7.77479 1.39252 7.04768 1.54138 6.38955 1.87671C5.30762 2.42798 4.42798 3.30762 3.87671 4.38955C3.54138 5.04768 3.39252 5.77479 3.32061 6.65494C3.24999 7.51929 3.25 8.59472 3.25 9.96644V22C3.25 22.2599 3.38459 22.5013 3.6057 22.638C3.82681 22.7746 4.10292 22.7871 4.33541 22.6708L6.61108 21.533C8.74886 20.4641 9.68979 20.0012 10.6631 19.8186C11.5467 19.6528 12.4533 19.6528 13.3369 19.8186C14.3102 20.0012 15.2511 20.4641 17.3889 21.533L19.6646 22.6708C19.8971 22.7871 20.1732 22.7746 20.3943 22.638C20.6154 22.5013 20.75 22.2599 20.75 22V9.96642C20.75 8.59473 20.75 7.51927 20.6794 6.65494C20.6075 5.77479 20.4586 5.04768 20.1233 4.38955C19.572 3.30762 18.6924 2.42798 17.6104 1.87671C16.9523 1.54138 16.2252 1.39252 15.3451 1.32061C14.4807 1.24999 13.4053 1.25 12.0336 1.25H11.9664ZM7.07054 3.21322C7.48197 3.00359 7.9897 2.87996 8.77708 2.81563C9.57322 2.75058 10.5875 2.75 12 2.75C13.4125 2.75 14.4268 2.75058 15.2229 2.81563C16.0103 2.87996 16.518 3.00359 16.9295 3.21322C17.7291 3.62068 18.3793 4.27085 18.7868 5.07054C18.9964 5.48197 19.12 5.9897 19.1844 6.77708C19.2494 7.57322 19.25 8.58749 19.25 10V20.7865L17.9424 20.1327C15.9553 19.139 14.8182 18.5703 13.6135 18.3443C12.5471 18.1443 11.4529 18.1443 10.3865 18.3443C9.18182 18.5703 8.04467 19.139 6.05767 20.1326L4.75 20.7865V10C4.75 8.58749 4.75058 7.57322 4.81563 6.77708C4.87996 5.9897 5.00359 5.48197 5.21322 5.07054C5.62068 4.27085 6.27085 3.62068 7.07054 3.21322Z"/>
</svg>
