<svg width="24" height="24" viewBox="0 0 24 24" xmlns="http://www.w3.org/2000/svg">
<path fill-rule="evenodd" clip-rule="evenodd" d="M14 2.25001C14.9527 2.25001 15.3564 2.25162 15.6853 2.29492C18.0411 2.60507 19.8949 4.45889 20.2051 6.81474C20.2484 7.14362 20.25 7.54733 20.25 8.50001V19.5C20.25 19.9142 20.5858 20.25 21 20.25C21.4142 20.25 21.75 19.9142 21.75 19.5L21.75 8.42987C21.75 7.56765 21.7501 7.05809 21.6923 6.61895C21.2935 3.59 18.91 1.20652 15.8811 0.807752C15.4419 0.749939 14.9324 0.749962 14.0702 0.750002L10 0.750005C8.06968 0.750005 6.48001 2.2085 6.27286 4.0836C6.12578 4.13582 5.98298 4.19668 5.84354 4.26772C4.94977 4.72312 4.22312 5.44978 3.76772 6.34355C3.48688 6.89472 3.36527 7.49835 3.30699 8.21174C3.24999 8.90936 3.24999 9.77486 3.25 10.867V22.5C3.25 22.7674 3.39232 23.0145 3.62355 23.1487C3.85479 23.2829 4.13998 23.2838 4.3721 23.1512L6.60917 21.8729C8.38866 20.856 9.13832 20.4375 9.91761 20.2733C10.6314 20.1229 11.3686 20.1229 12.0824 20.2733C12.8617 20.4375 13.6113 20.856 15.3908 21.8729L17.6279 23.1512C17.86 23.2838 18.1452 23.2829 18.3764 23.1487C18.6077 23.0145 18.75 22.7674 18.75 22.5V10.867C18.75 9.77486 18.75 8.90935 18.693 8.21174C18.6347 7.49835 18.5131 6.89472 18.2323 6.34355C17.7769 5.44978 17.0502 4.72312 16.1565 4.26772C15.6053 3.98689 15.0017 3.86528 14.2883 3.80699C13.5906 3.75 12.7252 3.75 11.633 3.75001H10.367C9.35217 3.75 8.53302 3.75 7.86242 3.79573C8.15802 2.89803 9.00333 2.25001 10 2.25001H14ZM6.52453 5.60423C6.829 5.4491 7.21325 5.35272 7.83388 5.30201C8.46326 5.25059 9.26752 5.25001 10.4 5.25001H11.6C12.7325 5.25001 13.5367 5.25059 14.1661 5.30201C14.7867 5.35272 15.171 5.4491 15.4755 5.60423C16.087 5.91582 16.5842 6.41301 16.8958 7.02454C17.0509 7.32901 17.1473 7.71326 17.198 8.33389C17.2494 8.96327 17.25 9.76752 17.25 10.9V21.2076L16.011 20.4996C14.3937 19.5752 13.4298 19.0243 12.3916 18.8055C11.474 18.6122 10.526 18.6122 9.60836 18.8055C8.5702 19.0243 7.60627 19.5752 5.98896 20.4996L4.75 21.2076V10.9C4.75 9.76752 4.75058 8.96327 4.80201 8.33389C4.85271 7.71326 4.94909 7.32901 5.10423 7.02454C5.41582 6.41301 5.913 5.91582 6.52453 5.60423Z"/>
</svg>
