<svg width="24" height="24" viewBox="0 0 24 24" xmlns="http://www.w3.org/2000/svg">
<path fill-rule="evenodd" clip-rule="evenodd" d="M11.1957 0.835841C11.7256 0.719474 12.2745 0.719474 12.8044 0.835841C13.4055 0.967843 13.9545 1.29753 14.7489 1.77464L20.156 5.01889C20.9088 5.47015 21.4291 5.78209 21.8162 6.22231C22.1576 6.61058 22.415 7.06525 22.5723 7.55776C22.7507 8.11618 22.7504 8.72286 22.7501 9.60048V14.3995C22.7504 15.2771 22.7507 15.8838 22.5723 16.4422C22.415 16.9347 22.1576 17.3894 21.8162 17.7777C21.4291 18.2179 20.9088 18.5298 20.156 18.9811L14.749 22.2253C13.9545 22.7024 13.4055 23.0321 12.8044 23.1641C12.2745 23.2805 11.7256 23.2805 11.1957 23.1641C10.5946 23.0321 10.0456 22.7025 9.25116 22.2253L3.8441 18.9811C3.09136 18.5298 2.57101 18.2179 2.18391 17.7777C1.84251 17.3894 1.58508 16.9347 1.42779 16.4422C1.24946 15.8838 1.24969 15.2771 1.25003 14.3995V9.60052C1.24969 8.72287 1.24946 8.11619 1.42779 7.55776C1.58508 7.06525 1.84251 6.61058 2.18391 6.22231C2.57101 5.78209 3.09135 5.47015 3.8441 5.01889L9.25116 1.77465C10.0456 1.29753 10.5946 0.967844 11.1957 0.835841ZM12.4827 2.30093C12.1647 2.23111 11.8354 2.23111 11.5175 2.30093C11.1865 2.3736 10.8594 2.55901 9.91635 3.12486L4.71635 6.24486C4.39521 6.43755 4.15073 6.58551 3.95938 6.70729L7.29545 8.746L15.2998 3.85449L14.0838 3.12486C13.1407 2.55901 12.8136 2.3736 12.4827 2.30093ZM8.73375 9.62496L12.0001 11.621L20.0407 6.70729C19.8494 6.58551 19.6049 6.43755 19.2838 6.24486L16.7513 4.72539L8.73375 9.62496ZM21.0766 7.83219L12.7501 12.9206V21.6151C13.0246 21.5047 13.3852 21.2943 14.0838 20.8751L19.2838 17.7551C20.1761 17.2197 20.4766 17.0296 20.6897 16.7872C20.8946 16.5542 21.049 16.2814 21.1434 15.9859C21.2416 15.6784 21.2501 15.3229 21.2501 14.2823V9.71771C21.2501 8.67712 21.2416 8.32163 21.1434 8.01408C21.1237 7.95241 21.1014 7.89173 21.0766 7.83219ZM11.2501 21.6151V12.9206L2.92355 7.83219C2.89871 7.89173 2.87639 7.95241 2.8567 8.01408C2.75848 8.32163 2.75006 8.67712 2.75006 9.71771V14.2823C2.75006 15.3229 2.75848 15.6784 2.8567 15.9859C2.95107 16.2814 3.10553 16.5542 3.31037 16.7872C3.52356 17.0296 3.82406 17.2197 4.71635 17.7551L9.91635 20.8751C10.6149 21.2943 10.9755 21.5047 11.2501 21.6151Z"/>
</svg>
