<svg width="24" height="24" viewBox="0 0 24 24" xmlns="http://www.w3.org/2000/svg">
<path fill-rule="evenodd" clip-rule="evenodd" d="M7.3085 5.25238C6.69384 5.25687 6.16704 5.26979 5.71173 5.30699C4.99834 5.36527 4.39472 5.48688 3.84355 5.76772C2.94978 6.22312 2.22312 6.94978 1.76772 7.84355C1.48688 8.39472 1.36527 8.99834 1.30699 9.71173C1.24999 10.4094 1.24999 11.2749 1.25 12.367V15.633C1.24999 16.7251 1.24999 17.5906 1.30699 18.2883C1.36527 19.0017 1.48688 19.6053 1.76772 20.1565C2.22312 21.0502 2.94978 21.7769 3.84355 22.2323C4.39472 22.5131 4.99834 22.6347 5.71173 22.693C6.40935 22.75 7.27484 22.75 8.36698 22.75H15.633C16.7252 22.75 17.5906 22.75 18.2883 22.693C19.0017 22.6347 19.6053 22.5131 20.1565 22.2323C21.0502 21.7769 21.7769 21.0502 22.2323 20.1565C22.5131 19.6053 22.6347 19.0017 22.693 18.2883C22.75 17.5906 22.75 16.7252 22.75 15.633V12.367C22.75 11.2748 22.75 10.4094 22.693 9.71173C22.6347 8.99834 22.5131 8.39472 22.2323 7.84355C21.7769 6.94978 21.0502 6.22312 20.1565 5.76772C19.6053 5.48688 19.0017 5.36527 18.2883 5.30699C17.833 5.26979 17.3062 5.25687 16.6915 5.25238C16.3329 2.98423 14.369 1.25 12 1.25C9.63102 1.25 7.66709 2.98423 7.3085 5.25238ZM8.83697 5.25H15.163C14.8245 3.81665 13.5368 2.75 12 2.75C10.4632 2.75 9.17555 3.81665 8.83697 5.25ZM5.83388 6.80201C5.21325 6.85271 4.829 6.94909 4.52453 7.10423C3.913 7.41582 3.41582 7.913 3.10423 8.52453C2.94909 8.829 2.85271 9.21325 2.80201 9.83388C2.79008 9.9798 2.78089 10.1351 2.77381 10.3018C2.78404 10.3058 2.79423 10.31 2.80438 10.3145L2.80566 10.3151L2.81317 10.3184L2.8472 10.3331C2.87821 10.3464 2.9257 10.3665 2.98869 10.3924C3.11469 10.4443 3.30258 10.5195 3.54459 10.6103C4.02889 10.7919 4.72836 11.0352 5.58104 11.2789C6.0894 11.4241 6.64997 11.5688 7.25 11.7004V11C7.25 10.5858 7.58579 10.25 8 10.25C8.41421 10.25 8.75 10.5858 8.75 11V11.9834C9.77764 12.145 10.8774 12.25 12 12.25C13.1226 12.25 14.2224 12.145 15.25 11.9834V11C15.25 10.5858 15.5858 10.25 16 10.25C16.4142 10.25 16.75 10.5858 16.75 11V11.7004C17.35 11.5688 17.9106 11.4241 18.419 11.2789C19.2716 11.0352 19.9711 10.7919 20.4554 10.6103C20.6974 10.5195 20.8853 10.4443 21.0113 10.3924C21.0743 10.3665 21.1218 10.3464 21.1528 10.3331L21.1868 10.3184L21.1943 10.3151L21.1954 10.3146C21.2055 10.3101 21.216 10.3058 21.2262 10.3018C21.2191 10.1351 21.2099 9.9798 21.198 9.83388C21.1473 9.21325 21.0509 8.829 20.8958 8.52453C20.5842 7.913 20.087 7.41582 19.4755 7.10423C19.171 6.94909 18.7867 6.85271 18.1661 6.80201C17.5367 6.75058 16.7325 6.75 15.6 6.75H8.4C7.26752 6.75 6.46326 6.75058 5.83388 6.80201ZM21.2498 11.9125C21.25 12.068 21.25 12.2303 21.25 12.4V15.6C21.25 16.7325 21.2494 17.5367 21.198 18.1661C21.1473 18.7867 21.0509 19.171 20.8958 19.4755C20.5842 20.087 20.087 20.5842 19.4755 20.8958C19.171 21.0509 18.7867 21.1473 18.1661 21.198C17.5367 21.2494 16.7325 21.25 15.6 21.25H8.4C7.26752 21.25 6.46326 21.2494 5.83388 21.198C5.21325 21.1473 4.829 21.0509 4.52453 20.8958C3.913 20.5842 3.41582 20.087 3.10423 19.4755C2.94909 19.171 2.85271 18.7867 2.80201 18.1661C2.75058 17.5367 2.75 16.7325 2.75 15.6V12.4C2.75 12.2303 2.75001 12.068 2.75021 11.9125C2.83131 11.9441 2.92069 11.9783 3.01791 12.0147C3.53361 12.2081 4.27164 12.4648 5.16896 12.7211C5.79037 12.8987 6.49122 13.077 7.25 13.2341V14C7.25 14.4142 7.58579 14.75 8 14.75C8.41421 14.75 8.75 14.4142 8.75 14V13.5007C9.77809 13.6527 10.8754 13.75 12 13.75C13.1246 13.75 14.2219 13.6527 15.25 13.5007V14C15.25 14.4142 15.5858 14.75 16 14.75C16.4142 14.75 16.75 14.4142 16.75 14V13.2341C17.5088 13.077 18.2096 12.8987 18.831 12.7211C19.7284 12.4648 20.4664 12.2081 20.9821 12.0147C21.0793 11.9783 21.1687 11.9441 21.2498 11.9125Z"/>
</svg>
