<svg width="24" height="24" viewBox="0 0 24 24" xmlns="http://www.w3.org/2000/svg">
<path fill-rule="evenodd" clip-rule="evenodd" d="M5.71437 13.0698L7.54367 10.8957C8.24341 10.0645 8.69407 9.5291 8.9685 8.90817C9.21102 8.35943 9.34739 7.76971 9.3704 7.1702C9.39644 6.49184 9.22657 5.81297 8.96281 4.75889L8.78236 4.03684C8.61637 3.37032 8.48659 2.84919 8.1991 2.43414C7.88131 1.97534 7.43144 1.62409 6.90926 1.42706C6.43688 1.24883 5.89984 1.24931 5.21295 1.24993C4.76001 1.25014 4.30482 1.23975 3.85314 1.27886C3.49881 1.30954 3.16804 1.37591 2.8441 1.53668C2.23705 1.83795 1.69796 2.44718 1.47281 3.08638C1.23551 3.7601 1.35466 4.48232 1.43978 5.17248C1.81499 8.23242 2.7394 10.9964 4.14704 13.3812C5.66357 15.9505 7.7348 18.0689 10.2624 19.6373C12.8962 21.2716 15.8843 22.1972 18.9487 22.5752C19.6992 22.668 20.3021 22.7426 20.9136 22.5272C21.5528 22.3021 22.162 21.763 22.4633 21.1559C22.6249 20.8304 22.6908 20.496 22.7212 20.1382C22.7602 19.6808 22.7498 19.2199 22.7501 18.7613C22.7507 18.0899 22.7511 17.563 22.5729 17.0907C22.3759 16.5686 22.0247 16.1187 21.5659 15.8009C21.1508 15.5134 20.6297 15.3836 19.9631 15.2176L19.0298 14.9844C18.0453 14.738 17.4111 14.5793 16.7737 14.5929C16.2102 14.605 15.6532 14.7172 15.129 14.9244C14.5361 15.1587 14.0128 15.5507 13.2006 16.1591L10.6247 18.0879C8.64358 16.7757 6.98812 15.0844 5.71437 13.0698ZM6.37972 2.83049C6.19769 2.7618 5.96103 2.75 5.08854 2.75C4.60914 2.75 3.96046 2.65721 3.51093 2.88031C3.25375 3.00794 2.983 3.31392 2.88761 3.58472C2.80286 3.82534 2.81458 4.05977 2.92863 4.98992C3.23169 7.46144 3.91349 9.70499 4.92297 11.6805L6.32145 10.0185C7.12111 9.06809 7.41931 8.70276 7.59652 8.30181C7.76245 7.92636 7.85576 7.52286 7.87151 7.11268C7.88832 6.67464 7.78078 6.21547 7.47954 5.01052C7.34103 4.45646 7.2927 3.75989 6.96602 3.28825C6.82156 3.0797 6.61708 2.92004 6.37972 2.83049ZM12.0174 18.919C14.0654 20.0156 16.4117 20.7527 19.0099 21.0713C19.9402 21.1854 20.1747 21.1971 20.4153 21.1124C20.6861 21.017 20.9921 20.7463 21.1197 20.4891C21.3463 20.0325 21.25 19.3679 21.25 18.8812C21.25 18.0311 21.2384 17.8028 21.1695 17.6203C21.08 17.3829 20.9203 17.1784 20.7118 17.034C20.189 16.6719 19.3861 16.6196 18.7703 16.4657C17.6458 16.1845 17.2174 16.0838 16.8057 16.0926C16.4201 16.1008 16.0391 16.1776 15.6804 16.3194C15.2974 16.4707 14.9415 16.7295 14.0136 17.4243L12.0174 18.919Z"/>
<path d="M13.25 7.00003C13.25 6.58581 13.5858 6.25003 14 6.25003C15.0265 6.25003 15.934 6.88893 16.5475 7.54441C16.8911 7.91144 17.1822 8.32426 17.3909 8.73051C17.5921 9.12203 17.75 9.57168 17.75 10C17.75 10.4142 17.4142 10.75 17 10.75C16.5858 10.75 16.25 10.4142 16.25 10C16.25 9.91008 16.2063 9.70712 16.0568 9.41612C15.9148 9.13987 15.7059 8.84029 15.4524 8.56945C14.9562 8.03927 14.4185 7.75003 14 7.75003C13.5858 7.75003 13.25 7.41424 13.25 7.00003Z"/>
<path d="M14 3.25003C13.5858 3.25003 13.25 3.58581 13.25 4.00003C13.25 4.41424 13.5858 4.75003 14 4.75003C16.8995 4.75003 19.25 7.10053 19.25 10C19.25 10.4142 19.5858 10.75 20 10.75C20.4142 10.75 20.75 10.4142 20.75 10C20.75 6.2721 17.7279 3.25003 14 3.25003Z"/>
</svg>
