<svg width="16" height="16" viewBox="0 0 16 16" xmlns="http://www.w3.org/2000/svg">
<path fill-rule="evenodd" clip-rule="evenodd" d="M0.400002 2.10526C0.400002 1.16347 1.16347 0.399994 2.10526 0.399994H13.8947C14.8365 0.399994 15.6 1.16347 15.6 2.10526V13.8947C15.6 14.8365 14.8365 15.6 13.8947 15.6H8.92105C7.97926 15.6 7.21579 14.8365 7.21579 13.8947V11.9158H6.1579C5.21611 11.9158 4.45263 11.1523 4.45263 10.2105V6.89473C4.45263 6.56336 4.72126 6.29473 5.05263 6.29473H5.5579V4.31578C5.5579 3.98441 5.82653 3.71578 6.1579 3.71578C6.48927 3.71578 6.7579 3.98441 6.7579 4.31578V6.29473H9.24211V4.31578C9.24211 3.98441 9.51074 3.71578 9.84211 3.71578C10.1735 3.71578 10.4421 3.98441 10.4421 4.31578V6.29473H10.9474C11.2787 6.29473 11.5474 6.56336 11.5474 6.89473V10.2105C11.5474 11.1523 10.7839 11.9158 9.84211 11.9158H8.41579V13.8947C8.41579 14.1738 8.642 14.4 8.92105 14.4H13.8947C14.1738 14.4 14.4 14.1738 14.4 13.8947V2.10526C14.4 1.82621 14.1738 1.59999 13.8947 1.59999H2.10526C1.82622 1.59999 1.6 1.82621 1.6 2.10526V13.8947C1.6 14.1738 1.82622 14.4 2.10526 14.4H5.60526C5.93664 14.4 6.20526 14.6686 6.20526 15C6.20526 15.3314 5.93664 15.6 5.60526 15.6H2.10526C1.16347 15.6 0.400002 14.8365 0.400002 13.8947V2.10526ZM9.84211 10.7158C10.1212 10.7158 10.3474 10.4896 10.3474 10.2105V7.49473H5.65263V10.2105C5.65263 10.4896 5.87885 10.7158 6.1579 10.7158H9.84211Z"/>
</svg>
