<svg width="16" height="16" viewBox="0 0 16 16" xmlns="http://www.w3.org/2000/svg">
<path fill-rule="evenodd" clip-rule="evenodd" d="M4.0842 1.73684C4.0842 0.99852 4.68273 0.399994 5.42105 0.399994H14.2632C15.0015 0.399994 15.6 0.998518 15.6 1.73684V10.5789C15.6 11.3173 15.0015 11.9158 14.2632 11.9158H11.9158V14.2632C11.9158 15.0015 11.3173 15.6 10.5789 15.6H1.73684C0.998519 15.6 0.399994 15.0015 0.399994 14.2632V5.42105C0.399994 4.68273 0.998518 4.0842 1.73684 4.0842H4.0842V1.73684ZM5.2842 4.0842H5.92631V3.21052C5.92631 2.67568 6.35989 2.2421 6.89473 2.2421H12.7895C13.3243 2.2421 13.7579 2.67567 13.7579 3.21052V9.10526C13.7579 9.6401 13.3243 10.0737 12.7895 10.0737H11.9158V10.7158H14.2632C14.3387 10.7158 14.4 10.6545 14.4 10.5789V1.73684C14.4 1.66126 14.3387 1.59999 14.2632 1.59999H5.42105C5.34547 1.59999 5.2842 1.66126 5.2842 1.73684V4.0842ZM11.9158 8.87368H12.5579V3.4421H10.4421V4.0842H10.5789C11.3173 4.0842 11.9158 4.68273 11.9158 5.42105V8.87368ZM9.2421 4.0842V3.4421H7.12631V4.0842H9.2421ZM1.73684 5.2842C1.66126 5.2842 1.59999 5.34547 1.59999 5.42105V14.2632C1.59999 14.3387 1.66126 14.4 1.73684 14.4H10.5789C10.6545 14.4 10.7158 14.3387 10.7158 14.2632V5.42105C10.7158 5.34547 10.6545 5.2842 10.5789 5.2842H1.73684ZM6.15789 7.12631C4.658 7.12631 3.4421 8.34221 3.4421 9.8421C3.4421 11.342 4.658 12.5579 6.15789 12.5579C7.65778 12.5579 8.87368 11.342 8.87368 9.8421C8.87368 8.34221 7.65778 7.12631 6.15789 7.12631ZM2.2421 9.8421C2.2421 7.67947 3.99526 5.92631 6.15789 5.92631C8.32052 5.92631 10.0737 7.67947 10.0737 9.8421C10.0737 12.0047 8.32052 13.7579 6.15789 13.7579C3.99526 13.7579 2.2421 12.0047 2.2421 9.8421ZM4.26841 9.65789C4.26841 9.32652 4.53704 9.05789 4.86841 9.05789H4.90526C5.23663 9.05789 5.50526 9.32652 5.50526 9.65789C5.50526 9.98926 5.23663 10.2579 4.90526 10.2579H4.86841C4.53704 10.2579 4.26841 9.98926 4.26841 9.65789ZM6.84736 9.65789C6.84736 9.32652 7.11599 9.05789 7.44736 9.05789H7.4842C7.81558 9.05789 8.0842 9.32652 8.0842 9.65789C8.0842 9.98926 7.81558 10.2579 7.4842 10.2579H7.44736C7.11599 10.2579 6.84736 9.98926 6.84736 9.65789Z"/>
</svg>
