<svg width="16" height="16" viewBox="0 0 16 16" xmlns="http://www.w3.org/2000/svg">
<path fill-rule="evenodd" clip-rule="evenodd" d="M1.62475 3.29729C1.62475 2.24944 2.4742 1.39999 3.52205 1.39999H12.478C13.5258 1.39999 14.3753 2.24944 14.3753 3.29729V5.8287H15C15.3314 5.8287 15.6 6.09733 15.6 6.4287C15.6 6.76007 15.3314 7.0287 15 7.0287H14.3753V9.04957H15C15.3314 9.04957 15.6 9.3182 15.6 9.64957C15.6 9.98095 15.3314 10.2496 15 10.2496H14.3753V12.3784C14.3753 13.4262 13.5258 14.2757 12.478 14.2757H3.52205C2.4742 14.2757 1.62475 13.4262 1.62475 12.3784V10.2496H1C0.668631 10.2496 0.400002 9.98095 0.400002 9.64957C0.400002 9.3182 0.668631 9.04957 1 9.04957H1.62475V7.0287H1C0.668631 7.0287 0.400002 6.76007 0.400002 6.4287C0.400002 6.09733 0.668631 5.8287 1 5.8287H1.62475V3.29729ZM3.52205 2.59999C3.13694 2.59999 2.82475 2.91218 2.82475 3.29729V12.3784C2.82475 12.7635 3.13694 13.0757 3.52205 13.0757H12.478C12.8631 13.0757 13.1753 12.7635 13.1753 12.3784V3.29729C13.1753 2.91219 12.8631 2.59999 12.478 2.59999H3.52205ZM5.62162 4.76216C5.23652 4.76216 4.92433 5.07435 4.92433 5.45945C4.92433 5.84456 5.23652 6.15675 5.62162 6.15675C6.00673 6.15675 6.31892 5.84456 6.31892 5.45945C6.31892 5.07435 6.00673 4.76216 5.62162 4.76216ZM3.72433 5.45945C3.72433 4.4116 4.57377 3.56216 5.62162 3.56216C6.66947 3.56216 7.51892 4.4116 7.51892 5.45945C7.51892 6.5073 6.66947 7.35675 5.62162 7.35675C4.57377 7.35675 3.72433 6.5073 3.72433 5.45945ZM10.3784 4.76216C9.99327 4.76216 9.68108 5.07435 9.68108 5.45945C9.68108 5.84456 9.99327 6.15675 10.3784 6.15675C10.7635 6.15675 11.0757 5.84456 11.0757 5.45945C11.0757 5.07435 10.7635 4.76216 10.3784 4.76216ZM8.48108 5.45945C8.48108 4.4116 9.33053 3.56216 10.3784 3.56216C11.4262 3.56216 12.2757 4.4116 12.2757 5.45945C12.2757 6.5073 11.4262 7.35675 10.3784 7.35675C9.33053 7.35675 8.48108 6.5073 8.48108 5.45945ZM5.62162 9.51891C5.23652 9.51891 4.92433 9.8311 4.92433 10.2162C4.92433 10.6013 5.23652 10.9135 5.62162 10.9135C6.00673 10.9135 6.31892 10.6013 6.31892 10.2162C6.31892 9.8311 6.00673 9.51891 5.62162 9.51891ZM3.72433 10.2162C3.72433 9.16836 4.57377 8.31891 5.62162 8.31891C6.66947 8.31891 7.51892 9.16836 7.51892 10.2162C7.51892 11.2641 6.66947 12.1135 5.62162 12.1135C4.57377 12.1135 3.72433 11.2641 3.72433 10.2162ZM10.3784 9.51891C9.99327 9.51891 9.68108 9.8311 9.68108 10.2162C9.68108 10.6013 9.99327 10.9135 10.3784 10.9135C10.7635 10.9135 11.0757 10.6013 11.0757 10.2162C11.0757 9.8311 10.7635 9.51891 10.3784 9.51891ZM8.48108 10.2162C8.48108 9.16836 9.33053 8.31891 10.3784 8.31891C11.4262 8.31891 12.2757 9.16836 12.2757 10.2162C12.2757 11.2641 11.4262 12.1135 10.3784 12.1135C9.33053 12.1135 8.48108 11.2641 8.48108 10.2162Z"/>
</svg>
