<svg width="16" height="16" viewBox="0 0 16 16" xmlns="http://www.w3.org/2000/svg">
<path fill-rule="evenodd" clip-rule="evenodd" d="M0.399994 1.73684C0.399994 0.998518 0.998519 0.399994 1.73684 0.399994H14.2632C15.0015 0.399994 15.6 0.998519 15.6 1.73684V14.2632C15.6 15.0015 15.0015 15.6 14.2632 15.6H1.73684C0.998518 15.6 0.399994 15.0015 0.399994 14.2632V1.73684ZM1.73684 1.59999C1.66126 1.59999 1.59999 1.66126 1.59999 1.73684V14.2632C1.59999 14.3387 1.66126 14.4 1.73684 14.4H14.2632C14.3387 14.4 14.4 14.3387 14.4 14.2632V1.73684C14.4 1.66126 14.3387 1.59999 14.2632 1.59999H1.73684ZM2.2421 2.8421C2.2421 2.51073 2.51073 2.2421 2.8421 2.2421H2.84578C3.17715 2.2421 3.44578 2.51073 3.44578 2.8421C3.44578 3.17347 3.17715 3.4421 2.84578 3.4421H2.8421C2.51073 3.4421 2.2421 3.17347 2.2421 2.8421ZM7.99999 3.4421C5.48274 3.4421 3.4421 5.48274 3.4421 7.99999C3.4421 10.5173 5.48274 12.5579 7.99999 12.5579C10.5173 12.5579 12.5579 10.5173 12.5579 7.99999C12.5579 5.48274 10.5173 3.4421 7.99999 3.4421ZM2.2421 7.99999C2.2421 4.82 4.82 2.2421 7.99999 2.2421C11.18 2.2421 13.7579 4.82 13.7579 7.99999C13.7579 11.18 11.18 13.7579 7.99999 13.7579C4.82 13.7579 2.2421 11.18 2.2421 7.99999ZM12.5579 2.8421C12.5579 2.51073 12.8265 2.2421 13.1579 2.2421H13.1616C13.4929 2.2421 13.7616 2.51073 13.7616 2.8421C13.7616 3.17347 13.4929 3.4421 13.1616 3.4421H13.1579C12.8265 3.4421 12.5579 3.17347 12.5579 2.8421ZM8.41934 3.90336C8.642 3.65794 9.02145 3.63949 9.26686 3.86215C9.75749 4.30728 9.95413 4.89563 9.90175 5.48746C9.86765 5.87289 9.73037 6.24796 9.51999 6.58939C9.60109 6.67674 9.67476 6.77109 9.73997 6.87143C9.98413 6.81071 10.1794 6.70889 10.3158 6.58867C10.4976 6.42834 10.5916 6.22496 10.5721 5.96204C10.5476 5.63157 10.7956 5.34381 11.126 5.31929C11.4565 5.29478 11.7443 5.5428 11.7688 5.87326C11.8178 6.5339 11.555 7.09585 11.1094 7.48878C10.8191 7.74467 10.4612 7.92199 10.0735 8.02456C10.0718 8.1777 10.0534 8.32684 10.0201 8.47028C10.2332 8.60392 10.4419 8.67387 10.623 8.68867C10.8646 8.7084 11.0763 8.63497 11.2521 8.43852C11.4731 8.1916 11.8524 8.17058 12.0994 8.39157C12.3463 8.61256 12.3673 8.99188 12.1463 9.2388C11.7045 9.73243 11.1175 9.93305 10.5253 9.88468C10.1397 9.85319 9.76371 9.71846 9.42086 9.5104C9.21884 9.70052 8.97867 9.85056 8.71306 9.94783C8.71796 10.1992 8.77376 10.4122 8.86059 10.5718C8.97643 10.7847 9.1538 10.9216 9.41447 10.9611C9.7421 11.0107 9.96746 11.3166 9.91782 11.6442C9.86818 11.9718 9.56234 12.1972 9.23471 12.1476C8.57973 12.0483 8.09035 11.6671 7.80645 11.1452C7.62163 10.8054 7.5284 10.4172 7.51462 10.0166C7.31644 9.96904 7.12933 9.89305 6.95785 9.79318C6.76752 9.95768 6.63936 10.1367 6.57207 10.3056C6.48232 10.5308 6.49041 10.7547 6.62664 10.9804C6.79786 11.2641 6.70667 11.6329 6.42296 11.8041C6.13925 11.9753 5.77046 11.8842 5.59924 11.6004C5.25695 11.0333 5.23737 10.4132 5.45734 9.86132C5.60053 9.50202 5.83951 9.18221 6.13885 8.91555C6.09315 8.82283 6.05418 8.72621 6.02257 8.62631C5.77119 8.6201 5.556 8.66644 5.3927 8.74613C5.17483 8.85244 5.03025 9.02359 4.97927 9.28226C4.9152 9.60738 4.5997 9.819 4.27459 9.75493C3.94947 9.69086 3.73785 9.37536 3.80192 9.05024C3.93 8.40029 4.33248 7.92823 4.86645 7.66767C5.21403 7.49806 5.60594 7.42208 6.00677 7.42601C6.02806 7.35196 6.05336 7.2796 6.08243 7.20919C5.89381 7.04289 5.69916 6.94012 5.52282 6.89623C5.28757 6.83769 5.06682 6.87592 4.86154 7.04136C4.60352 7.24929 4.2258 7.20869 4.01787 6.95068C3.80993 6.69267 3.85053 6.31494 4.10854 6.10701C4.62435 5.69132 5.23607 5.58827 5.81263 5.73175C6.18804 5.82518 6.53723 6.01888 6.84188 6.27958C6.89402 6.24441 6.94785 6.21155 7.00321 6.18115C6.96071 5.93323 6.87363 5.73101 6.76384 5.58616C6.61741 5.39296 6.42153 5.2842 6.15789 5.2842C5.82652 5.2842 5.55789 5.01558 5.55789 4.6842C5.55789 4.35283 5.82652 4.0842 6.15789 4.0842C6.82034 4.0842 7.36131 4.38782 7.72019 4.86132C7.95389 5.16966 8.10424 5.53964 8.17786 5.93383C8.28229 5.9427 8.38452 5.95931 8.48397 5.98309C8.61904 5.77095 8.69041 5.5627 8.70642 5.38168C8.72779 5.1402 8.6558 4.92804 8.46054 4.75089C8.21513 4.52823 8.19668 4.14878 8.41934 3.90336ZM7.99999 7.12631C7.51747 7.12631 7.12631 7.51747 7.12631 7.99999C7.12631 8.48252 7.51747 8.87368 7.99999 8.87368C8.48252 8.87368 8.87368 8.48252 8.87368 7.99999C8.87368 7.51747 8.48252 7.12631 7.99999 7.12631ZM2.2421 13.1579C2.2421 12.8265 2.51073 12.5579 2.8421 12.5579H2.84578C3.17715 12.5579 3.44578 12.8265 3.44578 13.1579C3.44578 13.4893 3.17715 13.7579 2.84578 13.7579H2.8421C2.51073 13.7579 2.2421 13.4893 2.2421 13.1579ZM12.5579 13.1579C12.5579 12.8265 12.8265 12.5579 13.1579 12.5579H13.1616C13.4929 12.5579 13.7616 12.8265 13.7616 13.1579C13.7616 13.4893 13.4929 13.7579 13.1616 13.7579H13.1579C12.8265 13.7579 12.5579 13.4893 12.5579 13.1579Z"/>
</svg>
