<svg width="16" height="16" viewBox="0 0 16 16" xmlns="http://www.w3.org/2000/svg">
<path fill-rule="evenodd" clip-rule="evenodd" d="M7.99998 0.37146L15.0819 2.58106C15.2983 2.64859 15.4582 2.83234 15.4952 3.05602L14.9032 3.15383C15.4952 3.05602 15.4952 3.05602 15.4952 3.05602L15.4954 3.05756L15.4958 3.0599L15.497 3.06701L15.5006 3.09069C15.5035 3.11063 15.5076 3.13882 15.5123 3.17481C15.5218 3.24677 15.5342 3.35001 15.5467 3.48094C15.5715 3.74266 15.5967 4.11589 15.5997 4.57181C15.6056 5.48175 15.523 6.73162 15.1654 8.08585C14.4454 10.8126 12.6068 13.9566 8.20578 15.5636L7.99998 15.6387L7.79419 15.5636C3.39319 13.9566 1.55452 10.8126 0.83458 8.08585C0.477018 6.73162 0.394364 5.48174 0.400284 4.5718C0.40325 4.11589 0.428474 3.74265 0.453341 3.48094C0.466769 3.33962 0.482169 3.1982 0.504485 3.05796C0.541446 2.83428 0.701644 2.64859 0.918067 2.58106L7.99998 0.37146ZM1.64642 3.61087C1.62493 3.84149 1.6029 4.17308 1.60026 4.57961C1.59483 5.41406 1.67114 6.55361 1.99482 7.77951C2.6261 10.1704 4.19407 12.8948 7.99998 14.3592C11.8059 12.8948 13.3739 10.1704 14.0052 7.77951C14.3288 6.55361 14.4052 5.41406 14.3997 4.57961C14.3971 4.17308 14.3751 3.84149 14.3536 3.61087L7.99998 1.62851L1.64642 3.61087ZM9.11639 3.48849C9.35194 3.57557 9.50834 3.80014 9.50834 4.05127V6.32306H10.9066C11.1384 6.32306 11.3495 6.45657 11.4488 6.66601C11.5481 6.87545 11.5179 7.12336 11.3712 7.30281L7.55624 11.9695C7.3957 12.1659 7.12901 12.2401 6.89011 12.1548C6.65121 12.0696 6.4917 11.8434 6.4917 11.5897V9.31793H4.91174C4.67747 9.31793 4.46463 9.18158 4.36669 8.96876C4.26875 8.75595 4.30364 8.50559 4.45602 8.32765L8.45262 3.66099C8.61597 3.47024 8.88083 3.40141 9.11639 3.48849ZM6.21555 8.11793H7.0917C7.42307 8.11793 7.6917 8.38656 7.6917 8.71794V9.90778L9.64117 7.52306H8.90834C8.57697 7.52306 8.30834 7.25443 8.30834 6.92306V5.67427L6.21555 8.11793Z"/>
</svg>
