<svg width="16" height="16" viewBox="0 0 16 16" xmlns="http://www.w3.org/2000/svg">
<path fill-rule="evenodd" clip-rule="evenodd" d="M4.86703 1.75675C4.86703 0.951977 5.56871 0.399994 6.30402 0.399994H12.163C12.8983 0.399994 13.6 0.951977 13.6 1.75675V3.83783C13.6 4.64261 12.8983 5.19459 12.163 5.19459H11.2983V7.58918H12.163C12.8983 7.58918 13.6 8.14117 13.6 8.94594V14.2432C13.6 15.048 12.8983 15.6 12.163 15.6H6.30402C5.56871 15.6 4.86703 15.048 4.86703 14.2432V12.8749C4.51843 12.7351 4.23928 12.4119 4.23928 11.973V9.24819L3.20956 9.0413C2.73691 8.94634 2.33217 8.50972 2.40892 7.95459L2.51903 7.15814C2.59938 6.57694 3.14916 6.25922 3.64793 6.31559L4.23928 6.38242V5.91891C4.23928 5.47997 4.51843 5.15676 4.86703 5.017V1.75675ZM6.06703 5.06592C6.54276 5.27254 6.90402 5.71984 6.90402 6.29729V11.5946C6.90402 12.172 6.54276 12.6193 6.06703 12.826V14.2432C6.06703 14.2657 6.07583 14.2983 6.11457 14.3333C6.15429 14.3692 6.21962 14.4 6.30402 14.4H6.7805C6.41795 14.2671 6.12252 13.938 6.12252 13.4865C6.12252 12.8907 6.63684 12.5081 7.14102 12.5081C7.6452 12.5081 8.15952 12.8907 8.15952 13.4865C8.15952 13.938 7.86408 14.2671 7.50154 14.4H10.9655C10.6029 14.2671 10.3075 13.938 10.3075 13.4865C10.3075 12.8907 10.8218 12.5081 11.326 12.5081C11.8302 12.5081 12.3445 12.8907 12.3445 13.4865C12.3445 13.938 12.0491 14.2671 11.6865 14.4H12.163C12.2474 14.4 12.3127 14.3692 12.3525 14.3333C12.3912 14.2983 12.4 14.2657 12.4 14.2432V8.94594C12.4 8.92346 12.3912 8.89091 12.3525 8.85589C12.3127 8.81998 12.2474 8.78918 12.163 8.78918H11.1168C10.6126 8.78918 10.0983 8.40661 10.0983 7.8108V4.97297C10.0983 4.37717 10.6126 3.99459 11.1168 3.99459H12.163C12.2474 3.99459 12.3127 3.96379 12.3525 3.92788C12.3912 3.89286 12.4 3.86032 12.4 3.83783V1.75675C12.4 1.73427 12.3912 1.70173 12.3525 1.6667C12.3127 1.63079 12.2474 1.59999 12.163 1.59999H11.6865C12.0491 1.73286 12.3445 2.06195 12.3445 2.51351C12.3445 3.10931 11.8302 3.49189 11.326 3.49189C10.8218 3.49189 10.3075 3.10931 10.3075 2.51351C10.3075 2.06195 10.6029 1.73287 10.9655 1.59999H7.50154C7.86408 1.73287 8.15952 2.06195 8.15952 2.51351C8.15952 3.10931 7.6452 3.49189 7.14102 3.49189C6.63684 3.49189 6.12252 3.10931 6.12252 2.51351C6.12252 2.06195 6.41796 1.73287 6.7805 1.59999H6.30402C6.21962 1.59999 6.15429 1.63079 6.11457 1.6667C6.07583 1.70173 6.06703 1.73427 6.06703 1.75675V5.06592ZM7.24749 2.69101C7.28449 2.65756 7.32252 2.59551 7.32252 2.51351C7.32252 2.4315 7.28449 2.36945 7.24749 2.336C7.21147 2.30344 7.17218 2.29189 7.14102 2.29189C7.10986 2.29189 7.07057 2.30344 7.03455 2.336C6.99755 2.36945 6.95952 2.4315 6.95952 2.51351C6.95952 2.59551 6.99755 2.65756 7.03455 2.69101C7.07057 2.72358 7.10986 2.73513 7.14102 2.73513C7.17218 2.73513 7.21147 2.72358 7.24749 2.69101ZM11.4325 2.69101C11.4695 2.65756 11.5075 2.59551 11.5075 2.51351C11.5075 2.43151 11.4695 2.36945 11.4325 2.336C11.3965 2.30344 11.3572 2.29189 11.326 2.29189C11.2948 2.29189 11.2556 2.30344 11.2195 2.336C11.1825 2.36945 11.1445 2.4315 11.1445 2.51351C11.1445 2.59551 11.1825 2.65756 11.2195 2.69101C11.2556 2.72358 11.2948 2.73513 11.326 2.73513C11.3572 2.73513 11.3965 2.72358 11.4325 2.69101ZM5.43928 6.14053V6.62543C5.43928 7.27606 4.83921 7.65786 4.30149 7.59709L3.67948 7.52679L3.62769 7.90133L4.62975 8.10266C5.06049 8.18921 5.43928 8.55731 5.43928 9.06028V11.7513H5.46703C5.55143 11.7513 5.61676 11.7205 5.65648 11.6846C5.69521 11.6496 5.70402 11.6171 5.70402 11.5946V6.29729C5.70402 6.27481 5.69521 6.24227 5.65648 6.20724C5.61676 6.17134 5.55143 6.14053 5.46703 6.14053H5.43928ZM7.24749 13.664C7.28449 13.6305 7.32252 13.5685 7.32252 13.4865C7.32252 13.4045 7.28449 13.3424 7.24749 13.309C7.21147 13.2764 7.17218 13.2649 7.14102 13.2649C7.10986 13.2649 7.07056 13.2764 7.03455 13.309C6.99755 13.3424 6.95952 13.4045 6.95952 13.4865C6.95952 13.5685 6.99755 13.6305 7.03455 13.664C7.07057 13.6966 7.10986 13.7081 7.14102 13.7081C7.17218 13.7081 7.21147 13.6966 7.24749 13.664ZM11.4325 13.664C11.4695 13.6305 11.5075 13.5685 11.5075 13.4865C11.5075 13.4045 11.4695 13.3424 11.4325 13.309C11.3965 13.2764 11.3572 13.2649 11.326 13.2649C11.2948 13.2649 11.2556 13.2764 11.2195 13.309C11.1825 13.3424 11.1445 13.4045 11.1445 13.4865C11.1445 13.5685 11.1825 13.6305 11.2195 13.664C11.2556 13.6966 11.2948 13.7081 11.326 13.7081C11.3572 13.7081 11.3965 13.6966 11.4325 13.664Z"/>
</svg>
