<svg width="16" height="16" viewBox="0 0 16 16" xmlns="http://www.w3.org/2000/svg">
<path fill-rule="evenodd" clip-rule="evenodd" d="M0.400002 4.10526C0.400002 3.16347 1.16347 2.39999 2.10526 2.39999H13.8947C14.8365 2.39999 15.6 3.16347 15.6 4.10526V12.3158C15.6 13.1994 14.8837 13.9158 14 13.9158H2C1.11635 13.9158 0.400002 13.1994 0.400002 12.3158V4.10526ZM2.10526 3.59999C1.82622 3.59999 1.6 3.82621 1.6 4.10526V12.3158C1.6 12.5367 1.77909 12.7158 2 12.7158H14C14.2209 12.7158 14.4 12.5367 14.4 12.3158V4.10526C14.4 3.82621 14.1738 3.59999 13.8947 3.59999H2.10526ZM2.24211 5.21052C2.24211 4.67568 2.67568 4.2421 3.21053 4.2421H6.1579C6.69274 4.2421 7.12632 4.67568 7.12632 5.21052V7.42105C7.12632 7.95589 6.69274 8.38947 6.1579 8.38947H3.21053C2.67568 8.38947 2.24211 7.95589 2.24211 7.42105V5.21052ZM3.44211 5.4421V7.18947H3.91575L3.73371 6.4613C3.65334 6.13983 3.84879 5.81407 4.17027 5.7337C4.49175 5.65333 4.81751 5.84878 4.89788 6.17026L5.15268 7.18947H5.92632V5.4421H3.44211ZM11.0842 5.21052C11.0842 4.67568 11.5178 4.2421 12.0526 4.2421H12.7895C13.3243 4.2421 13.7579 4.67568 13.7579 5.21052V7.42105C13.7579 7.95589 13.3243 8.38947 12.7895 8.38947H12.0526C11.5178 8.38947 11.0842 7.95589 11.0842 7.42105V5.21052ZM12.2842 5.4421V7.18947H12.5579V5.4421H12.2842ZM8.36842 5.34736C8.69979 5.34736 8.96842 5.61599 8.96842 5.94736V6.6842C8.96842 7.01558 8.69979 7.2842 8.36842 7.2842C8.03705 7.2842 7.76842 7.01558 7.76842 6.6842V5.94736C7.76842 5.61599 8.03705 5.34736 8.36842 5.34736ZM9.84211 5.34736C10.1735 5.34736 10.4421 5.61599 10.4421 5.94736V6.6842C10.4421 7.01558 10.1735 7.2842 9.84211 7.2842C9.51074 7.2842 9.24211 7.01558 9.24211 6.6842V5.94736C9.24211 5.61599 9.51074 5.34736 9.84211 5.34736ZM3.76316 10.2316C3.58585 10.2316 3.44211 10.3753 3.44211 10.5526C3.44211 10.7299 3.58585 10.8737 3.76316 10.8737C3.94047 10.8737 4.08421 10.7299 4.08421 10.5526C4.08421 10.3753 3.94047 10.2316 3.76316 10.2316ZM2.24211 10.5526C2.24211 9.71257 2.92311 9.03157 3.76316 9.03157C4.60321 9.03157 5.28421 9.71257 5.28421 10.5526C5.28421 11.3927 4.60321 12.0737 3.76316 12.0737C2.9231 12.0737 2.24211 11.3927 2.24211 10.5526ZM12.2368 10.2316C12.0595 10.2316 11.9158 10.3753 11.9158 10.5526C11.9158 10.7299 12.0595 10.8737 12.2368 10.8737C12.4142 10.8737 12.5579 10.7299 12.5579 10.5526C12.5579 10.3753 12.4142 10.2316 12.2368 10.2316ZM10.7158 10.5526C10.7158 9.71257 11.3968 9.03157 12.2368 9.03157C13.0769 9.03157 13.7579 9.71257 13.7579 10.5526C13.7579 11.3927 13.0769 12.0737 12.2368 12.0737C11.3968 12.0737 10.7158 11.3927 10.7158 10.5526Z"/>
<path d="M6.80724 10.4974C6.80724 10.6194 6.70827 10.7184 6.58619 10.7184C6.4641 10.7184 6.36513 10.6194 6.36513 10.4974C6.36513 10.3753 6.4641 10.2763 6.58619 10.2763C6.70827 10.2763 6.80724 10.3753 6.80724 10.4974Z"/>
<path d="M9.61645 10.4974C9.61645 10.6194 9.51748 10.7184 9.3954 10.7184C9.27331 10.7184 9.17434 10.6194 9.17434 10.4974C9.17434 10.3753 9.27331 10.2763 9.3954 10.2763C9.51748 10.2763 9.61645 10.3753 9.61645 10.4974Z"/>
</svg>
