<svg width="16" height="16" viewBox="0 0 16 16" xmlns="http://www.w3.org/2000/svg">
<path fill-rule="evenodd" clip-rule="evenodd" d="M2.4 2.11999C2.4 1.19541 3.12353 0.399994 4.07143 0.399994H7.28571C8.23361 0.399994 8.95714 1.19541 8.95714 2.11999V11.08C8.95714 12.0046 8.23361 12.8 7.28571 12.8H6.27857V13.88C6.27857 14.1925 6.51443 14.4 6.75 14.4H10.5C10.7356 14.4 10.9714 14.1925 10.9714 13.88V5.33333H10.8571C10.1065 5.33333 9.54286 4.70506 9.54286 3.98666V1.89333H10.2571V0.999994C10.2571 0.668623 10.5258 0.399994 10.8571 0.399994C11.1885 0.399994 11.4571 0.668623 11.4571 0.999994V1.89333H11.6857V0.999994C11.6857 0.668623 11.9543 0.399994 12.2857 0.399994C12.6171 0.399994 12.8857 0.668623 12.8857 0.999994V1.89333H13.6V3.98666C13.6 4.70506 13.0364 5.33333 12.2857 5.33333H12.1714V13.88C12.1714 14.8046 11.4479 15.6 10.5 15.6H6.75C5.8021 15.6 5.07857 14.8046 5.07857 13.88V12.8H4.07143C3.12353 12.8 2.4 12.0046 2.4 11.08V2.11999ZM12.4 3.09333H10.7429V3.98666C10.7429 4.09301 10.8188 4.13333 10.8571 4.13333H12.2857C12.324 4.13333 12.4 4.09301 12.4 3.98666V3.09333ZM4.07143 1.59999C3.83586 1.59999 3.6 1.80746 3.6 2.11999V11.08C3.6 11.3925 3.83586 11.6 4.07143 11.6H7.28571C7.52128 11.6 7.75714 11.3925 7.75714 11.08V2.11999C7.75714 1.80746 7.52128 1.59999 7.28571 1.59999H4.07143ZM5.67857 3.09333C5.34438 3.09333 5.02857 3.38437 5.02857 3.79999C5.02857 4.21562 5.34438 4.50666 5.67857 4.50666C6.01276 4.50666 6.32857 4.21562 6.32857 3.79999C6.32857 3.38437 6.01276 3.09333 5.67857 3.09333ZM3.82857 3.79999C3.82857 2.77232 4.63205 1.89333 5.67857 1.89333C6.72509 1.89333 7.52857 2.77232 7.52857 3.79999C7.52857 4.69884 6.91391 5.48395 6.05957 5.66666C6.91391 5.84937 7.52857 6.63448 7.52857 7.53333C7.52857 8.561 6.72509 9.43999 5.67857 9.43999C4.63205 9.43999 3.82857 8.561 3.82857 7.53333C3.82857 6.63448 4.44324 5.84937 5.29757 5.66666C4.44324 5.48395 3.82857 4.69884 3.82857 3.79999ZM5.67857 6.82666C5.34438 6.82666 5.02857 7.1177 5.02857 7.53333C5.02857 7.94896 5.34438 8.23999 5.67857 8.23999C6.01276 8.23999 6.32857 7.94896 6.32857 7.53333C6.32857 7.1177 6.01276 6.82666 5.67857 6.82666ZM3.82857 10.52C3.82857 10.1886 4.0972 9.91999 4.42857 9.91999H6.92857C7.25994 9.91999 7.52857 10.1886 7.52857 10.52C7.52857 10.8514 7.25994 11.12 6.92857 11.12H4.42857C4.0972 11.12 3.82857 10.8514 3.82857 10.52Z"/>
</svg>
