<svg width="16" height="16" viewBox="0 0 16 16" xmlns="http://www.w3.org/2000/svg">
<path fill-rule="evenodd" clip-rule="evenodd" d="M8.6 1.75762V2.9723C8.70751 3.08073 8.77391 3.22997 8.77391 3.39473V3.57894C8.77391 3.7437 8.70751 3.89294 8.6 4.00137V5.18947H9.31304V3.65847C9.31304 3.22634 9.20205 2.80429 8.99444 2.43779C8.86907 2.21646 8.7634 1.95389 8.6 1.75762ZM10.513 5.18947V3.65847C10.513 3.02222 10.3499 2.39597 10.0386 1.84634L9.69559 1.24088C9.40626 0.730107 8.87287 0.399994 8.27876 0.399994H7.72124C7.12713 0.399994 6.59374 0.730107 6.30441 1.24088L5.96144 1.84634C5.65009 2.39597 5.48696 3.02222 5.48696 3.65847V5.18947H5.28943C4.96132 5.18947 4.65414 5.32784 4.43328 5.56178C4.21353 5.79455 4.09565 6.10325 4.09565 6.4184V6.50038C4.09565 6.93245 4.2992 7.34929 4.65933 7.6036L5.04512 7.87602L3.45304 13.441C3.41779 13.5642 3.4 13.6918 3.4 13.8197V14.2632C3.4 14.9685 3.94803 15.6 4.69565 15.6H5.56522C5.82405 15.6 6.05371 15.434 6.13492 15.1882L8 9.54393L9.86508 15.1882C9.94629 15.434 10.1759 15.6 10.4348 15.6H11.3043C12.052 15.6 12.6 14.9685 12.6 14.2632V13.8197C12.6 13.6918 12.5822 13.5642 12.547 13.441L10.9549 7.87602L11.3407 7.6036C11.7008 7.34929 11.9043 6.93245 11.9043 6.50038V6.4184C11.9043 6.10325 11.7865 5.79455 11.5667 5.56178C11.3459 5.32784 11.0387 5.18947 10.7106 5.18947H10.513ZM8.6 7.53501L10.8684 14.4H11.3043C11.3192 14.4 11.3388 14.3947 11.36 14.3723C11.3817 14.3493 11.4 14.3121 11.4 14.2632V13.8197C11.4 13.8029 11.3976 13.7864 11.3932 13.7711L9.68401 7.79661C9.61385 7.55137 9.70641 7.28858 9.91477 7.14145L10.6485 6.62335C10.6754 6.60434 10.7043 6.56105 10.7043 6.50038C10.7043 6.4654 10.7094 6.40966 10.697 6.38947H8.6V7.53501ZM7.4 5.18947V4.00137C7.29249 3.89294 7.22609 3.7437 7.22609 3.57894V3.39473C7.22609 3.22997 7.29249 3.08073 7.4 2.9723V1.75762C7.2366 1.95389 7.13093 2.21646 7.00556 2.43779C6.79795 2.80429 6.68696 3.22634 6.68696 3.65847V5.18947H7.4ZM7.4 6.38947V7.53501L5.13157 14.4H4.69565C4.68077 14.4 4.66116 14.3947 4.64003 14.3723C4.61835 14.3493 4.6 14.3121 4.6 14.2632V13.8197C4.6 13.8029 4.60236 13.7864 4.60675 13.7711L6.31599 7.79661C6.38615 7.55137 6.29359 7.28858 6.08522 7.14145L5.35152 6.62335C5.32459 6.60434 5.29565 6.56105 5.29565 6.50038C5.29565 6.4654 5.29056 6.40966 5.30296 6.38947H7.4Z"/>
</svg>
