<svg width="16" height="16" viewBox="0 0 16 16" xmlns="http://www.w3.org/2000/svg">
<path fill-rule="evenodd" clip-rule="evenodd" d="M8 1.59999C5.53029 1.59999 3.6 3.45902 3.6 5.66666C3.6 6.88741 4.18279 7.99199 5.12476 8.74456C5.30329 8.8872 5.49454 9.01697 5.69685 9.13214C6.36481 9.51241 7.15276 9.73333 8 9.73333C8.84724 9.73333 9.63519 9.51241 10.3032 9.13214C10.5055 9.01697 10.6967 8.8872 10.8752 8.74456C11.8172 7.99199 12.4 6.88741 12.4 5.66666C12.4 3.45902 10.4697 1.59999 8 1.59999ZM2.4 5.66666C2.4 2.71964 4.94687 0.399994 8 0.399994C11.0531 0.399994 13.6 2.71964 13.6 5.66666C13.6 7.21893 12.8866 8.60569 11.7685 9.56282L11.2 11.3593V13.1333C11.2 13.6649 10.9734 14.1656 10.5851 14.5279L10.3123 14.7825C9.74705 15.3101 8.98869 15.6 8.20589 15.6H7.90176C7.18649 15.6 6.48981 15.358 5.94183 14.9105L5.47203 14.5268C5.05215 14.1839 4.8 13.6777 4.8 13.1333V11.3593L4.23151 9.56282C3.11339 8.60569 2.4 7.21893 2.4 5.66666ZM5.7889 10.5069L5.83946 10.6667H6.23601C6.08403 10.6193 5.93489 10.5659 5.7889 10.5069ZM9.76399 10.6667H10.1605L10.2111 10.5069C10.0651 10.5659 9.91597 10.6193 9.76399 10.6667ZM10 11.8667H6V12.5333H10V11.8667ZM9.67779 13.7333H6.39754L6.70087 13.981C7.02789 14.2481 7.45436 14.4 7.90176 14.4H8.20589C8.69612 14.4 9.15866 14.2178 9.49355 13.9053L9.67779 13.7333ZM8.4 3.09333C6.81394 3.09333 5.6 4.28377 5.6 5.66666C5.6 5.99803 5.33137 6.26666 5 6.26666C4.66863 6.26666 4.4 5.99803 4.4 5.66666C4.4 3.54439 6.23052 1.89333 8.4 1.89333C8.73137 1.89333 9 2.16196 9 2.49333C9 2.8247 8.73137 3.09333 8.4 3.09333Z"/>
</svg>
