<svg width="16" height="16" viewBox="0 0 16 16" xmlns="http://www.w3.org/2000/svg">
<path d="M9.07686 2.77654C8.80222 2.54114 8.39711 2.54114 8.12247 2.77654L2.99046 7.17522C2.73886 7.39087 2.36009 7.36172 2.14444 7.11012C1.92879 6.85852 1.95793 6.47974 2.20953 6.26409L7.34152 1.86544C8.06554 1.24486 9.13375 1.24484 9.85777 1.8654L14.9904 6.26407C15.242 6.4797 15.2712 6.85848 15.0556 7.11009C14.8754 7.32034 14.5813 7.37528 14.3427 7.26184V12.2437C14.3427 13.3117 13.4774 14.177 12.4093 14.177H9.26667C8.9353 14.177 8.66667 13.9084 8.66667 13.577C8.66667 13.2456 8.9353 12.977 9.26667 12.977H12.4093C12.8146 12.977 13.1427 12.649 13.1427 12.2437V6.26092L9.07686 2.77654Z"/>
<path d="M2.00014 11.2305C2.00742 10.8992 2.28188 10.6365 2.61317 10.6438C3.43368 10.6618 4.16232 10.9554 4.69193 11.4851C5.22154 12.0147 5.51517 12.7433 5.53319 13.5638C5.54046 13.8951 5.2778 14.1696 4.94651 14.1768C4.61522 14.1841 4.34075 13.9215 4.33348 13.5902C4.3215 13.0447 4.13146 12.6216 3.8434 12.3336C3.55535 12.0455 3.13232 11.8555 2.58683 11.8435C2.25553 11.8362 1.99287 11.5618 2.00014 11.2305Z"/>
<path d="M2.75118 8.31036C2.41983 8.30662 2.14818 8.57219 2.14444 8.90354C2.14069 9.23489 2.40627 9.50654 2.73762 9.51028C2.73762 9.51028 3.6444 9.5 4.19396 9.76142C4.74352 10.0228 6.16312 11.0034 6.55997 12.1274C6.71615 12.5698 6.80516 13.0578 6.8111 13.5838C6.81485 13.9151 7.08649 14.1807 7.41784 14.177C7.74919 14.1732 8.01477 13.9016 8.01103 13.5702C8.00364 12.9162 7.89265 12.2976 7.6915 11.7279C7.1737 10.2613 6.05951 9.14824 4.5935 8.62989C4.02383 8.42874 3.40517 8.31775 2.75118 8.31036Z"/>
<path fill-rule="evenodd" clip-rule="evenodd" d="M2.59886 12.9054C2.26617 12.9054 1.99772 13.1751 2.00002 13.5042C1.99772 13.8357 2.26846 14.1054 2.59886 14.1054C2.92926 14.1054 3.2 13.8357 3.2 13.5065C3.2 13.1774 2.93155 12.9054 2.59886 12.9054Z"/>
</svg>
