<svg width="16" height="16" viewBox="0 0 16 16" xmlns="http://www.w3.org/2000/svg">
<path fill-rule="evenodd" clip-rule="evenodd" d="M8.89648 0.581349C9.12769 0.818726 9.12269 1.19859 8.88531 1.4298L2.47592 7.67272H8.22275L14.5814 1.47928C14.8187 1.24806 15.1986 1.25306 15.4298 1.49044C15.661 1.72782 15.656 2.10768 15.4186 2.33889L9.06667 8.52589V8.66891L14.5814 3.29746C14.8187 3.06625 15.1986 3.07124 15.4298 3.30862C15.661 3.546 15.656 3.92586 15.4186 4.15708L8.88531 10.5207C8.7125 10.689 8.45568 10.7375 8.23342 10.6437C8.11009 10.5917 8.01071 10.5015 7.94667 10.3902V10.7142L8.8448 11.4432C8.98516 11.5572 9.06667 11.7283 9.06667 11.9091V13.578L14.5814 8.20655C14.8187 7.97534 15.1986 7.98034 15.4298 8.21771C15.661 8.45509 15.656 8.83496 15.4186 9.06617L8.88531 15.4298C8.77328 15.5389 8.62306 15.6 8.46667 15.6H1C0.668631 15.6 0.400002 15.3314 0.400002 15V11.9091C0.400002 11.7241 0.485311 11.5495 0.631212 11.4358L1.33333 10.8887V10.5899C1.238 10.6537 1.12334 10.6909 1 10.6909C0.668631 10.6909 0.400002 10.4223 0.400002 10.0909V8.27272C0.400002 8.11085 0.465403 7.95585 0.581356 7.84291L8.04802 0.570185C8.2854 0.338973 8.66527 0.343972 8.89648 0.581349ZM1.6 9.578L2.32408 8.87272H1.6V9.578ZM4.04392 8.87272L2.53333 10.3441V11.1818C2.53333 11.3668 2.44802 11.5414 2.30212 11.6551L1.6 12.2022V13.578L6.43075 8.87272H4.04392ZM6.74667 10.2402L2.47592 14.4H7.86667V12.1948L6.96854 11.4658C6.82818 11.3519 6.74667 11.1808 6.74667 11V10.2402Z"/>
</svg>
