<svg width="16" height="16" viewBox="0 0 16 16" xmlns="http://www.w3.org/2000/svg">
<path fill-rule="evenodd" clip-rule="evenodd" d="M1.74667 3.59999C1.65068 3.59999 1.6 3.67176 1.6 3.72727V11.2954C1.6 11.8907 2.09989 12.4 2.75 12.4H12.375C13.5084 12.4 14.4 11.5091 14.4 10.4432V3.72727C14.4 3.67176 14.3493 3.59999 14.2533 3.59999H14.1067V10.6932C14.1067 11.51 13.4313 12.1454 12.6317 12.1454H3.36833C2.5687 12.1454 1.89333 11.51 1.89333 10.6932V3.59999H1.74667ZM0.400002 3.72727C0.400002 2.97945 1.01791 2.39999 1.74667 2.39999H1.93334C2.34415 2.39999 2.71558 2.61471 2.92224 2.94545H13.0778C13.2844 2.61471 13.6559 2.39999 14.0667 2.39999H14.2533C14.9821 2.39999 15.6 2.97945 15.6 3.72727V10.4432C15.6 12.2014 14.1411 13.6 12.375 13.6H2.75C1.46712 13.6 0.400002 12.583 0.400002 11.2954V3.72727ZM12.9067 4.14545H11.9888C12.143 4.25403 12.2437 4.43343 12.2437 4.63636C12.2437 4.96773 11.9751 5.23636 11.6437 5.23636H11.64C11.3086 5.23636 11.04 4.96773 11.04 4.63636C11.04 4.43343 11.1407 4.25403 11.2949 4.14545H10.4955C10.6497 4.25403 10.7504 4.43343 10.7504 4.63636C10.7504 4.96773 10.4818 5.23636 10.1504 5.23636H10.1467C9.8153 5.23636 9.54667 4.96773 9.54667 4.63636C9.54667 4.43343 9.64741 4.25403 9.80161 4.14545H3.09334V10.6932C3.09334 10.8177 3.20147 10.9454 3.36833 10.9454H12.6317C12.7985 10.9454 12.9067 10.8177 12.9067 10.6932V4.14545ZM8.19983 4.84013C8.48895 5.00204 8.59208 5.36767 8.43017 5.65679L7.81034 6.76363H9.02667C9.23962 6.76363 9.43662 6.87651 9.54431 7.06023C9.65199 7.24395 9.65422 7.47099 9.55017 7.65679L8.43017 9.65679C8.26826 9.94591 7.90263 10.049 7.61351 9.88713C7.32438 9.72522 7.22126 9.35959 7.38316 9.07047L8.00299 7.96363H6.78667C6.57371 7.96363 6.37671 7.85075 6.26903 7.66703C6.16135 7.48331 6.15911 7.25627 6.26316 7.07047L7.38316 5.07047C7.54507 4.78134 7.91071 4.67822 8.19983 4.84013Z"/>
</svg>
