<svg width="16" height="16" viewBox="0 0 16 16" xmlns="http://www.w3.org/2000/svg">
<path fill-rule="evenodd" clip-rule="evenodd" d="M7.13699 2.59999C4.06615 2.59999 1.6 5.03035 1.6 7.99999C1.6 10.9696 4.06615 13.4 7.13699 13.4H12.674V12.725H7.13699C4.48827 12.725 2.31781 10.6222 2.31781 7.99999C2.31781 5.37775 4.48827 3.27499 7.13699 3.27499C9.7857 3.27499 11.9562 5.37775 11.9562 7.99999C11.9562 9.40551 11.3326 10.6618 10.3461 11.525H11.3316C12.1697 10.5774 12.674 9.34582 12.674 7.99999C12.674 5.03035 10.2078 2.59999 7.13699 2.59999ZM12.8336 11.525C13.4918 10.506 13.874 9.29691 13.874 7.99999C13.874 4.34222 10.8449 1.39999 7.13699 1.39999C3.42909 1.39999 0.4 4.34222 0.4 7.99999C0.4 11.6578 3.42909 14.6 7.13699 14.6H13.274C13.6053 14.6 13.874 14.3314 13.874 14V13.6625H15C15.3314 13.6625 15.6 13.3939 15.6 13.0625C15.6 12.7311 15.3314 12.4625 15 12.4625H13.874V12.125C13.874 11.7936 13.6053 11.525 13.274 11.525H12.8336ZM7.13699 11.525C9.14864 11.525 10.7562 9.9341 10.7562 7.99999C10.7562 6.06589 9.14864 4.47499 7.13699 4.47499C5.12533 4.47499 3.51781 6.06589 3.51781 7.99999C3.51781 9.9341 5.12533 11.525 7.13699 11.525ZM7.13699 6.34999C6.1845 6.34999 5.43562 7.10142 5.43562 7.99999C5.43562 8.89857 6.1845 9.64999 7.13699 9.64999C8.08947 9.64999 8.83836 8.89857 8.83836 7.99999C8.83836 7.10142 8.08947 6.34999 7.13699 6.34999ZM4.23562 7.99999C4.23562 6.41329 5.54744 5.14999 7.13699 5.14999C8.72653 5.14999 10.0384 6.41329 10.0384 7.99999C10.0384 9.5867 8.72653 10.85 7.13699 10.85C5.54744 10.85 4.23562 9.5867 4.23562 7.99999Z"/>
</svg>
