<svg width="24" height="24" viewBox="0 0 24 24" xmlns="http://www.w3.org/2000/svg">
<path d="M8 12C8.55229 12 9 11.5523 9 11C9 10.4477 8.55229 10 8 10C7.44772 10 7 10.4477 7 11C7 11.5523 7.44772 12 8 12Z"/>
<path d="M13 11C13 11.5523 12.5523 12 12 12C11.4477 12 11 11.5523 11 11C11 10.4477 11.4477 10 12 10C12.5523 10 13 10.4477 13 11Z"/>
<path d="M16 12C16.5523 12 17 11.5523 17 11C17 10.4477 16.5523 10 16 10C15.4477 10 15 10.4477 15 11C15 11.5523 15.4477 12 16 12Z"/>
<path fill-rule="evenodd" clip-rule="evenodd" d="M9.96644 1.25C8.59472 1.24999 7.51929 1.24999 6.65494 1.32061C5.77479 1.39252 5.04768 1.54138 4.38955 1.87671C3.30762 2.42798 2.42798 3.30762 1.87671 4.38955C1.54138 5.04768 1.39252 5.77479 1.32061 6.65494C1.24999 7.51928 1.25 8.59472 1.25 9.96644V12.0336C1.25 13.4053 1.24999 14.4807 1.32061 15.3451C1.39252 16.2252 1.54138 16.9523 1.87671 17.6104C2.42798 18.6924 3.30762 19.572 4.38955 20.1233C5.04768 20.4586 5.77479 20.6075 6.65494 20.6794C7.51925 20.75 8.59464 20.75 9.96628 20.75H14.9983C15.6277 20.75 15.8814 20.7512 16.1253 20.7807C16.5476 20.8318 16.9599 20.946 17.3484 21.1195C17.5727 21.2197 17.7908 21.3491 18.3306 21.673L18.3539 21.687C18.7738 21.9389 19.1225 22.1481 19.4102 22.295C19.699 22.4424 20.0084 22.5717 20.342 22.5952C21.2439 22.6586 22.0963 22.1761 22.5059 21.37C22.6574 21.0718 22.7057 20.74 22.7279 20.4165C22.75 20.0941 22.75 19.6879 22.75 19.1978V9.96642C22.75 8.59478 22.75 7.51925 22.6794 6.65494C22.6075 5.77479 22.4586 5.04768 22.1233 4.38955C21.572 3.30762 20.6924 2.42798 19.6104 1.87671C18.9523 1.54138 18.2252 1.39252 17.3451 1.32061C16.4807 1.24999 15.4053 1.24999 14.0336 1.25H9.96644ZM5.07054 3.21322C5.48197 3.00359 5.9897 2.87996 6.77708 2.81563C7.57322 2.75058 8.58749 2.75 10 2.75H14C15.4125 2.75 16.4268 2.75058 17.2229 2.81563C18.0103 2.87996 18.518 3.00359 18.9295 3.21322C19.7291 3.62068 20.3793 4.27085 20.7868 5.07054C20.9964 5.48197 21.12 5.9897 21.1844 6.77708C21.2494 7.57322 21.25 8.58749 21.25 10V19.1708C21.25 19.6948 21.2496 20.0491 21.2314 20.3139C21.2129 20.5835 21.1799 20.6684 21.1686 20.6905C21.0321 20.9592 20.748 21.12 20.4473 21.0989C20.4226 21.0971 20.3328 21.0818 20.0921 20.9589C19.8557 20.8383 19.5516 20.6563 19.1023 20.3868L19.0603 20.3615C18.5754 20.0706 18.2768 19.8914 17.9601 19.7499C17.4346 19.5152 16.8768 19.3607 16.3054 19.2916C15.961 19.2499 15.6128 19.25 15.0473 19.25L10 19.25C8.58749 19.25 7.57322 19.2494 6.77708 19.1844C5.9897 19.12 5.48197 18.9964 5.07054 18.7868C4.27085 18.3793 3.62068 17.7291 3.21322 16.9295C3.00359 16.518 2.87996 16.0103 2.81563 15.2229C2.75058 14.4268 2.75 13.4125 2.75 12V10C2.75 8.58749 2.75058 7.57322 2.81563 6.77708C2.87996 5.9897 3.00359 5.48197 3.21322 5.07054C3.62068 4.27085 4.27085 3.62068 5.07054 3.21322Z"/>
</svg>
