<svg width="24" height="24" viewBox="0 0 24 24" xmlns="http://www.w3.org/2000/svg">
<path d="M7.13418 10.7616C6.86461 10.4471 6.39113 10.4107 6.07664 10.6802C5.76214 10.9498 5.72572 11.4233 5.99529 11.7378L7.07755 13.0004L5.99529 14.2631C5.72572 14.5775 5.76214 15.051 6.07664 15.3206C6.39113 15.5902 6.86461 15.5537 7.13418 15.2392L8.06536 14.1529L8.99654 15.2392C9.26611 15.5537 9.73958 15.5902 10.0541 15.3206C10.3686 15.051 10.405 14.5775 10.1354 14.2631L9.05317 13.0004L10.1354 11.7378C10.405 11.4233 10.3686 10.9498 10.0541 10.6802C9.73958 10.4107 9.26611 10.4471 8.99654 10.7616L8.06536 11.848L7.13418 10.7616Z"/>
<path fill-rule="evenodd" clip-rule="evenodd" d="M5.2475 4.99708C5.2475 3.47784 6.47909 2.24625 7.99833 2.24625H15.0012C15.0012 2.24625 15.912 2.24625 17.1182 3.05216C17.5 3.2684 19.9473 5.88126 19.9473 5.88126C20.4631 6.39693 20.7533 7.09657 20.7533 7.82626V19.0029C20.7533 20.5222 19.5217 21.7537 18.0025 21.7537H7.99833C6.47909 21.7537 5.2475 20.5222 5.2475 19.0029V18.6777C3.53519 18.3308 2.24625 16.8172 2.24625 15.0025V10.9983C2.24625 9.18367 3.53519 7.67006 5.2475 7.32309V4.99708ZM6.7475 4.99708C6.7475 4.30627 7.30751 3.74625 7.99833 3.74625H14.2512V6.99792C14.2512 7.96464 15.0349 8.74833 16.0017 8.74833H19.2533V19.0029C19.2533 19.6937 18.6933 20.2537 18.0025 20.2537H7.99833C7.30751 20.2537 6.7475 19.6937 6.7475 19.0029V18.7525H10.0004C12.0715 18.7525 13.7504 17.0736 13.7504 15.0025V10.9983C13.7504 8.92727 12.0715 7.24833 10.0004 7.24833H6.7475V4.99708ZM16.0017 7.24833C15.8634 7.24833 15.7512 7.13622 15.7512 6.99792V3.88796C15.8631 3.94632 15.9666 4.02181 16.0575 4.11274L18.8868 6.942C18.9777 7.03291 19.0533 7.13643 19.1116 7.24833H16.0017ZM5.99624 17.2525H10.0004C11.2431 17.2525 12.2504 16.2451 12.2504 15.0025V10.9983C12.2504 9.75569 11.2431 8.74833 10.0004 8.74833H5.99664C4.754 8.74833 3.74625 9.75569 3.74625 10.9983V15.0025C3.74625 16.2451 4.7536 17.2525 5.99624 17.2525Z"/>
</svg>
