<svg width="16" height="16" viewBox="0 0 16 16" xmlns="http://www.w3.org/2000/svg">
<path d="M8 6.73333C8.33137 6.73333 8.6 7.00196 8.6 7.33333V9.8848L9.2424 9.2424C9.47672 9.00808 9.85661 9.00808 10.0909 9.2424C10.3252 9.47671 10.3252 9.85661 10.0909 10.0909L8.42426 11.7576C8.31174 11.8701 8.15913 11.9333 8 11.9333C7.84087 11.9333 7.68826 11.8701 7.57574 11.7576L5.90907 10.0909C5.67475 9.85661 5.67475 9.47671 5.90907 9.2424C6.14338 9.00808 6.52328 9.00808 6.7576 9.2424L7.4 9.8848V7.33333C7.4 7.00196 7.66863 6.73333 8 6.73333Z"/>
<path fill-rule="evenodd" clip-rule="evenodd" d="M9.47074 0.826583C9.04933 0.733145 8.61007 0.733211 7.92218 0.733314L7.82764 0.73332C6.98464 0.733317 6.31798 0.733314 5.77967 0.774083C5.22991 0.81572 4.76536 0.902392 4.33748 1.10195C3.49956 1.49274 2.82608 2.16621 2.43529 3.00413C2.23574 3.43201 2.14907 3.89656 2.10743 4.44632C2.06666 4.98463 2.06666 5.65129 2.06667 6.49429V9.35981C2.06666 10.2708 2.06666 10.9912 2.11407 11.5715C2.16252 12.1645 2.26344 12.6638 2.49537 13.119C2.87248 13.8591 3.4742 14.4608 4.2143 14.8379C4.6695 15.0699 5.16887 15.1708 5.76181 15.2192C6.34214 15.2667 7.06254 15.2667 7.97353 15.2667H8.02647C8.93746 15.2667 9.65785 15.2667 10.2382 15.2192C10.8311 15.1708 11.3305 15.0699 11.7857 14.8379C12.5258 14.4608 13.1275 13.8591 13.5046 13.119C13.7366 12.6638 13.8375 12.1645 13.8859 11.5715C13.9333 10.9912 13.9333 10.2708 13.9333 9.35979L13.9333 6.80013C13.9335 6.0572 13.9335 5.58268 13.8247 5.12915C13.7283 4.7278 13.5694 4.34413 13.3537 3.9922C13.11 3.59452 12.7744 3.25904 12.249 2.73379L11.8935 2.37829C11.4072 1.89181 11.0966 1.58116 10.7326 1.34925C10.3457 1.10278 9.91861 0.925888 9.47074 0.826583ZM8.73333 1.9432C8.52428 1.93418 8.25085 1.93332 7.85212 1.93332C6.97923 1.93332 6.35798 1.93372 5.87029 1.97066C5.38887 2.00712 5.08664 2.07664 4.84469 2.18948C4.26241 2.46105 3.7944 2.92906 3.52283 3.51134C3.40999 3.75329 3.34046 4.05552 3.304 4.53695C3.26707 5.02463 3.26667 5.64589 3.26667 6.51877V9.33332C3.26667 10.2766 3.26713 10.948 3.31009 11.4738C3.35247 11.9925 3.43321 12.3164 3.56458 12.5742C3.82664 13.0885 4.24478 13.5067 4.75909 13.7687C5.01693 13.9001 5.3408 13.9808 5.85953 14.0232C6.38527 14.0662 7.05668 14.0667 8 14.0667C8.94332 14.0667 9.61473 14.0662 10.1405 14.0232C10.6592 13.9808 10.9831 13.9001 11.2409 13.7687C11.7552 13.5067 12.1734 13.0885 12.4354 12.5742C12.5668 12.3164 12.6475 11.9925 12.6899 11.4738C12.7329 10.948 12.7333 10.2766 12.7333 9.33332V6.87579C12.7333 6.45091 12.7324 6.15778 12.7222 5.93334H11.4431C11.0898 5.93335 10.789 5.93336 10.5421 5.91318C10.2826 5.89198 10.0302 5.84556 9.78895 5.72262C9.42517 5.53726 9.12941 5.2415 8.94405 4.87772C8.82111 4.63643 8.77469 4.38404 8.75349 4.1246C8.73331 3.87764 8.73332 3.57686 8.73333 3.22361L8.73333 1.9432ZM12.3968 4.73334C12.3756 4.6948 12.3536 4.65674 12.3305 4.6192C12.1701 4.35745 11.9437 4.12552 11.347 3.52882L11.0945 3.27637C10.5421 2.72395 10.3275 2.51398 10.0878 2.36134C10.0373 2.32914 9.98576 2.29865 9.93333 2.26991V3.20001C9.93333 3.58328 9.9338 3.83464 9.94951 4.02688C9.96464 4.21211 9.99088 4.28901 10.0133 4.33293C10.0836 4.47092 10.1958 4.5831 10.3337 4.65341C10.3777 4.67579 10.4546 4.70203 10.6398 4.71717C10.832 4.73287 11.0834 4.73334 11.4667 4.73334H12.3968Z"/>
</svg>
