<svg width="16" height="16" viewBox="0 0 16 16" xmlns="http://www.w3.org/2000/svg">
<path fill-rule="evenodd" clip-rule="evenodd" d="M7.70047 0.583359H8.2998C9.39194 0.583353 10.2574 0.583349 10.9551 0.640347C11.6685 0.698633 12.2721 0.820241 12.8233 1.10108C13.717 1.55648 14.4437 2.28313 14.8991 3.1769C15.1799 3.72808 15.3015 4.3317 15.3598 5.04509C15.4168 5.7427 15.4168 6.60819 15.4168 7.70031V8.29971C15.4168 9.39185 15.4168 10.2573 15.3598 10.955C15.3015 11.6683 15.1799 12.272 14.8991 12.8231C14.4437 13.7169 13.717 14.4436 12.8233 14.899C12.2721 15.1798 11.6685 15.3014 10.9551 15.3597C10.2574 15.4167 9.39194 15.4167 8.29979 15.4167H7.7005C6.60834 15.4167 5.74283 15.4167 5.0452 15.3597C4.33181 15.3014 3.72819 15.1798 3.17701 14.899C2.28324 14.4436 1.55658 13.7169 1.10119 12.8231C0.820348 12.272 0.69874 11.6683 0.640454 10.955C0.583456 10.2573 0.58346 9.39184 0.583466 8.2997V7.70036C0.58346 6.60822 0.583456 5.74271 0.640454 5.04509C0.69874 4.3317 0.820348 3.72808 1.10119 3.1769C1.55658 2.28313 2.28324 1.55648 3.17701 1.10108C3.72819 0.820241 4.33181 0.698633 5.0452 0.640347C5.74282 0.583349 6.60833 0.583353 7.70047 0.583359ZM5.86365 4.803C5.57076 4.51011 5.09588 4.51011 4.80299 4.803C4.5101 5.0959 4.5101 5.57077 4.80299 5.86366L6.93933 8L4.80299 10.1363C4.5101 10.4292 4.5101 10.9041 4.80299 11.197C5.09588 11.4899 5.57076 11.4899 5.86365 11.197L7.99999 9.06066L10.1363 11.197C10.4292 11.4899 10.9041 11.4899 11.197 11.197C11.4899 10.9041 11.4899 10.4292 11.197 10.1363L9.06065 8L11.197 5.86366C11.4899 5.57077 11.4899 5.0959 11.197 4.803C10.9041 4.51011 10.4292 4.51011 10.1363 4.803L7.99999 6.93934L5.86365 4.803Z"/>
</svg>
