<svg width="16" height="16" viewBox="0 0 16 16" xmlns="http://www.w3.org/2000/svg">
<path fill-rule="evenodd" clip-rule="evenodd" d="M7.70047 0.583359H8.2998C9.39194 0.583353 10.2574 0.583349 10.9551 0.640347C11.6685 0.698633 12.2721 0.820241 12.8233 1.10108C13.717 1.55648 14.4437 2.28313 14.8991 3.1769C15.1799 3.72808 15.3015 4.3317 15.3598 5.04509C15.4168 5.7427 15.4168 6.60819 15.4168 7.70031V8.29971C15.4168 9.39185 15.4168 10.2573 15.3598 10.955C15.3015 11.6683 15.1799 12.272 14.8991 12.8231C14.4437 13.7169 13.717 14.4436 12.8233 14.899C12.2721 15.1798 11.6685 15.3014 10.9551 15.3597C10.2574 15.4167 9.39194 15.4167 8.29979 15.4167H7.7005C6.60834 15.4167 5.74283 15.4167 5.0452 15.3597C4.33181 15.3014 3.72819 15.1798 3.17701 14.899C2.28324 14.4436 1.55658 13.7169 1.10119 12.8231C0.820348 12.272 0.69874 11.6683 0.640454 10.955C0.583456 10.2573 0.58346 9.39184 0.583466 8.2997V7.70036C0.58346 6.60822 0.583456 5.74271 0.640454 5.04509C0.69874 4.3317 0.820348 3.72808 1.10119 3.1769C1.55658 2.28313 2.28324 1.55648 3.17701 1.10108C3.72819 0.820241 4.33181 0.698633 5.0452 0.640347C5.74282 0.583349 6.60833 0.583353 7.70047 0.583359ZM11.8636 6.53034C12.1565 6.23744 12.1565 5.76257 11.8636 5.46968C11.5708 5.17678 11.0959 5.17678 10.803 5.46968L7.33332 8.93935L6.19698 7.80301C5.90409 7.51012 5.42922 7.51012 5.13632 7.80301C4.84343 8.0959 4.84343 8.57078 5.13632 8.86367L6.80299 10.5303C6.94364 10.671 7.13441 10.75 7.33332 10.75C7.53223 10.75 7.723 10.671 7.86365 10.5303L11.8636 6.53034Z"/>
</svg>
