<svg width="24" height="24" viewBox="0 0 24 24" xmlns="http://www.w3.org/2000/svg">
<path fill-rule="evenodd" clip-rule="evenodd" d="M12.0336 1.25H11.9664C10.5947 1.25 9.51929 1.24999 8.65494 1.32061C7.77479 1.39252 7.04769 1.54138 6.38955 1.87671C5.30762 2.42798 4.42798 3.30762 3.87671 4.38955C3.54138 5.04768 3.39252 5.77479 3.32061 6.65494C3.24999 7.51929 3.25 8.59472 3.25 9.96644V22C3.25 22.2599 3.38459 22.5013 3.6057 22.638C3.82681 22.7746 4.10292 22.7871 4.33541 22.6708L6.61108 21.533C8.74886 20.4641 9.68979 20.0012 10.6631 19.8186C11.5467 19.6528 12.4533 19.6528 13.3369 19.8186C14.3102 20.0012 15.2511 20.4641 17.3889 21.533L19.6646 22.6708C19.8971 22.7871 20.1732 22.7746 20.3943 22.638C20.6154 22.5013 20.75 22.2599 20.75 22V9.96642C20.75 8.59473 20.75 7.51927 20.6794 6.65494C20.6075 5.77479 20.4586 5.04768 20.1233 4.38956C19.572 3.30762 18.6924 2.42798 17.6104 1.87671C16.9523 1.54138 16.2252 1.39252 15.3451 1.32061C14.4807 1.24999 13.4053 1.25 12.0336 1.25ZM15.7803 9.53033C16.0732 9.23744 16.0732 8.76256 15.7803 8.46967C15.4874 8.17678 15.0126 8.17678 14.7197 8.46967L10.75 12.4393L9.28033 10.9697C8.98744 10.6768 8.51256 10.6768 8.21967 10.9697C7.92678 11.2626 7.92678 11.7374 8.21967 12.0303L10.2197 14.0303C10.5126 14.3232 10.9874 14.3232 11.2803 14.0303L15.7803 9.53033Z"/>
</svg>
