<svg width="24" height="24" viewBox="0 0 24 24" xmlns="http://www.w3.org/2000/svg">
<path fill-rule="evenodd" clip-rule="evenodd" d="M8.62963 11H5.37037C4.06074 11 3 9.93926 3 8.62963V5.37037C3 4.06074 4.06074 3 5.37037 3H8.62963C9.93926 3 11 4.06074 11 5.37037V8.62963C11 9.93926 9.93926 11 8.62963 11Z"/>
<path fill-rule="evenodd" clip-rule="evenodd" d="M18.6296 11H15.3704C14.0607 11 13 9.93926 13 8.62963V5.37037C13 4.06074 14.0607 3 15.3704 3H18.6296C19.9393 3 21 4.06074 21 5.37037V8.62963C21 9.93926 19.9393 11 18.6296 11Z"/>
<path fill-rule="evenodd" clip-rule="evenodd" d="M8.62963 21H5.37037C4.06074 21 3 19.9393 3 18.6296V15.3704C3 14.0607 4.06074 13 5.37037 13H8.62963C9.93926 13 11 14.0607 11 15.3704V18.6296C11 19.9393 9.93926 21 8.62963 21Z"/>
<path fill-rule="evenodd" clip-rule="evenodd" d="M18.6296 21H15.3704C14.0607 21 13 19.9393 13 18.6296V15.3704C13 14.0607 14.0607 13 15.3704 13H18.6296C19.9393 13 21 14.0607 21 15.3704V18.6296C21 19.9393 19.9393 21 18.6296 21Z"/>
</svg>
