<svg width="24" height="24" viewBox="0 0 24 24" xmlns="http://www.w3.org/2000/svg">
<path d="M8 4C8 3.44772 8.44772 3 9 3H20C20.5523 3 21 3.44772 21 4V5C21 5.55228 20.5523 6 20 6H9C8.44772 6 8 5.55228 8 5V4Z"/>
<path d="M3 4C3 3.44772 3.44772 3 4 3H5C5.55228 3 6 3.44772 6 4V5C6 5.55228 5.55228 6 5 6H4C3.44772 6 3 5.55228 3 5V4Z"/>
<path d="M8 9C8 8.44772 8.44772 8 9 8H20C20.5523 8 21 8.44772 21 9V10C21 10.5523 20.5523 11 20 11H9C8.44772 11 8 10.5523 8 10V9Z"/>
<path d="M3 9C3 8.44772 3.44772 8 4 8H5C5.55228 8 6 8.44772 6 9V10C6 10.5523 5.55228 11 5 11H4C3.44772 11 3 10.5523 3 10V9Z"/>
<path d="M8 14C8 13.4477 8.44772 13 9 13H20C20.5523 13 21 13.4477 21 14V15C21 15.5523 20.5523 16 20 16H9C8.44772 16 8 15.5523 8 15V14Z"/>
<path d="M3 14C3 13.4477 3.44772 13 4 13H5C5.55228 13 6 13.4477 6 14V15C6 15.5523 5.55228 16 5 16H4C3.44772 16 3 15.5523 3 15V14Z"/>
<path d="M8 19C8 18.4477 8.44772 18 9 18H20C20.5523 18 21 18.4477 21 19V20C21 20.5523 20.5523 21 20 21H9C8.44772 21 8 20.5523 8 20V19Z"/>
<path d="M3 19C3 18.4477 3.44772 18 4 18H5C5.55228 18 6 18.4477 6 19V20C6 20.5523 5.55228 21 5 21H4C3.44772 21 3 20.5523 3 20V19Z"/>
</svg>
