<svg width="24" height="24" viewBox="0 0 24 24" xmlns="http://www.w3.org/2000/svg">
<path fill-rule="evenodd" clip-rule="evenodd" d="M11.467 1.25H12C12.4142 1.25 12.75 1.58579 12.75 2C12.75 2.41421 12.4142 2.75 12 2.75H11.5C9.85498 2.75 8.66506 2.75055 7.72832 2.82499C6.79997 2.89876 6.18463 3.04157 5.67798 3.29142C4.64146 3.80257 3.80257 4.64146 3.29142 5.67798C3.04157 6.18463 2.89876 6.79997 2.82499 7.72832C2.75055 8.66506 2.75 9.85498 2.75 11.5V12.4C2.75 14.0925 2.75058 15.3168 2.82925 16.2797C2.85156 16.5527 2.87983 16.7993 2.91502 17.0243L6.26144 13.6779C6.63404 13.3053 6.94526 12.9941 7.22044 12.7602C7.50762 12.5162 7.80365 12.3134 8.15936 12.1961C8.70561 12.0159 9.2946 12.0116 9.84344 12.1836C10.2008 12.2957 10.4998 12.4941 10.7906 12.7338C11.0692 12.9636 11.385 13.2702 11.763 13.6372L14.4783 16.2735L15.0404 15.7114C15.4183 15.3335 15.7337 15.0181 16.0124 14.7815C16.303 14.5348 16.6027 14.33 16.9627 14.213C17.515 14.0336 18.11 14.0336 18.6623 14.213C19.0223 14.33 19.3219 14.5347 19.6125 14.7814C19.8911 15.0179 20.2064 15.3332 20.5841 15.7109L21.1728 16.2996L21.175 16.2717C21.2494 15.3349 21.25 14.145 21.25 12.5V12C21.25 11.5858 21.5858 11.25 22 11.25C22.4142 11.25 22.75 11.5858 22.75 12V12.5329C22.75 14.1381 22.75 15.3874 22.6703 16.3905C22.5894 17.4088 22.4228 18.2374 22.0539 18.9854C21.3967 20.3181 20.3181 21.3967 18.9854 22.0539C18.2374 22.4228 17.4088 22.5894 16.3905 22.6703C15.3874 22.75 14.1381 22.75 12.5329 22.75H11.566C9.91466 22.75 8.6292 22.75 7.59814 22.6658C6.55124 22.5802 5.70065 22.4041 4.93556 22.0143C3.66547 21.3671 2.63285 20.3345 1.98571 19.0644L1.96731 19.028C1.82878 18.8882 1.75648 18.7076 1.75042 18.5251C1.5201 17.9002 1.40022 17.2095 1.33424 16.4019C1.24999 15.3708 1.25 14.0854 1.25 12.4339V11.467C1.25 9.86193 1.24999 8.61258 1.3297 7.6095C1.41062 6.59116 1.57719 5.76264 1.94611 5.01455C2.60331 3.68188 3.68188 2.60331 5.01455 1.94611C5.76264 1.57719 6.59116 1.41062 7.6095 1.3297C8.61258 1.24999 9.86193 1.25 11.467 1.25ZM5.61655 20.6778C4.70664 20.2142 3.95344 19.4962 3.4469 18.6138L7.30077 14.7599C7.70022 14.3604 7.96853 14.0929 8.19177 13.9032C8.40824 13.7193 8.53336 13.6522 8.6292 13.6206C8.8775 13.5387 9.14522 13.5367 9.3947 13.6149C9.49099 13.6451 9.61709 13.7104 9.83625 13.8911C10.0623 14.0775 10.3345 14.341 10.7398 14.7345L13.9597 17.8607L17.1652 21.0662C16.9018 21.1127 16.6072 21.1483 16.2717 21.175C15.3349 21.2494 14.145 21.25 12.5 21.25H11.6C9.90747 21.25 8.68317 21.2494 7.72029 21.1707C6.76615 21.0928 6.13493 20.9419 5.61655 20.6778ZM20.7086 18.322C20.2636 19.2244 19.5702 19.9769 18.7143 20.4939L15.5468 17.3264L16.0796 16.7936C16.4845 16.3886 16.7567 16.1172 16.9832 15.925C17.2029 15.7385 17.3296 15.671 17.4262 15.6396C17.6773 15.558 17.9477 15.558 18.1988 15.6396C18.2954 15.671 18.4221 15.7385 18.6417 15.9249C18.8681 16.117 19.1402 16.3883 19.5449 16.7931L20.8207 18.0689C20.786 18.1566 20.7487 18.2407 20.7086 18.322Z"/>
<path d="M18.75 3C18.75 2.58579 18.4142 2.25 18 2.25C17.5858 2.25 17.25 2.58579 17.25 3V5.25H15C14.5858 5.25 14.25 5.58579 14.25 6C14.25 6.41421 14.5858 6.75 15 6.75H17.25V9C17.25 9.41421 17.5858 9.75 18 9.75C18.4142 9.75 18.75 9.41421 18.75 9V6.75H21C21.4142 6.75 21.75 6.41421 21.75 6C21.75 5.58579 21.4142 5.25 21 5.25H18.75V3Z"/>
</svg>
