<svg width="24" height="24" viewBox="0 0 24 24" xmlns="http://www.w3.org/2000/svg">
<path fill-rule="evenodd" clip-rule="evenodd" d="M8.07047 2.24625C6.55123 2.24625 5.31964 3.47784 5.31964 4.99708V7.32309C3.60734 7.67006 2.31839 9.18367 2.31839 10.9983V15.0025C2.31839 16.8172 3.60734 18.3308 5.31964 18.6777V19.0029C5.31964 20.5222 6.55123 21.7537 8.07047 21.7537H18.0746C19.5939 21.7537 20.8255 20.5222 20.8255 19.0029L20.8255 7.82626C20.8255 7.09657 20.5353 6.39693 20.0195 5.88126C20.0195 5.88126 17.5721 3.2684 17.1904 3.05216C15.9841 2.24625 15.0734 2.24625 15.0734 2.24625H8.07047ZM6.81964 4.99708C6.81964 4.30627 7.37966 3.74625 8.07047 3.74625H14.3234V6.99792C14.3234 7.96464 15.1071 8.74833 16.0738 8.74833H19.3255L19.3255 19.0029C19.3255 19.6937 18.7655 20.2537 18.0746 20.2537H8.07047C7.37966 20.2537 6.81964 19.6937 6.81964 19.0029V18.7525H7.00647C7.01487 18.7526 7.0233 18.7526 7.03175 18.7525H10.0726C12.1436 18.7525 13.8226 17.0736 13.8226 15.0025V11.9616C13.8227 11.9532 13.8227 11.9448 13.8226 11.9365V10.9983C13.8226 8.92727 12.1436 7.24833 10.0726 7.24833H6.81964V4.99708ZM6.20912 17.2535C4.57669 17.2525 3.81839 16.2304 3.81839 15.0025V10.9983C3.81839 9.75569 4.82614 8.74833 6.06879 8.74833H10.0726C11.3152 8.74833 12.3226 9.75569 12.3226 10.9983V11.139C10.858 11.1261 9.42688 11.6447 8.30443 12.6156C6.96193 13.7769 6.19615 15.4785 6.20912 17.2535C6.25681 17.2535 6.1639 17.2449 6.20912 17.2535ZM7.709 17.2336L7.70915 17.2525H10.0726C11.3152 17.2525 12.3226 16.2451 12.3226 15.0025V12.6391C11.2159 12.6261 10.1337 13.0166 9.28575 13.7501C8.27547 14.624 7.69915 15.8978 7.709 17.2336ZM16.0738 7.24833C15.9355 7.24833 15.8234 7.13622 15.8234 6.99792V3.88796C15.9353 3.94632 16.0387 4.02181 16.1296 4.11274L18.9589 6.942C19.0498 7.03291 19.1254 7.13643 19.1838 7.24833H16.0738Z"/>
<path fill-rule="evenodd" clip-rule="evenodd" d="M6.20912 17.2535C6.1639 17.2449 6.25681 17.2535 6.20912 17.2535V17.2535Z"/>
<path d="M7.232 11.1874C7.232 11.7572 6.77004 12.2192 6.2002 12.2192C5.63035 12.2192 5.1684 11.7572 5.1684 11.1874C5.1684 10.6176 5.63035 10.1556 6.2002 10.1556C6.77004 10.1556 7.232 10.6176 7.232 11.1874Z"/>
</svg>
