<svg width="24" height="24" viewBox="0 0 24 24" xmlns="http://www.w3.org/2000/svg">
<path d="M12 1.25C12.4142 1.25 12.75 1.58579 12.75 2V9.18934L14.4697 7.46967C14.7626 7.17678 15.2375 7.17678 15.5304 7.46967C15.8233 7.76256 15.8233 8.23744 15.5304 8.53033L12.5304 11.5303C12.2375 11.8232 11.7626 11.8232 11.4697 11.5303L8.4697 8.53033C8.17681 8.23744 8.17681 7.76256 8.4697 7.46967C8.76259 7.17678 9.23747 7.17678 9.53036 7.46967L11.25 9.18934V2C11.25 1.58579 11.5858 1.25 12 1.25Z"/>
<path fill-rule="evenodd" clip-rule="evenodd" d="M8.00003 3.75C6.56701 3.75 5.31128 4.70911 4.93421 6.09163L3.69004 10.6534C3.54801 11.1741 3.48297 11.4132 3.42944 11.6499C3.30996 12.1781 3.22907 12.7128 3.18683 13.25L5.38103 13.25C5.91533 13.2496 6.33541 13.2493 6.72859 13.3687C7.07451 13.4737 7.39633 13.6459 7.67562 13.8755C7.99307 14.1364 8.22583 14.4861 8.52188 14.9309L8.67391 15.159C9.04714 15.7189 9.15343 15.8645 9.27652 15.9657C9.40347 16.07 9.54975 16.1483 9.70699 16.1961C9.85944 16.2424 10.0396 16.25 10.7124 16.25H13.2873C13.9601 16.25 14.1403 16.2424 14.2927 16.1961C14.45 16.1483 14.5962 16.07 14.7232 15.9657C14.8463 15.8645 14.9526 15.7188 15.3258 15.159L15.4778 14.9309C15.7739 14.4861 16.0066 14.1364 16.3241 13.8755C16.6034 13.6459 16.9252 13.4737 17.2711 13.3687C17.6643 13.2493 18.0844 13.2496 18.6187 13.25L20.813 13.25C20.7708 12.7129 20.6899 12.1782 20.5704 11.65C20.5169 11.4134 20.4518 11.1742 20.3098 10.6534L19.0658 6.09163C18.6887 4.70912 17.433 3.75 16 3.75H15.5C15.0858 3.75 14.75 3.41421 14.75 3C14.75 2.58579 15.0858 2.25 15.5 2.25H16C18.1095 2.25 19.9579 3.66186 20.5129 5.69697L21.7623 10.2782C21.8976 10.7744 21.9718 11.0466 22.0335 11.3191C22.4321 13.0817 22.4516 14.9089 22.0905 16.6795C22.0346 16.9534 21.9662 17.227 21.8414 17.7261L21.8235 17.7977C21.6819 18.3646 21.5952 18.7113 21.4803 19.0179C20.7221 21.0408 18.8942 22.468 16.7478 22.7129C16.4225 22.7501 16.0651 22.75 15.4809 22.75H8.51891C7.93475 22.75 7.57732 22.7501 7.25204 22.7129C5.10563 22.4681 3.27758 21.0408 2.51946 19.0179C2.40456 18.7113 2.31791 18.3646 2.17625 17.7978L2.15824 17.7258C2.03356 17.227 1.96516 16.9535 1.90935 16.6798C1.54821 14.909 1.56766 13.0816 1.9664 11.3189C2.02804 11.0465 2.10223 10.7744 2.2375 10.2785L3.48707 5.69693C4.04213 3.66183 5.8906 2.25 8.00003 2.25H8.50003C8.91425 2.25 9.25003 2.58579 9.25003 3C9.25003 3.41421 8.91425 3.75 8.50003 3.75H8.00003ZM20.8306 14.75H18.7124C18.0396 14.75 17.8594 14.7576 17.707 14.8039C17.5497 14.8517 17.4035 14.93 17.2765 15.0343C17.1534 15.1355 17.0471 15.2812 16.6739 15.841L16.5219 16.0691C16.2258 16.5139 15.9931 16.8636 15.6756 17.1245C15.3963 17.3541 15.0745 17.5263 14.7286 17.6313C14.3354 17.7507 13.9153 17.7504 13.381 17.75H10.6187C10.0844 17.7504 9.66429 17.7507 9.27111 17.6313C8.92519 17.5263 8.60337 17.3541 8.32408 17.1245C8.00663 16.8636 7.77387 16.5139 7.47782 16.0691L7.32579 15.841C6.95256 15.2811 6.84627 15.1355 6.72318 15.0343C6.59623 14.93 6.44995 14.8517 6.29271 14.8039C6.14026 14.7576 5.9601 14.75 5.28726 14.75H3.16919C3.19924 15.2964 3.2692 15.8412 3.37909 16.38C3.42758 16.6178 3.48751 16.8582 3.61842 17.3818C3.77719 18.0169 3.84292 18.2749 3.92406 18.4915C4.48441 19.9867 5.83558 21.0416 7.42206 21.2226C7.65178 21.2488 7.91807 21.25 8.57267 21.25H15.427C16.0817 21.25 16.348 21.2488 16.5778 21.2226C18.1642 21.0416 19.5153 19.9867 20.0757 18.4915C20.1568 18.275 20.2226 18.0169 20.3814 17.3817C20.5123 16.858 20.5722 16.6176 20.6207 16.3798C20.7306 15.841 20.8005 15.2963 20.8306 14.75Z"/>
</svg>
