<svg width="24" height="24" viewBox="0 0 24 24" xmlns="http://www.w3.org/2000/svg">
<path d="M9.00005 6.25005C8.58584 6.25005 8.25005 6.58584 8.25005 7.00005C8.25005 7.41426 8.58584 7.75005 9.00005 7.75005H15.0001C15.4143 7.75005 15.7501 7.41426 15.7501 7.00005C15.7501 6.58584 15.4143 6.25005 15.0001 6.25005H9.00005Z"/>
<path d="M10.0001 10.25C9.58584 10.25 9.25005 10.5858 9.25005 11C9.25005 11.4143 9.58584 11.75 10.0001 11.75H14.0001C14.4143 11.75 14.7501 11.4143 14.7501 11C14.7501 10.5858 14.4143 10.25 14.0001 10.25H10.0001Z"/>
<path fill-rule="evenodd" clip-rule="evenodd" d="M11.0574 1.25002H12.9425C14.994 1.24962 16.2533 1.24937 17.3233 1.69892C18.266 2.09497 19.086 2.73521 19.6988 3.55366C20.3944 4.48268 20.6996 5.70449 21.1968 7.69483L21.8639 10.3636C21.9993 10.9053 22.0736 11.2024 22.1331 11.5003C22.4631 13.1505 22.4631 14.8496 22.1331 16.4998C22.0735 16.7977 21.9993 17.0949 21.8638 17.6366L21.8436 17.7174C21.6829 18.3606 21.5845 18.7541 21.4488 19.1001C20.6829 21.0523 18.9148 22.4328 16.8351 22.7023C16.4666 22.7501 16.061 22.7501 15.398 22.7501H8.60179C7.93891 22.7501 7.53325 22.7501 7.16474 22.7024C5.08495 22.4328 3.31686 21.0523 2.55095 19.1C2.41523 18.7541 2.31691 18.3607 2.15616 17.7175L2.13596 17.6367C2.00053 17.095 1.92626 16.7979 1.8667 16.5C1.53671 14.8497 1.53672 13.1504 1.86673 11.5001C1.92629 11.2022 2.00057 10.9051 2.13601 10.3634L2.80321 7.69463C3.30039 5.70435 3.60559 4.48258 4.30122 3.55359C4.91406 2.73516 5.73404 2.09494 6.67668 1.6989C7.74665 1.24937 9.00597 1.24962 11.0574 1.25002ZM11.2462 2.75005C8.94321 2.75005 8.0133 2.76435 7.25768 3.08181C6.56095 3.37453 5.95488 3.84774 5.50191 4.45266C5.01066 5.10872 4.77123 6.00739 4.21266 8.24158L3.59662 10.7056C3.45443 11.2743 3.38935 11.5354 3.33761 11.7942C3.24131 12.2758 3.17685 12.7621 3.14425 13.25L5.38108 13.25C5.91539 13.2496 6.33546 13.2493 6.72864 13.3687C7.07456 13.4738 7.39638 13.646 7.67567 13.8755C7.99312 14.1365 8.22588 14.4862 8.52193 14.9309L8.67397 15.1591C9.04719 15.7189 9.15348 15.8646 9.27657 15.9657C9.40352 16.0701 9.5498 16.1484 9.70704 16.1961C9.85949 16.2424 10.0396 16.25 10.7125 16.25H13.2873C13.9602 16.25 14.1403 16.2424 14.2928 16.1961C14.45 16.1484 14.5963 16.0701 14.7232 15.9657C14.8463 15.8646 14.9526 15.7189 15.3258 15.1591L15.4779 14.9309C15.7739 14.4862 16.0067 14.1365 16.3241 13.8755C16.6034 13.646 16.9252 13.4738 17.2712 13.3687C17.6643 13.2493 18.0844 13.2496 18.6187 13.25L20.8556 13.25C20.823 12.7622 20.7585 12.2759 20.6623 11.7944C20.6105 11.5356 20.5454 11.2745 20.4032 10.7057L19.7873 8.24175C19.2288 6.00749 18.9894 5.10879 18.4981 4.45272C18.0451 3.84777 17.4391 3.37455 16.7423 3.08182C15.9867 2.76435 15.0568 2.75005 12.7537 2.75005H11.2462ZM20.8556 14.75H18.7125C18.0396 14.75 17.8595 14.7577 17.707 14.804C17.5498 14.8517 17.4035 14.93 17.2766 15.0344C17.1535 15.1355 17.0472 15.2812 16.674 15.841L16.5219 16.0692C16.2259 16.5139 15.9931 16.8636 15.6757 17.1245C15.3964 17.3541 15.0746 17.5263 14.7286 17.6314C14.3355 17.7508 13.9154 17.7505 13.3811 17.7501H10.6187C10.0844 17.7505 9.66434 17.7508 9.27116 17.6314C8.92524 17.5263 8.60342 17.3541 8.32413 17.1245C8.00668 16.8636 7.77392 16.5139 7.47787 16.0692L7.32584 15.841C6.95261 15.2812 6.84632 15.1355 6.72323 15.0344C6.59628 14.93 6.45 14.8517 6.29276 14.804C6.14031 14.7577 5.96015 14.75 5.28731 14.75H3.14424C3.17684 15.238 3.24128 15.7243 3.33758 16.2059C3.38932 16.4647 3.45439 16.7258 3.59658 17.2945C3.77674 18.0152 3.85149 18.3079 3.94733 18.5522C4.51345 19.9952 5.8203 21.0156 7.35753 21.2148C7.61778 21.2485 7.91991 21.25 8.66275 21.25H15.3369C16.0799 21.25 16.382 21.2485 16.6423 21.2148C18.1795 21.0155 19.4863 19.9952 20.0524 18.5523C20.1483 18.3079 20.223 18.0152 20.4032 17.2944C20.5454 16.7256 20.6105 16.4645 20.6622 16.2057C20.7585 15.7242 20.823 15.2379 20.8556 14.75Z"/>
</svg>
