<svg width="24" height="24" viewBox="0 0 24 24" xmlns="http://www.w3.org/2000/svg">
<path fill-rule="evenodd" clip-rule="evenodd" d="M12.1504 1.05349C12.8967 0.936123 13.6521 1.20109 14.1615 1.75893C14.5446 2.1785 14.6493 2.78639 14.6983 3.36413C14.75 3.97423 14.75 4.78685 14.75 5.80373V7.6C14.75 8.03242 14.7506 8.31162 14.7679 8.52412C14.7846 8.72787 14.8128 8.80341 14.8317 8.84049C14.9037 8.98161 15.0184 9.09635 15.1595 9.16825C15.1966 9.18715 15.2721 9.21541 15.4759 9.23205C15.6884 9.24942 15.9676 9.25 16.4 9.25H17.0444C17.8115 9.24999 18.439 9.24998 18.924 9.29403C19.4032 9.33756 19.8961 9.4329 20.2827 9.74153C20.8183 10.169 21.1298 10.8172 21.1291 11.5024C21.1285 11.9971 20.8951 12.4416 20.6297 12.8429C20.3611 13.2492 19.9691 13.7392 19.4899 14.3382L14.8359 20.1557C14.2007 20.9498 13.693 21.5843 13.2715 22.0284C12.8723 22.4489 12.4109 22.8582 11.8496 22.9465C11.1033 23.0639 10.3479 22.7989 9.83853 22.2411C9.45538 21.8215 9.35072 21.2136 9.30173 20.6359C9.24999 20.0258 9.24999 19.2131 9.25 18.1962V16.4C9.25 15.9676 9.24942 15.6884 9.23205 15.4759C9.21541 15.2721 9.18715 15.1966 9.16826 15.1595C9.09635 15.0184 8.98162 14.9037 8.84049 14.8317C8.80341 14.8128 8.72787 14.7846 8.52412 14.7679C8.31162 14.7506 8.03241 14.75 7.6 14.75H6.95558C6.18852 14.75 5.56101 14.75 5.07597 14.706C4.5968 14.6624 4.10391 14.5671 3.71727 14.2585C3.18175 13.831 2.8702 13.1828 2.87094 12.4976C2.87147 12.0029 3.10493 11.5584 3.37028 11.1571C3.63888 10.7508 4.0309 10.2608 4.51009 9.6618L9.16406 3.84434C9.79931 3.05027 10.307 2.4157 10.7285 1.97161C11.1277 1.55107 11.5891 1.14177 12.1504 1.05349ZM13.0533 2.76991C12.8835 2.58431 12.632 2.49619 12.3835 2.53528C12.3835 2.53528 12.3841 2.53519 12.3835 2.53528C12.3835 2.53529 12.3419 2.54395 12.2449 2.61257C12.139 2.68747 12.0005 2.81031 11.8164 3.00428C11.4441 3.39653 10.976 3.98057 10.3116 4.81113L5.70507 10.5693C5.19642 11.2051 4.84798 11.6418 4.62154 11.9843C4.38745 12.3384 4.37097 12.4686 4.37094 12.4992C4.37069 12.7276 4.47454 12.9437 4.65305 13.0862C4.67693 13.1052 4.78893 13.1737 5.21166 13.2121C5.62056 13.2493 6.17927 13.25 6.9935 13.25H7.62892C8.02428 13.25 8.36535 13.25 8.64627 13.2729C8.94278 13.2972 9.23769 13.3506 9.52148 13.4952C9.94484 13.711 10.289 14.0552 10.5048 14.4785C10.6494 14.7623 10.7028 15.0572 10.7271 15.3537C10.75 15.6347 10.75 15.9757 10.75 16.3711L10.75 18.1581C10.75 19.2218 10.7507 19.9702 10.7964 20.5091C10.819 20.7756 10.8503 20.958 10.8862 21.0826C10.9178 21.1924 10.9446 21.2275 10.9466 21.2301C11.1164 21.4156 11.3679 21.5038 11.6164 21.4647C11.6164 21.4647 11.6581 21.4561 11.7551 21.3874C11.861 21.3125 11.9995 21.1897 12.1836 20.9957C12.5559 20.6035 13.024 20.0194 13.6884 19.1889L18.2949 13.4307C18.8036 12.7949 19.152 12.3582 19.3785 12.0157C19.6125 11.6616 19.629 11.5314 19.6291 11.5008C19.6293 11.2724 19.5255 11.0563 19.347 10.9138C19.3231 10.8948 19.2111 10.8263 18.7883 10.7879C18.3794 10.7507 17.8207 10.75 17.0065 10.75H16.3711C15.9757 10.75 15.6347 10.75 15.3537 10.7271C15.0572 10.7028 14.7623 10.6494 14.4785 10.5048C14.0552 10.289 13.711 9.94484 13.4952 9.52148C13.3506 9.23769 13.2972 8.94278 13.2729 8.64627C13.25 8.36535 13.25 8.02428 13.25 7.62892V5.84187C13.25 4.77823 13.2493 4.02978 13.2036 3.49089C13.181 3.22441 13.1497 3.04199 13.1138 2.91737C13.0821 2.80744 13.0553 2.77238 13.0533 2.76991Z"/>
</svg>
