<svg width="24" height="24" viewBox="0 0 24 24" xmlns="http://www.w3.org/2000/svg">
<path opacity="0.12" d="M13.5719 20.1192L14.2168 20.4416C16.4692 21.5678 17.5955 22.1309 18.3283 21.9349C18.9326 21.7732 19.4265 21.338 19.663 20.7588C19.7728 20.4899 19.7794 20.1497 19.699 19.6988L7.0841 7.08398C6.86242 7.12632 6.58573 7.15706 6.20476 7.19939C3.77054 7.46986 2.55343 7.6051 2.03966 8.20682C1.6996 8.60511 1.52933 9.12089 1.56543 9.64335C1.61997 10.4327 2.51735 11.266 4.31211 12.9325L4.453 13.0634C5.01938 13.5893 5.30257 13.8522 5.46416 14.1721C5.60025 14.4414 5.67363 14.7381 5.67879 15.0398C5.68492 15.3981 5.55697 15.7627 5.30107 16.492C4.46728 18.8683 4.05038 20.0565 4.33713 20.7588C4.57361 21.338 5.06747 21.7732 5.67182 21.9349C6.40465 22.131 7.53089 21.5678 9.78337 20.4416L10.4282 20.1192C11.0914 19.7876 11.423 19.6218 11.7756 19.582C11.9248 19.5651 12.0754 19.5651 12.2246 19.582C12.5771 19.6218 12.9087 19.7876 13.5719 20.1192Z"/>
<path d="M11.2717 0.820247C11.7485 0.689312 12.2517 0.689312 12.7284 0.820248C13.4361 1.01461 13.927 1.56908 14.3497 2.21838C14.9327 3.11404 15.386 4.09472 15.8631 5.04885C16.1997 5.72208 16.298 5.89752 16.4248 6.0225C16.5255 6.12179 16.6424 6.20327 16.7704 6.26346C16.9315 6.33922 17.1301 6.37085 17.8782 6.45398L17.9214 6.45877C19.1019 6.58993 20.0447 6.69468 20.7538 6.84523C21.454 6.99388 22.1028 7.21849 22.5308 7.71982C22.9984 8.26746 23.2325 8.97666 23.1829 9.69505C23.1375 10.3527 22.7499 10.9194 22.2759 11.4557C21.7957 11.9989 21.1006 12.6444 20.2301 13.4526L20.1984 13.4821C19.8026 13.8496 19.4007 14.2115 18.9915 14.5665C18.6787 14.8379 18.205 14.8043 17.9335 14.4914C17.6621 14.1785 17.6957 13.7048 18.0086 13.4334C18.4038 13.0906 18.7931 12.74 19.1777 12.3829C20.0871 11.5384 20.727 10.9431 21.152 10.4623C21.589 9.96794 21.6774 9.72335 21.6865 9.59165C21.709 9.26511 21.6026 8.94274 21.3901 8.69382C21.3044 8.59342 21.0877 8.44954 20.4423 8.31253C19.5115 8.1149 18.5527 8.03744 17.6083 7.93327C17.0147 7.86781 16.5476 7.81629 16.132 7.62085C15.8504 7.48843 15.5934 7.30918 15.3718 7.09074C15.0447 6.76834 14.8349 6.34785 14.5683 5.81352C14.102 4.87904 13.6634 3.91355 13.0926 3.03672C12.7153 2.45714 12.4837 2.30858 12.3311 2.26668C12.1144 2.20717 11.8857 2.20717 11.669 2.26668C11.5242 2.30644 11.3045 2.44331 10.9524 2.96885C10.6042 3.48853 10.215 4.24846 9.67077 5.33566C9.48535 5.70606 9.03477 5.85602 8.66438 5.6706C8.29398 5.48519 8.14402 5.03461 8.32944 4.66421C8.86007 3.6042 9.29405 2.74905 9.70625 2.13388C10.1145 1.52457 10.5925 1.0068 11.2717 0.820247Z"/>
<path fill-rule="evenodd" clip-rule="evenodd" d="M2.46973 2.46961C2.76263 2.17672 3.2375 2.17672 3.53039 2.46961L22.5304 21.4696C22.8233 21.7625 22.8233 22.2374 22.5304 22.5303C22.2375 22.8232 21.7626 22.8232 21.4697 22.5303L20.2374 21.2979C19.8808 21.9659 19.2616 22.4615 18.5221 22.6594C17.903 22.825 17.2368 22.6447 16.5683 22.3822C15.4236 21.9328 14.3356 21.3395 13.2365 20.79C12.5236 20.4335 12.3297 20.3486 12.1404 20.3272C12.0471 20.3167 11.953 20.3167 11.8598 20.3272C11.2498 20.3961 10.6302 20.8567 10.0827 21.1304C8.98699 21.6783 8.11795 22.1128 7.43182 22.3822C6.76333 22.6447 6.09707 22.825 5.47797 22.6594C4.64699 22.4371 3.96793 21.8387 3.64278 21.0423C3.40053 20.449 3.4956 19.7653 3.67183 19.0691C3.85272 18.3545 4.17443 17.4377 4.58006 16.2817L4.59338 16.2437C4.86881 15.4587 4.93218 15.2443 4.9289 15.0526C4.92567 14.864 4.87981 14.6786 4.79476 14.5103C4.7083 14.3392 4.55228 14.179 3.94267 13.613C3.18837 12.9125 2.40688 12.2279 1.72426 11.4557C1.25019 10.9194 0.862655 10.3527 0.817215 9.69504C0.767578 8.97666 1.0017 8.26746 1.46929 7.71982C1.89733 7.21849 2.5461 6.99388 3.24629 6.84523C3.82828 6.72167 4.56766 6.62897 5.46666 6.52719L2.46973 3.53027C2.17684 3.23738 2.17684 2.7625 2.46973 2.46961ZM6.82217 7.88271C5.7347 8.02256 4.63198 8.08448 3.5578 8.31253C2.91243 8.44954 2.69577 8.59342 2.61004 8.69382C2.3975 8.94274 2.29108 9.26511 2.31365 9.59165C2.32275 9.72335 2.41117 9.96794 2.84812 10.4623C3.52363 11.2264 4.30209 11.9009 5.04921 12.5934C5.5314 13.0404 5.90995 13.3912 6.13357 13.8338C6.32069 14.2042 6.42158 14.6121 6.42868 15.0269C6.43717 15.5227 6.26585 16.0096 6.04762 16.6298C6.03482 16.6662 6.02187 16.703 6.00878 16.7403C5.58688 17.9427 5.28831 18.7959 5.12597 19.4372C4.95699 20.1047 4.98699 20.3663 5.03149 20.4753C5.17929 20.8373 5.48796 21.1093 5.86567 21.2104C5.97941 21.2408 6.24268 21.2376 6.88364 20.986C8.0204 20.5397 9.10056 19.9456 10.1917 19.3988C10.7575 19.1153 11.2036 18.8918 11.6914 18.8367C11.8965 18.8135 12.1036 18.8135 12.3087 18.8367C12.7965 18.8918 13.2427 19.1153 13.8085 19.3989C14.0563 19.523 14.3043 19.6468 14.5522 19.7708C15.6919 20.3406 16.5007 20.7442 17.1165 20.986C17.7574 21.2376 18.0207 21.2408 18.1344 21.2104C18.5122 21.1093 18.8208 20.8373 18.9686 20.4753C18.9926 20.4165 19.018 20.2968 18.9927 20.0532L6.82217 7.88271Z"/>
</svg>
