<svg width="24" height="24" viewBox="0 0 24 24" xmlns="http://www.w3.org/2000/svg">
<path opacity="0.12" d="M13.5 2H11C7.25027 2 5.3754 2 4.06107 2.95491C3.6366 3.26331 3.26331 3.6366 2.95491 4.06107C2 5.3754 2 7.25027 2 11C2 14.7497 2 16.6246 2.95491 17.9389C3.26331 18.3634 3.6366 18.7367 4.06107 19.0451C4.23667 19.1727 4.42228 19.2832 4.62103 19.379L20.5355 3.46447C20.2585 3.18742 19.9489 2.94294 19.6125 2.7368C18.4101 2 16.7734 2 13.5 2Z"/>
<path fill-rule="evenodd" clip-rule="evenodd" d="M23.0303 0.96967C23.3232 1.26256 23.3232 1.73744 23.0303 2.03033L2.53033 22.5303C2.23744 22.8232 1.76256 22.8232 1.46967 22.5303C1.17678 22.2374 1.17678 21.7626 1.46967 21.4697L3.43032 19.509C3.03727 19.2025 2.70552 18.8707 2.39324 18.4408C1.80918 17.637 1.53494 16.68 1.39698 15.5004C1.26027 14.3314 1.25 12.8632 1.25 11L1.25 10.9548C1.24999 9.11821 1.24999 7.67861 1.37373 6.53648C1.50001 5.37094 1.76232 4.42656 2.34815 3.62023C2.70281 3.13209 3.13209 2.70281 3.62024 2.34815C4.42656 1.76232 5.37094 1.50001 6.53648 1.37373C7.67861 1.24999 9.11821 1.24999 10.9547 1.25H13.5394C15.1427 1.24999 16.3997 1.24999 17.4039 1.34547C18.4274 1.44279 19.2655 1.64457 20.0044 2.09732C20.1761 2.20256 20.3418 2.3165 20.5008 2.43854L21.9697 0.96967C22.2626 0.676777 22.7374 0.676777 23.0303 0.96967ZM19.4277 3.51163C19.3601 3.46458 19.2911 3.41944 19.2206 3.37628C18.7571 3.09223 18.1757 2.92561 17.2619 2.83873C16.337 2.75079 15.1512 2.75 13.5 2.75H11C9.10843 2.75 7.74999 2.75103 6.69805 2.865C5.66013 2.97745 5.00992 3.19259 4.50191 3.56168C4.14111 3.82382 3.82382 4.14111 3.56168 4.50191C3.19259 5.00992 2.97745 5.66013 2.865 6.69805C2.75103 7.74999 2.75 9.10843 2.75 11C2.75 12.8865 2.76227 14.2612 2.88683 15.3262C3.01014 16.3805 3.2359 17.0487 3.60676 17.5592C3.86211 17.9106 4.13097 18.1688 4.50139 18.4379L19.4277 3.51163Z"/>
<path fill-rule="evenodd" clip-rule="evenodd" d="M21.9273 6.25004C22.3415 6.2456 22.6808 6.57776 22.6853 6.99195L21.1854 7.00805C21.1809 6.59386 21.5131 6.25449 21.9273 6.25004ZM21.1854 7.00805L21.1955 7.99534C21.2015 8.60645 21.2096 9.45221 21.2177 10.3909C21.2339 12.2691 21.25 14.5162 21.25 16V19.1708C21.25 19.6948 21.2496 20.0491 21.2314 20.3139C21.2129 20.5835 21.1799 20.6684 21.1686 20.6905C21.0321 20.9592 20.748 21.12 20.4473 21.0989C20.4226 21.0971 20.3328 21.0818 20.0921 20.9589C19.8557 20.8383 19.5517 20.6563 19.1023 20.3868L19.0604 20.3616C18.5755 20.0706 18.2768 19.8914 17.9601 19.7499C17.4346 19.5152 16.8768 19.3607 16.3054 19.2916C15.961 19.2499 15.6128 19.25 15.0473 19.25L14.9983 19.25C14.27 19.25 13.5447 19.2529 12.8212 19.2558C11.3807 19.2616 9.94695 19.2673 8.50899 19.2501C8.09481 19.2451 7.75502 19.5768 7.75005 19.991C7.74509 20.4052 8.07683 20.745 8.49101 20.7499C9.94045 20.7673 11.3957 20.7615 12.8437 20.7557C13.5642 20.7529 14.2829 20.75 14.9983 20.75C15.6277 20.75 15.8814 20.7512 16.1253 20.7807C16.5477 20.8318 16.9599 20.946 17.3484 21.1195C17.5727 21.2197 17.7908 21.3492 18.3306 21.673L18.3538 21.6869C18.774 21.9391 19.1224 22.1481 19.4102 22.295C19.699 22.4424 20.0084 22.5717 20.342 22.5952C21.2439 22.6586 22.0963 22.1761 22.5059 21.37C22.6574 21.0718 22.7057 20.74 22.7279 20.4165C22.75 20.0941 22.75 19.6879 22.75 19.1978V16C22.75 14.5089 22.7338 12.256 22.7176 10.378C22.7096 9.43848 22.7015 8.59204 22.6954 7.98047L22.6853 6.99306L22.6853 6.99195L21.1854 7.00805Z"/>
</svg>
