<svg width="24" height="24" viewBox="0 0 24 24" xmlns="http://www.w3.org/2000/svg">
<path opacity="0.1" d="M3 8.8C3 7.11984 3 6.27976 3.32698 5.63803C3.6146 5.07354 4.07354 4.6146 4.63803 4.32698C5.27976 4 6.11984 4 7.8 4H21V15.2C21 16.8802 21 17.7202 20.673 18.362C20.3854 18.9265 19.9265 19.3854 19.362 19.673C18.7202 20 17.8802 20 16.2 20H3V8.8Z"/>
<path d="M18.5303 0.46967C18.2374 0.176777 17.7626 0.176777 17.4697 0.46967C17.1768 0.762563 17.1768 1.23744 17.4697 1.53033L19.1893 3.25H7.7679C6.95506 3.24999 6.29944 3.24999 5.76853 3.29336C5.22189 3.33803 4.74175 3.43238 4.29754 3.65873C3.59193 4.01825 3.01825 4.59193 2.65873 5.29754C2.43238 5.74175 2.33803 6.2219 2.29336 6.76853C2.24999 7.29944 2.24999 7.95506 2.25 8.76789V10C2.25 10.4142 2.58579 10.75 3 10.75C3.41421 10.75 3.75 10.4142 3.75 10V8.8C3.75 7.94755 3.75058 7.35331 3.78838 6.89068C3.82546 6.4368 3.8946 6.17604 3.99524 5.97852C4.21095 5.55516 4.55516 5.21095 4.97852 4.99524C5.17604 4.8946 5.4368 4.82546 5.89068 4.78838C6.35331 4.75058 6.94755 4.75 7.8 4.75H19.1893L17.4697 6.46967C17.1768 6.76256 17.1768 7.23744 17.4697 7.53033C17.7626 7.82322 18.2374 7.82322 18.5303 7.53033L21.5303 4.53033C21.8232 4.23744 21.8232 3.76256 21.5303 3.46967L18.5303 0.46967Z"/>
<path d="M21.75 14C21.75 13.5858 21.4142 13.25 21 13.25C20.5858 13.25 20.25 13.5858 20.25 14V15.2C20.25 16.0525 20.2494 16.6467 20.2116 17.1093C20.1745 17.5632 20.1054 17.824 20.0048 18.0215C19.789 18.4448 19.4448 18.789 19.0215 19.0048C18.824 19.1054 18.5632 19.1745 18.1093 19.2116C17.6467 19.2494 17.0525 19.25 16.2 19.25H4.81066L6.53033 17.5303C6.82322 17.2374 6.82322 16.7626 6.53033 16.4697C6.23744 16.1768 5.76256 16.1768 5.46967 16.4697L2.46967 19.4697C2.17678 19.7626 2.17678 20.2374 2.46967 20.5303L5.46967 23.5303C5.76256 23.8232 6.23744 23.8232 6.53033 23.5303C6.82322 23.2374 6.82322 22.7626 6.53033 22.4697L4.81066 20.75H16.2321C17.0449 20.75 17.7006 20.75 18.2315 20.7066C18.7781 20.662 19.2582 20.5676 19.7025 20.3413C20.4081 19.9817 20.9817 19.4081 21.3413 18.7025C21.5676 18.2582 21.662 17.7781 21.7066 17.2315C21.75 16.7006 21.75 16.045 21.75 15.2321V14Z"/>
</svg>
