<svg width="24" height="24" viewBox="0 0 24 24" xmlns="http://www.w3.org/2000/svg">
<path opacity="0.12" d="M9.13784 2.43108C10.1873 1.90636 10.712 1.64399 11.2624 1.54073C11.7499 1.44927 12.2501 1.44927 12.7376 1.54073C13.288 1.64399 13.8127 1.90636 14.8622 2.43109L18.2757 4.13784C20.1181 5.05905 21.0393 5.51966 21.3349 6.14295C21.5922 6.68536 21.5922 7.31464 21.3349 7.85705C21.0393 8.48035 20.1181 8.94095 18.2757 9.86217L14.8622 11.5689C13.8127 12.0936 13.288 12.356 12.7376 12.4593C12.2501 12.5507 11.7499 12.5507 11.2624 12.4593C10.712 12.356 10.1873 12.0936 9.13783 11.5689L5.72433 9.86217C3.88191 8.94095 2.96069 8.48035 2.66508 7.85705C2.40782 7.31464 2.40782 6.68536 2.66508 6.14295C2.96069 5.51966 3.88191 5.05905 5.72434 4.13783L9.13784 2.43108Z"/>
<path fill-rule="evenodd" clip-rule="evenodd" d="M11.1241 0.803592C11.703 0.694986 12.297 0.694986 12.8759 0.803592C13.5308 0.926467 14.1441 1.23329 15.0964 1.70965L18.646 3.48445C19.5375 3.93023 20.2536 4.28825 20.7803 4.61453C21.3042 4.93905 21.7677 5.30525 22.0126 5.82156C22.3663 6.56737 22.3663 7.43263 22.0126 8.17844C21.7677 8.69475 21.3042 9.06096 20.7803 9.38547C20.2536 9.71176 19.5376 10.0697 18.646 10.5155L15.0964 12.2904C14.1442 12.7667 13.5308 13.0735 12.8759 13.1964C12.297 13.305 11.703 13.305 11.1241 13.1964C10.4692 13.0735 9.85586 12.7667 8.90363 12.2904L5.35406 10.5156C4.46243 10.0698 3.74644 9.71177 3.2197 9.38547C2.69582 9.06096 2.2323 8.69475 1.98743 8.17844C1.63371 7.43263 1.63371 6.56737 1.98743 5.82156C2.2323 5.30525 2.69582 4.93905 3.2197 4.61453C3.74643 4.28824 4.46241 3.93026 5.35402 3.48447L8.90361 1.70965C9.85585 1.23329 10.4692 0.926467 11.1241 0.803592ZM12.5993 2.27787C12.2032 2.20356 11.7968 2.20356 11.4007 2.27787C10.9778 2.35722 10.5616 2.55774 9.47324 3.1019L6.05974 4.80865C5.12516 5.27595 4.47113 5.6038 4.0096 5.88969C3.53836 6.18161 3.39347 6.35736 3.34272 6.46435C3.18194 6.80335 3.18194 7.19665 3.34272 7.53566C3.39347 7.64264 3.53836 7.8184 4.0096 8.11031C4.47113 8.3962 5.12516 8.72405 6.05974 9.19135L9.47324 10.8981C10.5616 11.4423 10.9778 11.6428 11.4007 11.7221C11.7968 11.7964 12.2032 11.7964 12.5993 11.7221C13.0222 11.6428 13.4384 11.4423 14.5268 10.8981L17.9403 9.19135C18.8748 8.72406 19.5289 8.3962 19.9904 8.11031C20.4616 7.8184 20.6065 7.64264 20.6573 7.53566C20.8181 7.19665 20.8181 6.80335 20.6573 6.46435C20.6065 6.35736 20.4616 6.18161 19.9904 5.8897C19.5289 5.6038 18.8748 5.27595 17.9403 4.80866L14.5268 3.10191C13.4384 2.55774 13.0222 2.35722 12.5993 2.27787Z"/>
<path d="M1.32918 12.6646C1.51442 12.2941 1.96493 12.1439 2.33541 12.3292L8.04216 15.1826C9.65523 15.9891 10.3338 16.3208 11.0319 16.4518C11.6717 16.5718 12.3283 16.5718 12.9681 16.4518C13.6662 16.3208 14.3448 15.9891 15.9578 15.1826L21.6646 12.3292C22.0351 12.1439 22.4856 12.2941 22.6708 12.6646C22.8561 13.0351 22.7059 13.4856 22.3354 13.6708L16.5171 16.58C15.0495 17.314 14.1744 17.7516 13.2447 17.926C12.4221 18.0804 11.5779 18.0804 10.7553 17.926C9.8256 17.7516 8.9505 17.314 7.48289 16.58L1.66459 13.6708C1.29411 13.4856 1.14394 13.0351 1.32918 12.6646Z"/>
<path d="M2.33541 17.3292C1.96493 17.1439 1.51442 17.2941 1.32918 17.6646C1.14394 18.0351 1.29411 18.4856 1.66459 18.6708L7.48286 21.58C8.95047 22.3139 9.8256 22.7516 10.7553 22.926C11.5779 23.0804 12.4221 23.0804 13.2447 22.926C14.1744 22.7516 15.0495 22.314 16.5171 21.58L22.3354 18.6708C22.7059 18.4856 22.8561 18.0351 22.6708 17.6646C22.4856 17.2941 22.0351 17.1439 21.6646 17.3292L15.9578 20.1826C14.3448 20.9891 13.6662 21.3208 12.9681 21.4518C12.3283 21.5718 11.6717 21.5718 11.0319 21.4518C10.3338 21.3208 9.65523 20.9891 8.04216 20.1826L2.33541 17.3292Z"/>
</svg>
