<svg id="menu-newspaper" viewBox="0 0 24 24" fill="none" xmlns="http://www.w3.org/2000/svg">
	<path opacity="0.12" d="M2 2V15.6C2 17.8402 2 18.9603 2.43597 19.816C2.81947 20.5686 3.43139 21.1805 4.18404 21.564C5.03969 22 6.15979 22 8.4 22H18V2L15.2874 3.20562C14.6759 3.47739 14.3701 3.61328 14.0607 3.64727C13.7214 3.68455 13.3782 3.63437 13.0638 3.50149C12.777 3.38032 12.523 3.16258 12.0149 2.7271C11.3403 2.14881 11.0029 1.85966 10.6296 1.73584C10.2208 1.60026 9.77918 1.60026 9.3704 1.73584C8.99706 1.85966 8.65972 2.14881 7.98505 2.7271C7.47699 3.16258 7.22295 3.38032 6.93623 3.50149C6.6218 3.63437 6.2786 3.68455 5.93929 3.64727C5.62988 3.61328 5.32414 3.47739 4.71265 3.20562L2 2Z"/>
	<path d="M6.25 9C6.25 8.58579 6.58579 8.25 7 8.25H11C11.4142 8.25 11.75 8.58579 11.75 9C11.75 9.41421 11.4142 9.75 11 9.75H7C6.58579 9.75 6.25 9.41421 6.25 9Z"/>
	<path d="M6.25 13C6.25 12.5858 6.58579 12.25 7 12.25H13C13.4142 12.25 13.75 12.5858 13.75 13C13.75 13.4142 13.4142 13.75 13 13.75H7C6.58579 13.75 6.25 13.4142 6.25 13Z"/>
	<path d="M7 16.25C6.58579 16.25 6.25 16.5858 6.25 17C6.25 17.4142 6.58579 17.75 7 17.75H13C13.4142 17.75 13.75 17.4142 13.75 17C13.75 16.5858 13.4142 16.25 13 16.25H7Z"/>
	<path fill-rule="evenodd" clip-rule="evenodd" d="M9.1343 1.02397C9.69638 0.83755 10.3036 0.83755 10.8657 1.02397C11.1583 1.12101 11.4089 1.27492 11.6567 1.4591C11.8931 1.63482 12.1628 1.86604 12.4839 2.14122L12.503 2.15765C13.0495 2.62605 13.2022 2.74578 13.3557 2.81065C13.5522 2.89369 13.7667 2.92506 13.9788 2.90176C14.1444 2.88356 14.325 2.81257 14.9828 2.52026L17.6954 1.31464C17.9274 1.21153 18.1958 1.23279 18.4087 1.37113C18.6216 1.50947 18.75 1.74612 18.75 2V11.25H18.8304C19.3646 11.25 19.8104 11.25 20.1747 11.2797C20.5546 11.3108 20.9112 11.3779 21.2485 11.5497C21.7659 11.8134 22.1866 12.2341 22.4503 12.7515C22.6221 13.0888 22.6892 13.4454 22.7203 13.8253C22.75 14.1896 22.75 14.6354 22.75 15.1696V20C22.75 21.5188 21.5188 22.75 20 22.75H8.36698C7.27484 22.75 6.40935 22.75 5.71173 22.693C4.99835 22.6347 4.39472 22.5131 3.84355 22.2323C2.94978 21.7769 2.22312 21.0502 1.76772 20.1565C1.48688 19.6053 1.36527 19.0017 1.30699 18.2883C1.24999 17.5907 1.24999 16.7252 1.25 15.633V2C1.25 1.74612 1.37844 1.50947 1.59132 1.37113C1.80419 1.23279 2.07261 1.21153 2.3046 1.31464L5.01725 2.52026C5.67495 2.81257 5.85557 2.88356 6.0212 2.90176C6.23327 2.92506 6.44777 2.89369 6.64429 2.81065C6.79777 2.74578 6.9505 2.62605 7.49696 2.15765L7.5161 2.14125C7.83714 1.86606 8.1069 1.63483 8.34333 1.4591C8.59113 1.27492 8.84172 1.12101 9.1343 1.02397ZM20 21.25C20.6904 21.25 21.25 20.6904 21.25 20V15.2C21.25 14.6276 21.2494 14.2434 21.2252 13.9475C21.2018 13.6604 21.1599 13.5231 21.1138 13.4325C20.9939 13.1973 20.8027 13.0061 20.5675 12.8862C20.4769 12.8401 20.3396 12.7982 20.0525 12.7748C19.7566 12.7506 19.3724 12.75 18.8 12.75H18.75V20C18.75 20.6904 19.3096 21.25 20 21.25ZM17.5499 21.25H8.4C7.26752 21.25 6.46327 21.2494 5.83388 21.198C5.21325 21.1473 4.829 21.0509 4.52453 20.8958C3.913 20.5842 3.41582 20.087 3.10423 19.4755C2.94909 19.171 2.85271 18.7867 2.80201 18.1661C2.75058 17.5367 2.75 16.7325 2.75 15.6V3.15407L4.50051 3.93213C5.02099 4.16393 5.42922 4.34575 5.85739 4.39279C6.32394 4.44405 6.79584 4.37504 7.22818 4.19234C7.62494 4.02467 7.96403 3.73357 8.39634 3.36244L8.47315 3.29654C8.81834 3.00066 9.04856 2.80388 9.23813 2.66298C9.421 2.52706 9.52574 2.47449 9.6065 2.44771C9.86199 2.36297 10.138 2.36297 10.3935 2.44771C10.4743 2.47449 10.579 2.52706 10.7619 2.66298C10.9514 2.80388 11.1817 3.00066 11.5269 3.29654L11.6037 3.36244C12.036 3.73357 12.3751 4.02467 12.7718 4.19234C13.2042 4.37504 13.6761 4.44405 14.1426 4.39279C14.5708 4.34575 14.979 4.16393 15.4995 3.93213L17.25 3.15407V20C17.25 20.4501 17.3581 20.875 17.5499 21.25Z"/>
</svg>