<svg width="24" height="24" viewBox="0 0 24 24" fill="none" xmlns="http://www.w3.org/2000/svg">
<circle cx="12" cy="12" r="10" fill="#FAE74D"/>
<path fill-rule="evenodd" clip-rule="evenodd" d="M4.02271 4.17147C5.78332 2.71897 8.44644 1.25 12 1.25C17.9714 1.25 22.75 6.06454 22.75 12C22.75 12.4142 22.4142 12.75 22 12.75C21.5858 12.75 21.25 12.4142 21.25 12C21.25 6.88977 17.1397 2.75 12 2.75C8.88689 2.75 6.55001 4.03103 4.97729 5.32853C4.37296 5.8271 3.88464 6.32579 3.51309 6.75H5.5C5.91421 6.75 6.25 7.08579 6.25 7.5C6.25 7.91421 5.91421 8.25 5.5 8.25H2C1.58579 8.25 1.25 7.91421 1.25 7.5V4C1.25 3.58579 1.58579 3.25 2 3.25C2.41421 3.25 2.75 3.58579 2.75 4V5.36063C3.10527 4.98535 3.52941 4.57844 4.02271 4.17147ZM2 11.25C2.41421 11.25 2.75 11.5858 2.75 12C2.75 17.1086 6.89137 21.25 12 21.25C14.5057 21.25 16.5853 20.0008 18.0751 18.6874C18.6462 18.1839 19.1207 17.6794 19.4877 17.25H17.5C17.0858 17.25 16.75 16.9142 16.75 16.5C16.75 16.0858 17.0858 15.75 17.5 15.75H21C21.4142 15.75 21.75 16.0858 21.75 16.5V20C21.75 20.4142 21.4142 20.75 21 20.75C20.5858 20.75 20.25 20.4142 20.25 20V18.6513C19.9134 19.0181 19.5179 19.4151 19.067 19.8126C17.4376 21.2492 15.0172 22.75 12 22.75C6.06294 22.75 1.25 17.9371 1.25 12C1.25 11.5858 1.58579 11.25 2 11.25Z" fill="#070707"/>
</svg>
