<svg id="menu-emotion-sad" viewBox="0 0 49 48" xmlns="http://www.w3.org/2000/svg">
	<rect opacity="0.12" x="4.5" y="4" width="40" height="40" rx="20"/>
	<path d="M17.0987 32.4504C16.8499 32.7816 16.3798 32.8484 16.0486 32.5997C15.7174 32.3509 15.6506 31.8808 15.8993 31.5496C17.8593 28.9402 20.9823 27.25 24.4998 27.25C28.0172 27.25 31.1402 28.9402 33.1002 31.5496C33.3489 31.8808 33.2821 32.3509 32.9509 32.5997C32.6197 32.8484 32.1496 32.7816 31.9008 32.4504C30.212 30.202 27.5255 28.75 24.4998 28.75C21.474 28.75 18.7875 30.202 17.0987 32.4504Z"/>
	<path d="M20.5 20C20.5 21.1046 19.6046 22 18.5 22C17.3954 22 16.5 21.1046 16.5 20C16.5 18.8954 17.3954 18 18.5 18C19.6046 18 20.5 18.8954 20.5 20Z"/>
	<path d="M30.5 22C31.6046 22 32.5 21.1046 32.5 20C32.5 18.8954 31.6046 18 30.5 18C29.3954 18 28.5 18.8954 28.5 20C28.5 21.1046 29.3954 22 30.5 22Z"/>
	<path fill-rule="evenodd" clip-rule="evenodd" d="M24.5 3.25C13.0401 3.25 3.75 12.5401 3.75 24C3.75 35.4599 13.0401 44.75 24.5 44.75C35.9599 44.75 45.25 35.4599 45.25 24C45.25 12.5401 35.9599 3.25 24.5 3.25ZM43.75 24C43.75 34.6315 35.1315 43.25 24.5 43.25C13.8685 43.25 5.25 34.6315 5.25 24C5.25 13.3685 13.8685 4.75 24.5 4.75C35.1315 4.75 43.75 13.3685 43.75 24Z"/>
</svg>