<svg id="menu-box-tick" viewBox="0 0 50 50" xmlns="http://www.w3.org/2000/svg">
	<path opacity="0.4" d="M40.3125 11.7915L27.2083 4.72913C25.8333 3.97913 24.1667 3.97913 22.7708 4.72913L9.66671 11.7915C8.70838 12.3124 8.125 13.3333 8.125 14.4583C8.125 15.5833 8.70838 16.604 9.66671 17.1249L22.7708 24.1874C23.4583 24.5624 24.2292 24.7499 24.9792 24.7499C25.7292 24.7499 26.5 24.5624 27.1875 24.1874L40.2917 17.1249C41.25 16.604 41.8333 15.5833 41.8333 14.4583C41.875 13.3333 41.2709 12.3124 40.3125 11.7915Z"/>
	<path opacity="0.4" d="M20.625 26.6458L8.43746 20.5417C7.49996 20.0625 6.41664 20.125 5.52081 20.6667C4.62497 21.2083 4.10416 22.1667 4.10416 23.2084V34.7292C4.10416 36.7292 5.20829 38.5208 6.99996 39.4167L19.1875 45.5001C19.6041 45.7084 20.0625 45.8125 20.5208 45.8125C21.0625 45.8125 21.6042 45.6667 22.0833 45.3542C22.9792 44.8126 23.5 43.8542 23.5 42.8125V31.2917C23.5208 29.3334 22.4166 27.5417 20.625 26.6458Z"/>
	<path opacity="0.4" d="M45.8958 23.2293V32.7917C45.875 32.7709 45.8542 32.7293 45.8333 32.7084C45.8333 32.6876 45.8125 32.6667 45.7917 32.6459C45.7084 32.5209 45.6042 32.3959 45.5 32.2917C45.4792 32.2709 45.4583 32.2293 45.4375 32.2084C43.75 30.3334 41.2708 29.1667 38.5417 29.1667C35.9167 29.1667 33.5208 30.25 31.8125 32C30.1667 33.6875 29.1667 36.0001 29.1667 38.5417C29.1667 40.2917 29.6667 41.9584 30.5208 43.3751C30.875 43.9793 31.3125 44.5209 31.7917 45.0209L30.8125 45.5209C30.3959 45.7292 29.9375 45.8334 29.4792 45.8334C28.9375 45.8334 28.3959 45.6876 27.8959 45.3751C27.0209 44.8335 26.4792 43.8751 26.4792 42.8334V31.3334C26.4792 29.3334 27.5834 27.5417 29.375 26.6459L41.5625 20.5626C42.5 20.0834 43.5834 20.1251 44.4792 20.6876C45.3542 21.2292 45.8958 22.1876 45.8958 23.2293Z"/>
	<path d="M45.7917 32.6458C44.0833 30.5416 41.4792 29.2084 38.5417 29.2084C36.3333 29.2084 34.2917 29.9792 32.6875 31.2709C30.5208 32.9792 29.1667 35.625 29.1667 38.5834C29.1667 40.3334 29.6666 42.0001 30.5208 43.4167C31.0833 44.3542 31.7917 45.1667 32.625 45.8333H32.6459C34.25 47.1667 36.3125 47.9584 38.5417 47.9584C40.9167 47.9584 43.0625 47.0834 44.7083 45.625C45.4375 45.0001 46.0625 44.2501 46.5625 43.4167C47.4167 42.0001 47.9167 40.3334 47.9167 38.5834C47.9167 36.3334 47.125 34.25 45.7917 32.6458ZM43.25 37.4167L38.25 42.0417C37.9583 42.3125 37.5625 42.4583 37.1875 42.4583C36.7917 42.4583 36.3958 42.3124 36.0833 41.9999L33.7708 39.6875C33.1666 39.0833 33.1666 38.0833 33.7708 37.4791C34.375 36.875 35.375 36.875 35.9791 37.4791L37.2291 38.7292L41.125 35.125C41.75 34.5416 42.75 34.5834 43.3333 35.2084C43.9375 35.8542 43.8958 36.8334 43.25 37.4167Z"/>
</svg>