<svg width="24" height="24" viewBox="0 0 24 24" fill="none" xmlns="http://www.w3.org/2000/svg">
<path d="M4 9.77817V14C4 16.8003 4 18.2004 4.54497 19.2699C5.02433 20.2108 5.78924 20.9757 6.73005 21.455C7.79961 22 9.19974 22 12 22C14.8003 22 16.2004 22 17.27 21.455C18.17 20.9964 18.9091 20.2765 19.3912 19.3912L4.60883 4.60883C4.55934 4.69972 4.51256 4.79235 4.46859 4.88662C4 5.89136 4 7.18696 4 9.77817Z" fill="#FAE74D"/>
<path fill-rule="evenodd" clip-rule="evenodd" d="M13.25 2.77246C12.9109 2.75144 12.4656 2.75 11.7782 2.75C10.4711 2.75 9.53262 2.7505 8.79411 2.80643C8.06343 2.86177 7.58979 2.9682 7.20363 3.1483C6.82824 3.32338 6.38199 3.16099 6.20692 2.7856C6.03184 2.41021 6.19423 1.96396 6.56962 1.78888C7.1882 1.50039 7.86473 1.37252 8.68083 1.31072C9.4826 1.24999 10.4778 1.25 11.7472 1.25H11.7782L11.8699 1.24999C12.9147 1.24988 13.5579 1.24981 14.1736 1.38634C14.8284 1.53151 15.4526 1.79009 16.0183 2.1504C16.5502 2.48925 17.0049 2.94411 17.7437 3.68301L17.8085 3.74784L18.0303 3.96967L18.1129 4.05219C19.0538 4.99287 19.6335 5.5724 20.0247 6.27551C20.2393 6.66122 20.4087 7.07036 20.5297 7.49484C20.7503 8.26863 20.7502 9.08831 20.75 10.4188L20.75 10.5355V16C20.75 16.4142 20.4142 16.75 20 16.75C19.5858 16.75 19.25 16.4142 19.25 16V10.5355C19.25 9.71787 19.248 9.16935 19.2201 8.75003H17.2H17.1696C16.6354 8.75004 16.1896 8.75005 15.8253 8.72029C15.4454 8.68925 15.0888 8.62214 14.7515 8.4503C14.2341 8.18665 13.8134 7.76595 13.5497 7.2485C13.3779 6.91124 13.3108 6.55458 13.2797 6.1747C13.25 5.81047 13.25 5.36462 13.25 4.83046V4.80003V2.77246ZM18.8401 7.25003C18.8007 7.16699 18.7586 7.0852 18.7139 7.00479L19.3693 6.64015L18.7139 7.00478C18.437 6.50711 18.0193 6.07998 16.9697 5.03033L16.7478 4.8085C15.9239 3.98454 15.5888 3.65536 15.2123 3.41551C15.0634 3.32065 14.909 3.23532 14.75 3.15992V4.80003C14.75 5.37246 14.7506 5.75667 14.7748 6.05255C14.7982 6.33967 14.8401 6.47696 14.8862 6.56752C15.0061 6.80272 15.1973 6.99395 15.4325 7.11379C15.5231 7.15993 15.6604 7.20181 15.9475 7.22527C16.2434 7.24945 16.6276 7.25003 17.2 7.25003H18.8401ZM2.53033 1.46967C2.23744 1.17678 1.76256 1.17678 1.46967 1.46967C1.17678 1.76256 1.17678 2.23744 1.46967 2.53033L3.70396 4.76462C3.4745 5.33045 3.3661 5.94962 3.31072 6.68083C3.24999 7.4826 3.25 8.47781 3.25 9.74717V9.77818V14V14.0336C3.25 15.4053 3.24999 16.4807 3.32061 17.3451C3.39252 18.2252 3.54138 18.9523 3.87671 19.6104C4.42798 20.6924 5.30762 21.572 6.38955 22.1233C7.04768 22.4586 7.77479 22.6075 8.65494 22.6794C9.51927 22.75 10.5947 22.75 11.9664 22.75H11.9664H12H12.0336H12.0336C13.4053 22.75 14.4807 22.75 15.3451 22.6794C16.2252 22.6075 16.9523 22.4586 17.6104 22.1233C18.3515 21.7457 18.9976 21.2141 19.5083 20.569L21.4697 22.5303C21.7626 22.8232 22.2374 22.8232 22.5303 22.5303C22.8232 22.2374 22.8232 21.7626 22.5303 21.4697L19.9215 18.8608L5.13916 4.0785L2.53033 1.46967ZM4.80643 6.79411C4.83057 6.47537 4.86444 6.20554 4.90989 5.97056L18.4379 19.4986C18.0456 20.0384 17.5296 20.481 16.9295 20.7868C16.518 20.9964 16.0103 21.12 15.2229 21.1844C14.4268 21.2494 13.4125 21.25 12 21.25C10.5875 21.25 9.57322 21.2494 8.77708 21.1844C7.9897 21.12 7.48197 20.9964 7.07054 20.7868C6.27085 20.3793 5.62068 19.7291 5.21322 18.9295C5.00359 18.518 4.87996 18.0103 4.81563 17.2229C4.75058 16.4268 4.75 15.4125 4.75 14V9.77818C4.75 8.47114 4.7505 7.53262 4.80643 6.79411Z" fill="#070707"/>
</svg>
