<svg width="24" height="24" viewBox="0 0 24 24" fill="none" xmlns="http://www.w3.org/2000/svg">
<path d="M18.2 2H15.8C14.1198 2 13.2798 2 12.638 2.32698C12.0735 2.6146 11.6146 3.07354 11.327 3.63803C11 4.27976 11 5.11984 11 6.8V7.8C11 8.9201 11 9.48016 10.782 9.90798C10.5903 10.2843 10.2843 10.5903 9.90798 10.782C9.48016 11 8.9201 11 7.8 11H4.2C3.0799 11 2.51984 11 2.09202 11.218C1.71569 11.4097 1.40973 11.7157 1.21799 12.092C1 12.5198 1 13.0799 1 14.2V16C1 16.9319 1 17.3978 1.15224 17.7654C1.35523 18.2554 1.74458 18.6448 2.23463 18.8478C2.60218 19 3.06812 19 4 19C4 17.3431 5.34315 16 7 16C8.65685 16 10 17.3431 10 19H14C14 17.3431 15.3431 16 17 16C18.6569 16 20 17.3431 20 19C21.6569 19 23 17.6569 23 16V6.8C23 5.11984 23 4.27976 22.673 3.63803C22.3854 3.07354 21.9265 2.6146 21.362 2.32698C20.7202 2 19.8802 2 18.2 2Z" fill="#FAE74D"/>
<path d="M10 19C10 20.6569 8.65685 22 7 22C5.34315 22 4 20.6569 4 19C4 17.3431 5.34315 16 7 16C8.65685 16 10 17.3431 10 19Z" stroke="#070707" stroke-width="1.5" stroke-linecap="round" stroke-linejoin="round"/>
<path d="M20 19C20 20.6569 18.6569 22 17 22C15.3431 22 14 20.6569 14 19C14 17.3431 15.3431 16 17 16C18.6569 16 20 17.3431 20 19Z" stroke="#070707" stroke-width="1.5" stroke-linecap="round" stroke-linejoin="round"/>
<path d="M11 6H7.62362C6.30225 6 5.64157 6 5.04791 6.18958C4.52256 6.35736 4.03758 6.63195 3.62342 6.99611C3.15542 7.40763 2.8155 7.97416 2.13566 9.10723L1.91205 9.47992C1.57257 10.0457 1.40284 10.3286 1.28282 10.6306C1.17626 10.8987 1.09902 11.1775 1.05245 11.4623C1 11.783 1 12.1129 1 12.7727V16C1 16.9319 1 17.3978 1.15224 17.7654C1.35523 18.2554 1.74458 18.6448 2.23463 18.8478C2.60218 19 3.06812 19 4 19V19" stroke="#070707" stroke-width="1.5" stroke-linecap="round" stroke-linejoin="round"/>
<path d="M1.5 11H7.8C8.92011 11 9.48016 11 9.90798 10.782C10.2843 10.5903 10.5903 10.2843 10.782 9.90798C11 9.48016 11 8.92011 11 7.8V6" stroke="#070707" stroke-width="1.5" stroke-linecap="round" stroke-linejoin="round"/>
<path d="M9.99999 19H14M11 8.00003V6.80003C11 5.11987 11 4.27979 11.327 3.63806C11.6146 3.07357 12.0735 2.61463 12.638 2.32701C13.2798 2.00003 14.1198 2.00003 15.8 2.00003H18.2C19.8801 2.00003 20.7202 2.00003 21.362 2.32701C21.9265 2.61463 22.3854 3.07357 22.673 3.63806C23 4.27979 23 5.11987 23 6.80003V16C23 17.6569 21.6568 19 20 19V19" stroke="#070707" stroke-width="1.5" stroke-linecap="round" stroke-linejoin="round"/>
</svg>
