<svg id="menu-heart-slash" viewBox="0 0 49 48" xmlns="http://www.w3.org/2000/svg">
	<path opacity="0.12" d="M4.5 18C4.5 32 22.5 41.9999 24.5 41.9999C25.5185 41.9999 30.686 39.4068 35.5128 35.0128L9.12321 8.62317C6.39647 10.7612 4.5 14.0645 4.5 18Z"/>
	<path fill-rule="evenodd" clip-rule="evenodd" d="M3.96967 3.46967C4.26256 3.17678 4.73744 3.17678 5.03033 3.46967L43.0303 41.4697C43.3232 41.7626 43.3232 42.2374 43.0303 42.5303C42.7374 42.8232 42.2626 42.8232 41.9697 42.5303L35.4842 36.0448C33.1976 38.0565 30.8727 39.6672 28.9604 40.7995C27.93 41.4096 27.0113 41.8855 26.2757 42.2117C25.9085 42.3746 25.578 42.504 25.2964 42.5942C25.0343 42.6781 24.7496 42.7499 24.5 42.7499C24.2542 42.7499 23.9753 42.6804 23.7191 42.5991C23.4439 42.5119 23.1218 42.3867 22.7644 42.2294C22.0482 41.9143 21.1547 41.4546 20.1514 40.8654C18.1443 39.6867 15.6657 37.9704 13.2499 35.8089C8.44522 31.51 3.75 25.3218 3.75 18C3.75 14.1306 5.47464 10.8389 8.01353 8.57419L3.96967 4.53033C3.67678 4.23744 3.67678 3.76256 3.96967 3.46967ZM9.0761 9.63676C6.78915 11.6465 5.25 14.5681 5.25 18C5.25 24.6783 9.55479 30.49 14.2501 34.6911C16.5843 36.7795 18.9807 38.4383 20.9111 39.572C21.8766 40.139 22.7174 40.57 23.3685 40.8564C23.6946 40.9999 23.9643 41.1033 24.1726 41.1693C24.2765 41.2023 24.3585 41.2238 24.4199 41.2366C24.4686 41.2468 24.4938 41.2492 24.5 41.2498C24.5064 41.2492 24.5325 41.2467 24.5835 41.2359C24.647 41.2225 24.7317 41.2 24.8389 41.1657C25.0537 41.0969 25.3317 40.9894 25.6676 40.8405C26.3382 40.5432 27.204 40.0962 28.1962 39.5088C30.0168 38.4308 32.2355 36.8959 34.4213 34.9819L9.0761 9.63676Z"/>
	<path d="M32.4891 6.74993C29.6789 6.70927 26.9503 7.67676 25.124 10.4161C24.9849 10.6247 24.7508 10.75 24.5 10.75C24.2492 10.75 24.0151 10.6247 23.876 10.4161C22.0543 7.68358 19.2774 6.75001 16.5 6.75001C16.1895 6.75001 15.8786 6.7644 15.5683 6.79277C15.1558 6.83049 14.7908 6.52667 14.7531 6.11417C14.7154 5.70168 15.0192 5.33672 15.4317 5.299C15.7867 5.26655 16.1432 5.25001 16.5 5.25001C19.3337 5.25001 22.3393 6.1305 24.499 8.74239C26.6474 6.12836 29.6128 5.20816 32.5109 5.25009C38.8659 5.34205 45.25 10.5372 45.25 18C45.25 22.4346 43.5251 26.4521 41.1129 29.8728C40.9767 30.066 40.8383 30.2573 40.6978 30.4467C40.451 30.7795 39.9813 30.8492 39.6486 30.6024C39.3159 30.3557 39.2462 29.886 39.4929 29.5533C39.6264 29.3732 39.7579 29.1915 39.8871 29.0084C42.1809 25.7555 43.75 22.0351 43.75 18C43.75 11.4628 38.1341 6.83161 32.4891 6.74993Z"/>
</svg>