<svg width="24" height="24" viewBox="0 0 24 24" xmlns="http://www.w3.org/2000/svg">
<path opacity="0.12" d="M18.2 2H15.8C14.1198 2 13.2798 2 12.638 2.32698C12.0735 2.6146 11.6146 3.07354 11.327 3.63803C11 4.27976 11 5.11984 11 6.8V7.8C11 8.9201 11 9.48016 10.782 9.90798C10.5903 10.2843 10.2843 10.5903 9.90798 10.782C9.48016 11 8.9201 11 7.8 11H4.2C3.0799 11 2.51984 11 2.09202 11.218C1.71569 11.4097 1.40973 11.7157 1.21799 12.092C1 12.5198 1 13.0799 1 14.2V16C1 16.9319 1 17.3978 1.15224 17.7654C1.35523 18.2554 1.74458 18.6448 2.23463 18.8478C2.60218 19 3.06812 19 4 19C4 17.3431 5.34315 16 7 16C8.65685 16 10 17.3431 10 19H14C14 17.3431 15.3431 16 17 16C18.6569 16 20 17.3431 20 19C21.6569 19 23 17.6569 23 16V6.8C23 5.11984 23 4.27976 22.673 3.63803C22.3854 3.07354 21.9265 2.6146 21.362 2.32698C20.7202 2 19.8802 2 18.2 2Z"/>
<path fill-rule="evenodd" clip-rule="evenodd" d="M15.7679 1.25003H18.2321C19.0449 1.25002 19.7006 1.25002 20.2315 1.29339C20.7781 1.33806 21.2582 1.43242 21.7025 1.65876C22.4081 2.01828 22.9817 2.59196 23.3413 3.29757C23.5676 3.74179 23.662 4.22193 23.7066 4.76856C23.75 5.29947 23.75 5.95508 23.75 6.76791V16C23.75 17.8364 22.4301 19.3644 20.6872 19.6872C20.3644 21.4301 18.8363 22.75 17 22.75C15.1858 22.75 13.6725 21.4617 13.325 19.75H10.675C10.3275 21.4617 8.81422 22.75 7 22.75C5.18467 22.75 3.67061 21.4601 3.32438 19.7469C3.15291 19.7441 2.99656 19.7389 2.85464 19.7292C2.53754 19.7076 2.23801 19.661 1.94762 19.5407C1.27379 19.2616 0.738441 18.7262 0.459333 18.0524C0.33905 17.762 0.292407 17.4625 0.270772 17.1454C0.249988 16.8408 0.249994 16.4697 0.250002 16.0253L0.250002 12.7727C0.250002 12.7517 0.25 12.7309 0.249997 12.7104C0.249926 12.11 0.24988 11.7228 0.312292 11.3412C0.367593 11.0031 0.459311 10.672 0.585845 10.3536C0.728648 9.99429 0.927884 9.66232 1.23684 9.14754C1.80171 8.20632 2.28975 7.17012 3.12818 6.43289C3.61998 6.00044 4.1959 5.67437 4.81975 5.47514C5.52619 5.24954 6.29733 5.24971 7.49526 5.24999C7.53751 5.25 7.58029 5.25001 7.62362 5.25001H10.266C10.2723 5.07905 10.2811 4.91881 10.2934 4.76856C10.338 4.22193 10.4324 3.74179 10.6587 3.29757C11.0182 2.59196 11.5919 2.01828 12.2975 1.65876C12.7417 1.43242 13.2219 1.33806 13.7685 1.29339C14.2994 1.25002 14.955 1.25002 15.7679 1.25003ZM11.75 7.94686C11.75 7.90854 11.75 7.86974 11.75 7.83046V6.67095C11.7501 5.887 11.7525 5.32963 11.7884 4.89071C11.8255 4.43684 11.8946 4.17607 11.9952 3.97855C12.2109 3.55519 12.5551 3.21098 12.9785 2.99527C13.176 2.89463 13.4368 2.8255 13.8907 2.78841C14.3533 2.75061 14.9475 2.75003 15.8 2.75003H18.2C19.0524 2.75003 19.6467 2.75061 20.1093 2.78841C20.5632 2.8255 20.824 2.89463 21.0215 2.99527C21.4448 3.21098 21.789 3.55519 22.0048 3.97855C22.1054 4.17607 22.1745 4.43684 22.2116 4.89071C22.2494 5.35334 22.25 5.94758 22.25 6.80003V16C22.25 17.0152 21.5777 17.8733 20.6541 18.1535C20.2703 16.4901 18.78 15.25 17 15.25C15.1858 15.25 13.6725 16.5383 13.325 18.25H10.675C10.3275 16.5383 8.81422 15.25 7 15.25C5.18696 15.25 3.67443 16.5367 3.32569 18.2467C3.18461 18.2442 3.06391 18.24 2.95674 18.2327C2.71602 18.2163 2.5988 18.1868 2.52165 18.1549C2.21536 18.028 1.97202 17.7846 1.84515 17.4784C1.81319 17.4012 1.78372 17.284 1.76729 17.0433C1.75041 16.7958 1.75 16.4762 1.75 16V12.7727C1.75 12.2377 1.75139 11.9626 1.77136 11.75H7.83045C8.3646 11.75 8.81044 11.75 9.17467 11.7203C9.55456 11.6892 9.91121 11.6221 10.2485 11.4503C10.7659 11.1866 11.1866 10.7659 11.4503 10.2485C11.6221 9.91122 11.6892 9.55456 11.7203 9.17468C11.7467 8.85126 11.7496 8.46348 11.75 8.00668C11.75 8.00446 11.75 8.00225 11.75 8.00003V7.94686ZM10.25 7.89444C10.2499 8.4152 10.2481 8.77322 10.2252 9.05253C10.2018 9.33965 10.1599 9.47693 10.1138 9.5675C9.99392 9.8027 9.80269 9.99392 9.56749 10.1138C9.47693 10.1599 9.33965 10.2018 9.05252 10.2253C8.75665 10.2494 8.37243 10.25 7.8 10.25H2.32586C2.38994 10.1415 2.46538 10.0155 2.55517 9.8658L2.77879 9.49311C3.48412 8.31755 3.75923 7.87542 4.11868 7.55935C4.45518 7.26346 4.84922 7.04036 5.27607 6.90405C5.73203 6.75843 6.25269 6.75001 7.62362 6.75001H10.25C10.25 6.75597 10.25 6.76193 10.25 6.76791M10.25 6.80003V7.89444V6.80003ZM7 16.75C5.75736 16.75 4.75 17.7574 4.75 19C4.75 20.2426 5.75736 21.25 7 21.25C8.24264 21.25 9.25 20.2426 9.25 19C9.25 17.7574 8.24264 16.75 7 16.75ZM17 16.75C15.7574 16.75 14.75 17.7574 14.75 19C14.75 20.2426 15.7574 21.25 17 21.25C18.2426 21.25 19.25 20.2426 19.25 19C19.25 17.7574 18.2426 16.75 17 16.75Z"/>
</svg>
