<svg width="24" height="24" viewBox="0 0 24 24" xmlns="http://www.w3.org/2000/svg">
<path opacity="0.12" d="M4 9.77817V14C4 16.8003 4 18.2004 4.54497 19.2699C5.02433 20.2108 5.78924 20.9757 6.73005 21.455C7.79961 22 9.19974 22 12 22C14.8003 22 16.2004 22 17.27 21.455C18.17 20.9964 18.9091 20.2765 19.3912 19.3912L4.60883 4.60883C4.55934 4.69972 4.51256 4.79235 4.46859 4.88662C4 5.89136 4 7.18696 4 9.77817Z"/>
<path fill-rule="evenodd" clip-rule="evenodd" d="M13.25 2.77244C12.9109 2.75142 12.4656 2.74998 11.7782 2.74998C10.4711 2.74998 9.53262 2.75048 8.79411 2.80641C8.06343 2.86175 7.58979 2.96819 7.20363 3.14829C6.82824 3.32336 6.38199 3.16098 6.20692 2.78558C6.03184 2.41019 6.19423 1.96394 6.56962 1.78886C7.1882 1.50037 7.86473 1.37251 8.68083 1.3107C9.4826 1.24998 10.4778 1.24998 11.7472 1.24998L11.8699 1.24998C12.9147 1.24986 13.5579 1.2498 14.1736 1.38632C14.8284 1.53149 15.4526 1.79008 16.0183 2.15039C16.5502 2.48923 17.0049 2.94409 17.7437 3.68299L18.1129 4.05217C19.0538 4.99285 19.6335 5.57238 20.0247 6.27549C20.2393 6.6612 20.4087 7.07034 20.5297 7.49483C20.7503 8.26861 20.7502 9.08829 20.75 10.4188L20.75 16C20.75 16.4142 20.4142 16.75 20 16.75C19.5858 16.75 19.25 16.4142 19.25 16V10.5355C19.25 9.71785 19.248 9.16934 19.2201 8.75001H17.1696C16.6354 8.75002 16.1896 8.75003 15.8253 8.72027C15.4454 8.68923 15.0888 8.62212 14.7515 8.45028C14.2341 8.18663 13.8134 7.76593 13.5497 7.24849C13.3779 6.91122 13.3108 6.55457 13.2797 6.17468C13.25 5.81045 13.25 5.3646 13.25 4.83045V2.77244ZM18.8401 7.25001C18.8007 7.16698 18.7586 7.08518 18.7139 7.00477C18.437 6.5071 18.0193 6.07996 16.9697 5.03031L16.7478 4.80848C15.9239 3.98452 15.5888 3.65534 15.2123 3.4155C15.0634 3.32063 14.909 3.2353 14.75 3.1599V4.80001C14.75 5.37244 14.7506 5.75666 14.7748 6.05253C14.7982 6.33966 14.8401 6.47694 14.8862 6.5675C15.0061 6.8027 15.1973 6.99393 15.4325 7.11377C15.5231 7.15991 15.6604 7.2018 15.9475 7.22525C16.2434 7.24943 16.6276 7.25001 17.2 7.25001H18.8401Z"/>
<path fill-rule="evenodd" clip-rule="evenodd" d="M2.53033 1.46965C2.23744 1.17676 1.76256 1.17676 1.46967 1.46965C1.17678 1.76255 1.17678 2.23742 1.46967 2.53031L3.70396 4.76461C3.4745 5.33043 3.3661 5.9496 3.31072 6.68082C3.24999 7.48259 3.25 8.47779 3.25 9.74715V14.0335C3.25 15.4053 3.24999 16.4807 3.32061 17.345C3.39252 18.2252 3.54138 18.9523 3.87671 19.6104C4.42798 20.6924 5.30762 21.572 6.38955 22.1233C7.04768 22.4586 7.77479 22.6075 8.65494 22.6794C9.51927 22.75 10.5947 22.75 11.9664 22.75H12.0336C13.4053 22.75 14.4807 22.75 15.3451 22.6794C16.2252 22.6075 16.9523 22.4586 17.6104 22.1233C18.3515 21.7457 18.9976 21.2141 19.5083 20.569L21.4697 22.5303C21.7626 22.8232 22.2374 22.8232 22.5303 22.5303C22.8232 22.2374 22.8232 21.7625 22.5303 21.4697L2.53033 1.46965ZM4.80643 6.7941C4.83057 6.47535 4.86444 6.20553 4.90989 5.97054L18.4379 19.4986C18.0456 20.0384 17.5296 20.481 16.9295 20.7868C16.518 20.9964 16.0103 21.12 15.2229 21.1844C14.4268 21.2494 13.4125 21.25 12 21.25C10.5875 21.25 9.57322 21.2494 8.77708 21.1844C7.9897 21.12 7.48197 20.9964 7.07054 20.7868C6.27085 20.3793 5.62068 19.7291 5.21322 18.9294C5.00359 18.518 4.87996 18.0103 4.81563 17.2229C4.75058 16.4268 4.75 15.4125 4.75 14V9.77816C4.75 8.47112 4.7505 7.5326 4.80643 6.7941Z"/>
</svg>
