<svg width="24" height="24" viewBox="0 0 24 24" xmlns="http://www.w3.org/2000/svg">
<path d="M11.9999 7.25C12.4142 7.25 12.7499 7.58578 12.7499 8L12.7499 13C12.7499 13.4142 12.4142 13.75 11.9999 13.75C11.5857 13.75 11.2499 13.4142 11.2499 13L11.2499 8C11.2499 7.58578 11.5857 7.25 11.9999 7.25Z"/>
<path d="M11.9999 17C12.5522 17 12.9999 16.5523 12.9999 16C12.9999 15.4477 12.5522 15 11.9999 15C11.4477 15 10.9999 15.4477 10.9999 16C10.9999 16.5523 11.4477 17 11.9999 17Z"/>
<path fill-rule="evenodd" clip-rule="evenodd" d="M11.3707 0.815398C11.7817 0.695687 12.2183 0.695687 12.6293 0.815398C12.9019 0.894827 13.1295 1.03161 13.3429 1.18806C13.5435 1.33519 13.7699 1.52923 14.0301 1.75225L15.314 2.85277C15.5876 3.08731 15.6438 3.13033 15.6979 3.1596C15.7603 3.19339 15.8273 3.21814 15.8966 3.23311C15.9568 3.24609 16.0274 3.25 16.3878 3.25L17.6289 3.25C18.0243 3.24998 18.3653 3.24997 18.6463 3.27293C18.9428 3.29715 19.2377 3.35064 19.5215 3.49523C19.9448 3.71095 20.289 4.05515 20.5048 4.47852C20.6494 4.7623 20.7028 5.05722 20.7271 5.35373C20.75 5.63463 20.75 5.97566 20.75 6.37098L20.75 7.61218C20.75 7.97257 20.7539 8.04324 20.7669 8.10335C20.7819 8.17274 20.8066 8.23965 20.8404 8.30207C20.8697 8.35616 20.9127 8.41235 21.1472 8.68599L22.2477 9.96988C22.4707 10.23 22.6648 10.4565 22.8119 10.6571C22.9684 10.8705 23.1052 11.0981 23.1846 11.3707C23.3043 11.7817 23.3043 12.2183 23.1846 12.6293C23.1052 12.9019 22.9684 13.1295 22.8119 13.3429C22.6648 13.5435 22.4708 13.7699 22.2478 14.03L21.1472 15.314C20.9127 15.5876 20.8697 15.6438 20.8404 15.6979C20.8066 15.7603 20.7819 15.8273 20.7669 15.8966C20.7539 15.9568 20.75 16.0274 20.75 16.3878L20.75 17.6289C20.75 18.0242 20.75 18.3654 20.7271 18.6463C20.7028 18.9428 20.6494 19.2377 20.5048 19.5215C20.289 19.9448 19.9448 20.2891 19.5215 20.5048C19.2377 20.6494 18.9428 20.7028 18.6463 20.7271C18.3654 20.75 18.0243 20.75 17.629 20.75L16.3878 20.75C16.0274 20.75 15.9568 20.7539 15.8966 20.7669C15.8273 20.7819 15.7604 20.8066 15.6979 20.8404C15.6438 20.8697 15.5876 20.9127 15.314 21.1472L14.0301 22.2477C13.77 22.4707 13.5435 22.6648 13.3429 22.8119C13.1295 22.9684 12.9019 23.1052 12.6293 23.1846C12.2183 23.3043 11.7817 23.3043 11.3707 23.1846C11.0981 23.1052 10.8705 22.9684 10.6571 22.8119C10.4565 22.6648 10.2301 22.4708 9.97002 22.2478L8.68598 21.1472C8.41236 20.9127 8.35616 20.8697 8.30207 20.8404C8.23964 20.8066 8.17273 20.7819 8.10335 20.7669C8.04324 20.7539 7.97257 20.75 7.61218 20.75L6.33685 20.75C5.94154 20.75 5.60041 20.75 5.31951 20.7271C5.023 20.7028 4.72809 20.6494 4.4443 20.5048C4.02094 20.289 3.67673 19.9448 3.46102 19.5215C3.31642 19.2377 3.26293 18.9428 3.23871 18.6463C3.21575 18.3653 3.21577 18.0243 3.21578 17.6289L3.21578 16.3801C3.21578 16.0228 3.21193 15.9527 3.19916 15.8931C3.18442 15.8242 3.16006 15.7578 3.1268 15.6957C3.09797 15.6419 3.05561 15.586 2.82461 15.3134L1.72571 14.0166C1.50652 13.7579 1.31571 13.5327 1.17099 13.3332C1.01705 13.1209 0.882584 12.8948 0.804464 12.6244C0.686646 12.2165 0.686646 11.7835 0.804464 11.3756C0.882584 11.1052 1.01705 10.8791 1.17099 10.6668C1.3157 10.4673 1.5065 10.2421 1.72566 9.98349L2.82461 8.68659C3.05561 8.41398 3.09797 8.35805 3.1268 8.30428C3.16006 8.24222 3.18442 8.17578 3.19916 8.10693C3.21193 8.04727 3.21578 7.97721 3.21578 7.6199L3.21578 6.37109C3.21577 5.97573 3.21575 5.63465 3.23871 5.35373C3.26293 5.05722 3.31642 4.7623 3.46102 4.47852C3.67673 4.05515 4.02094 3.71095 4.4443 3.49523C4.72809 3.35064 5.023 3.29715 5.31951 3.27293C5.60044 3.24997 5.9415 3.24998 6.33686 3.25L7.61218 3.25C7.97257 3.25 8.04324 3.24609 8.10335 3.23311C8.17274 3.21814 8.23964 3.19339 8.30207 3.1596C8.35615 3.13033 8.41235 3.08731 8.68598 2.85277L9.96989 1.75228C10.2301 1.52925 10.4564 1.3352 10.6571 1.18806C10.8705 1.03161 11.0981 0.894827 11.3707 0.815398ZM12.2097 2.25554C12.0728 2.21564 11.9272 2.21564 11.7902 2.25554C11.7521 2.26666 11.6856 2.29394 11.5441 2.39772C11.395 2.50706 11.212 2.66324 10.9262 2.90821L9.61983 4.02798C9.41219 4.20627 9.22905 4.36351 9.01599 4.47882C8.82871 4.58017 8.62799 4.65442 8.41984 4.69935C8.18303 4.75046 7.94165 4.75026 7.66798 4.75003L6.36578 4.75C5.93336 4.75 5.65416 4.75058 5.44166 4.76794C5.23791 4.78459 5.16237 4.81285 5.12529 4.83174C4.98417 4.90365 4.86943 5.01838 4.79753 5.15951C4.77863 5.19659 4.75037 5.27213 4.73373 5.47588C4.71636 5.68838 4.71578 5.96758 4.71578 6.4L4.71581 7.6752C4.71604 7.94658 4.71623 8.18594 4.66593 8.42093C4.62171 8.62748 4.54863 8.82678 4.44883 9.01296C4.33529 9.22476 4.1804 9.40725 4.00478 9.61414L2.88693 10.9333C2.6461 11.2175 2.49268 11.3993 2.38527 11.5474C2.28339 11.6879 2.25654 11.7538 2.24556 11.7919C2.20628 11.9278 2.20628 12.0721 2.24556 12.2081C2.25654 12.2462 2.28339 12.3121 2.38527 12.4526C2.49268 12.6007 2.6461 12.7825 2.88693 13.0667L4.00479 14.3859C4.1804 14.5927 4.3353 14.7752 4.44883 14.987C4.54863 15.1732 4.62171 15.3725 4.66593 15.5791C4.71623 15.8141 4.71604 16.0534 4.71581 16.3248L4.71578 17.6C4.71578 18.0324 4.71636 18.3116 4.73373 18.5241C4.75037 18.7279 4.77863 18.8034 4.79753 18.8405C4.86943 18.9816 4.98416 19.0963 5.12529 19.1683C5.16237 19.1871 5.23791 19.2154 5.44166 19.2321C5.65416 19.2494 5.93336 19.25 6.36578 19.25L7.66797 19.25C7.94163 19.2497 8.18304 19.2495 8.41984 19.3007C8.62799 19.3456 8.82871 19.4198 9.01599 19.5212C9.22905 19.6365 9.41219 19.7937 9.61984 19.972L10.9262 21.0918C11.212 21.3368 11.395 21.4929 11.5441 21.6023C11.6856 21.7061 11.7521 21.7333 11.7902 21.7445C11.9272 21.7844 12.0728 21.7844 12.2097 21.7445C12.2479 21.7333 12.3144 21.7061 12.4559 21.6023C12.605 21.4929 12.788 21.3368 13.0738 21.0918L14.3801 19.972C14.5878 19.7937 14.7709 19.6365 14.984 19.5212C15.1713 19.4198 15.372 19.3456 15.5802 19.3007C15.8169 19.2495 16.0583 19.2497 16.332 19.25L17.6 19.25C18.0324 19.25 18.3116 19.2494 18.5241 19.2321C18.7279 19.2154 18.8034 19.1871 18.8405 19.1683C18.9816 19.0963 19.0963 18.9816 19.1682 18.8405C19.1871 18.8034 19.2154 18.7279 19.232 18.5241C19.2494 18.3116 19.25 18.0324 19.25 17.6L19.25 16.332C19.2497 16.0584 19.2495 15.817 19.3006 15.5802C19.3456 15.372 19.4198 15.1713 19.5212 14.984C19.6365 14.7709 19.7937 14.5878 19.972 14.3802L21.0918 13.0738C21.3368 12.788 21.4929 12.605 21.6023 12.4559C21.706 12.3144 21.7333 12.2479 21.7445 12.2098C21.7844 12.0728 21.7844 11.9272 21.7445 11.7902C21.7333 11.7521 21.706 11.6856 21.6023 11.5441C21.4929 11.395 21.3368 11.212 21.0918 10.9262L19.972 9.61982C19.7937 9.4122 19.6365 9.22903 19.5212 9.01599C19.4198 8.82871 19.3456 8.62799 19.3006 8.41984C19.2495 8.18304 19.2497 7.94167 19.25 7.66801L19.25 6.4C19.25 5.96758 19.2494 5.68838 19.232 5.47588C19.2154 5.27213 19.1871 5.19659 19.1683 5.15951C19.0963 5.01838 18.9816 4.90365 18.8405 4.83174C18.8034 4.81285 18.7279 4.78459 18.5241 4.76794C18.3116 4.75058 18.0324 4.75 17.6 4.75L16.332 4.75003C16.0583 4.75026 15.817 4.75046 15.5802 4.69935C15.372 4.65442 15.1713 4.58017 14.984 4.47882C14.7709 4.36351 14.5878 4.20627 14.3802 4.02799L13.0738 2.90821C12.788 2.66324 12.605 2.50706 12.4559 2.39772C12.3144 2.29394 12.2479 2.26666 12.2097 2.25554Z"/>
</svg>
