<svg width="24" height="24" viewBox="0 0 24 24" xmlns="http://www.w3.org/2000/svg">
<path fill-rule="evenodd" clip-rule="evenodd" d="M10.083 12.751C10.083 13.0106 10.1572 13.2525 10.2855 13.4571L9.35205 14.916H8.583C7.84679 14.916 7.25 15.5128 7.25 16.249V17.417C7.25 18.1532 7.84679 18.75 8.583 18.75H9.751C10.4872 18.75 11.084 18.1532 11.084 17.417V17.3H12.917V17.417C12.917 18.1524 13.5129 18.75 14.249 18.75H15.417C16.1537 18.75 16.7487 18.1533 16.751 17.4193L16.751 17.417V16.249C16.751 15.5128 16.1542 14.916 15.418 14.916H14.6479L13.7147 13.4574C13.8429 13.2526 13.917 13.0104 13.917 12.751V11.583C13.917 10.8468 13.3202 10.25 12.584 10.25H11.416C10.6798 10.25 10.083 10.8468 10.083 11.583V12.751ZM10.8034 15.4308L11.6652 14.084H12.3348L13.197 15.4315C13.1113 15.5418 13.0425 15.6659 12.9945 15.8H11.0065C10.9584 15.6657 10.8894 15.5413 10.8034 15.4308ZM11.583 12.584V11.75H12.417V12.584H11.583ZM14.417 17.25V16.416H15.251V17.25H14.417ZM8.75 16.416H9.584V17.25H8.75V16.416Z"/>
<path fill-rule="evenodd" clip-rule="evenodd" d="M7 2.25C5.48079 2.25 4.25 3.48079 4.25 5V19C4.25 20.5192 5.48079 21.75 7 21.75H17C18.5192 21.75 19.75 20.5192 19.75 19V7.828C19.75 7.09886 19.4598 6.39916 18.9443 5.88367L16.1163 3.05567C15.6008 2.54018 14.9011 2.25 14.172 2.25H7ZM17.8837 6.94433C17.9744 7.03505 18.0497 7.13832 18.108 7.25H15C14.8622 7.25 14.75 7.13779 14.75 7V3.89195C14.8617 3.95025 14.9649 4.02561 15.0557 4.11633L17.8837 6.94433ZM15 8.75C14.0338 8.75 13.25 7.96621 13.25 7V3.75H7C6.30921 3.75 5.75 4.30921 5.75 5V19C5.75 19.6908 6.30921 20.25 7 20.25H17C17.6908 20.25 18.25 19.6908 18.25 19V8.75H15Z"/>
</svg>
