<svg width="24" height="24" viewBox="0 0 24 24" xmlns="http://www.w3.org/2000/svg">
<path d="M4.25001 11C4.25001 10.5858 4.58579 10.25 5.00001 10.25H6.00001C6.41422 10.25 6.75001 10.5858 6.75001 11C6.75001 11.4142 6.41422 11.75 6.00001 11.75H5.00001C4.58579 11.75 4.25001 11.4142 4.25001 11Z"/>
<path fill-rule="evenodd" clip-rule="evenodd" d="M9.16957 1.25C8.63542 1.24999 8.18957 1.24998 7.82533 1.27974C7.44545 1.31078 7.08879 1.37789 6.75153 1.54973C6.23408 1.81338 5.81339 2.23408 5.54974 2.75153C5.37789 3.08879 5.31078 3.44545 5.27974 3.82533C5.24998 4.18956 5.24999 4.6354 5.25 5.16955L5.25 7.26598C5.07903 7.27229 4.91879 7.28109 4.76854 7.29336C4.2219 7.33803 3.74176 7.43239 3.29754 7.65873C2.59193 8.01825 2.01825 8.59193 1.65873 9.29754C1.43239 9.74175 1.33803 10.2219 1.29337 10.7685C1.24999 11.2994 1.25 11.9551 1.25 12.7679L1.24998 14.1158C1.24971 14.9338 1.24952 15.4919 1.37778 15.9706C1.72453 17.2647 2.73534 18.2755 4.02943 18.6222C4.3731 18.7143 4.75775 18.7402 5.25011 18.7474L5.25 19.0253C5.25 19.4697 5.24999 19.8408 5.27077 20.1454C5.29241 20.4625 5.33905 20.762 5.45934 21.0524C5.73844 21.7262 6.2738 22.2616 6.94762 22.5407C7.23801 22.661 7.53754 22.7076 7.85464 22.7292C8.15925 22.75 8.53029 22.75 8.97475 22.75H15.0253C15.4697 22.75 15.8408 22.75 16.1454 22.7292C16.4625 22.7076 16.762 22.661 17.0524 22.5407C17.7262 22.2616 18.2616 21.7262 18.5407 21.0524C18.661 20.762 18.7076 20.4625 18.7292 20.1454C18.75 19.8408 18.75 19.4697 18.75 19.0253L18.7499 18.7474C19.2423 18.7402 19.6269 18.7143 19.9706 18.6222C21.2647 18.2755 22.2755 17.2647 22.6222 15.9706C22.7505 15.4919 22.7503 14.9338 22.75 14.1159L22.75 12.7679C22.75 11.955 22.75 11.2994 22.7066 10.7685C22.662 10.2219 22.5676 9.74175 22.3413 9.29753C21.9818 8.59193 21.4081 8.01825 20.7025 7.65873C20.2582 7.43239 19.7781 7.33803 19.2315 7.29336C19.0812 7.28109 18.921 7.27229 18.75 7.26598V5.16955C18.75 4.6354 18.75 4.18956 18.7203 3.82533C18.6892 3.44545 18.6221 3.08879 18.4503 2.75153C18.1866 2.23408 17.7659 1.81338 17.2485 1.54973C16.9112 1.37789 16.5546 1.31078 16.1747 1.27974C15.8104 1.24998 15.3646 1.24999 14.8304 1.25H9.16957ZM17.25 7.25V5.2C17.25 4.62757 17.2494 4.24336 17.2252 3.94748C17.2018 3.66036 17.1599 3.52307 17.1138 3.43251C16.9939 3.19731 16.8027 3.00608 16.5675 2.88624C16.4769 2.8401 16.3396 2.79822 16.0525 2.77476C15.7566 2.75058 15.3724 2.75 14.8 2.75H9.2C8.62758 2.75 8.24336 2.75058 7.94748 2.77476C7.66036 2.79822 7.52308 2.8401 7.43252 2.88624C7.19731 3.00608 7.00609 3.19731 6.88625 3.43251C6.8401 3.52307 6.79822 3.66035 6.77476 3.94748C6.75059 4.24336 6.75 4.62757 6.75 5.2V7.25C6.75596 7.25 6.76193 7.25 6.7679 7.25H17.2321C17.2381 7.25 17.244 7.25 17.25 7.25ZM18.6398 17.2477C19.1495 17.2424 19.3879 17.2254 19.5823 17.1733C20.3588 16.9653 20.9653 16.3588 21.1733 15.5823C21.2436 15.3203 21.25 14.9783 21.25 14V12.8C21.25 11.9475 21.2494 11.3533 21.2116 10.8907C21.1745 10.4368 21.1054 10.176 21.0048 9.97852C20.7891 9.55516 20.4448 9.21095 20.0215 8.99524C19.824 8.8946 19.5632 8.82547 19.1093 8.78838C18.6467 8.75058 18.0525 8.75 17.2 8.75H6.8C5.94755 8.75 5.35331 8.75058 4.89068 8.78838C4.43681 8.82547 4.17604 8.8946 3.97852 8.99524C3.55516 9.21095 3.21095 9.55516 2.99524 9.97852C2.8946 10.176 2.82547 10.4368 2.78839 10.8907C2.75059 11.3533 2.75 11.9475 2.75 12.8V14C2.75 14.9783 2.75645 15.3203 2.82667 15.5823C3.03472 16.3588 3.6412 16.9653 4.41766 17.1733C4.61211 17.2254 4.85054 17.2424 5.36017 17.2477C5.38597 17.1464 5.41838 17.0465 5.45934 16.9476C5.73844 16.2738 6.2738 15.7384 6.94762 15.4593C7.23801 15.339 7.53754 15.2924 7.85464 15.2708C8.15925 15.25 8.53029 15.25 8.97475 15.25H15.0253C15.4697 15.25 15.8408 15.25 16.1454 15.2708C16.4625 15.2924 16.762 15.339 17.0524 15.4593C17.7262 15.7384 18.2616 16.2738 18.5407 16.9476C18.5816 17.0465 18.614 17.1464 18.6398 17.2477ZM7.52165 16.8452C7.5988 16.8132 7.71602 16.7837 7.95675 16.7673C8.20421 16.7504 8.5238 16.75 9 16.75H15C15.4762 16.75 15.7958 16.7504 16.0433 16.7673C16.284 16.7837 16.4012 16.8132 16.4784 16.8452C16.7846 16.972 17.028 17.2154 17.1549 17.5216C17.1868 17.5988 17.2163 17.716 17.2327 17.9567C17.2496 18.2042 17.25 18.5238 17.25 19C17.25 19.4762 17.2496 19.7958 17.2327 20.0433C17.2163 20.284 17.1868 20.4012 17.1549 20.4784C17.028 20.7846 16.7846 21.028 16.4784 21.1549C16.4012 21.1868 16.284 21.2163 16.0433 21.2327C15.7958 21.2496 15.4762 21.25 15 21.25H9C8.5238 21.25 8.20421 21.2496 7.95675 21.2327C7.71602 21.2163 7.5988 21.1868 7.52165 21.1549C7.21536 21.028 6.97202 20.7846 6.84515 20.4784C6.8132 20.4012 6.78372 20.284 6.76729 20.0433C6.75041 19.7958 6.75 19.4762 6.75 19C6.75 18.5238 6.75041 18.2042 6.76729 17.9567C6.78372 17.716 6.8132 17.5988 6.84515 17.5216C6.97202 17.2154 7.21536 16.972 7.52165 16.8452Z"/>
</svg>
