<svg width="24" height="24" viewBox="0 0 24 24" xmlns="http://www.w3.org/2000/svg">
<path d="M13 17C13 17.5523 12.5523 18 12 18C11.4477 18 11 17.5523 11 17C11 16.4477 11.4477 16 12 16C12.5523 16 13 16.4477 13 17Z"/>
<path d="M9.75 9.8C9.75 8.71571 10.7078 7.75 12 7.75C13.2922 7.75 14.25 8.71571 14.25 9.8V9.96985C14.25 10.5412 14.0073 11.1006 13.5563 11.5216L11.4883 13.4517C11.1854 13.7343 11.1691 14.2089 11.4517 14.5117C11.7343 14.8146 12.2089 14.8309 12.5117 14.5483L14.5798 12.6181C15.3222 11.9252 15.75 10.9738 15.75 9.96985V9.8C15.75 7.79149 14.0215 6.25 12 6.25C9.97851 6.25 8.25 7.79149 8.25 9.8V10.5C8.25 10.9142 8.58579 11.25 9 11.25C9.41421 11.25 9.75 10.9142 9.75 10.5V9.8Z"/>
<path fill-rule="evenodd" clip-rule="evenodd" d="M1.25 12C1.25 6.06294 6.06294 1.25 12 1.25C17.9371 1.25 22.75 6.06294 22.75 12C22.75 17.9371 17.9371 22.75 12 22.75C6.06294 22.75 1.25 17.9371 1.25 12ZM12 2.75C6.89137 2.75 2.75 6.89137 2.75 12C2.75 17.1086 6.89137 21.25 12 21.25C17.1086 21.25 21.25 17.1086 21.25 12C21.25 6.89137 17.1086 2.75 12 2.75Z"/>
</svg>
