<svg width="24" height="24" viewBox="0 0 24 24" xmlns="http://www.w3.org/2000/svg">
<path fill-rule="evenodd" clip-rule="evenodd" d="M11.75 3C11.75 2.69665 11.5673 2.42318 11.287 2.30709C11.0068 2.191 10.6842 2.25517 10.4697 2.46967L2.46967 10.4697C2.17678 10.7626 2.17678 11.2374 2.46967 11.5303L10.4697 19.5303C10.6842 19.7448 11.0068 19.809 11.287 19.6929C11.5673 19.5768 11.75 19.3033 11.75 19V15.1013C15.7694 15.3413 19.0392 17.4937 20.317 20.3099C20.4629 20.6315 20.8134 20.8077 21.1585 20.7331C21.5037 20.6584 21.75 20.3531 21.75 20V18.993C21.75 12.8668 17.4173 7.76477 11.75 7.02251V3ZM10.25 14.329L10.25 14.331L10.25 14.333V17.1893L4.06066 11L10.25 4.81066V7.702C10.25 8.09705 10.5564 8.42437 10.9506 8.45037C15.5916 8.7565 19.4186 12.478 20.131 17.3484C18.0331 15.0366 14.6982 13.579 11 13.579C10.5858 13.579 10.25 13.9148 10.25 14.329Z"/>
</svg>
