<svg width="24" height="24" viewBox="0 0 24 24" xmlns="http://www.w3.org/2000/svg">
<path fill-rule="evenodd" clip-rule="evenodd" d="M16 1.25C13.9289 1.25 12.25 2.92893 12.25 5C12.25 7.07107 13.9289 8.75 16 8.75C17.8142 8.75 19.3275 7.46168 19.675 5.75L22 5.75C22.4142 5.75 22.75 5.41421 22.75 5C22.75 4.58579 22.4142 4.25 22 4.25L19.675 4.25C19.3275 2.53832 17.8142 1.25 16 1.25ZM13.75 5C13.75 3.75736 14.7574 2.75 16 2.75C17.2426 2.75 18.25 3.75736 18.25 5C18.25 6.24264 17.2426 7.25 16 7.25C14.7574 7.25 13.75 6.24264 13.75 5Z"/>
<path fill-rule="evenodd" clip-rule="evenodd" d="M1.25 12C1.25 11.5858 1.58579 11.25 2 11.25L4.32501 11.25C4.67247 9.53832 6.18578 8.25 8 8.25C10.0711 8.25 11.75 9.92893 11.75 12C11.75 14.0711 10.0711 15.75 8 15.75C6.18578 15.75 4.67247 14.4617 4.32501 12.75L2 12.75C1.58579 12.75 1.25 12.4142 1.25 12ZM5.75 12C5.75 13.2426 6.75736 14.25 8 14.25C9.24264 14.25 10.25 13.2426 10.25 12C10.25 10.7574 9.24264 9.75 8 9.75C6.75736 9.75 5.75 10.7574 5.75 12Z"/>
<path fill-rule="evenodd" clip-rule="evenodd" d="M16 22.75C17.8142 22.75 19.3275 21.4617 19.675 19.75L22 19.75C22.4142 19.75 22.75 19.4142 22.75 19C22.75 18.5858 22.4142 18.25 22 18.25L19.675 18.25C19.3275 16.5383 17.8142 15.25 16 15.25C13.9289 15.25 12.25 16.9289 12.25 19C12.25 21.0711 13.9289 22.75 16 22.75ZM16 16.75C14.7574 16.75 13.75 17.7574 13.75 19C13.75 20.2426 14.7574 21.25 16 21.25C17.2426 21.25 18.25 20.2426 18.25 19C18.25 17.7574 17.2426 16.75 16 16.75Z"/>
<path d="M1.25 19C1.25 18.5858 1.58579 18.25 2 18.25L10 18.25C10.4142 18.25 10.75 18.5858 10.75 19C10.75 19.4142 10.4142 19.75 10 19.75L2 19.75C1.58579 19.75 1.25 19.4142 1.25 19Z"/>
<path d="M14 11.25C13.5858 11.25 13.25 11.5858 13.25 12C13.25 12.4142 13.5858 12.75 14 12.75L22 12.75C22.4142 12.75 22.75 12.4142 22.75 12C22.75 11.5858 22.4142 11.25 22 11.25L14 11.25Z"/>
<path d="M1.25 5C1.25 4.58579 1.58579 4.25 2 4.25L10 4.25C10.4142 4.25 10.75 4.58579 10.75 5C10.75 5.41421 10.4142 5.75 10 5.75L2 5.75C1.58579 5.75 1.25 5.41421 1.25 5Z"/>
</svg>
