<svg id="soc-logo-yt" width="48" height="48" viewBox="0 0 48 48" xmlns="http://www.w3.org/2000/svg">
<path fill-rule="evenodd" clip-rule="evenodd" d="M0 4C0 1.79086 1.79086 0 4 0H44C46.2091 0 48 1.79086 48 4V44C48 46.2091 46.2091 48 44 48H4C1.79086 48 0 46.2091 0 44V4ZM36.265 18.0732C35.9706 16.9422 35.1031 16.0516 34.0016 15.7493C32.0054 15.2 24 15.2 24 15.2C24 15.2 15.9946 15.2 13.9983 15.7493C12.8967 16.0516 12.0292 16.9422 11.7348 18.0732C11.2 20.123 11.2 24.4 11.2 24.4C11.2 24.4 11.2 28.6768 11.7348 30.7268C12.0292 31.8578 12.8967 32.7484 13.9983 33.0508C15.9946 33.6 24 33.6 24 33.6C24 33.6 32.0054 33.6 34.0016 33.0508C35.1031 32.7484 35.9706 31.8578 36.265 30.7268C36.8 28.6768 36.8 24.4 36.8 24.4C36.8 24.4 36.8 20.123 36.265 18.0732ZM21.6 20.8V28.8L28 24.8002L21.6 20.8Z"/>
</svg>
