<svg width="16" height="16" viewBox="0 0 16 16" xmlns="http://www.w3.org/2000/svg">
<path d="M12.0017 1.39999C12.1608 1.39999 12.3134 1.46321 12.4259 1.57573L14.0933 3.24309C14.3276 3.47741 14.3276 3.8573 14.0933 4.09162C13.859 4.32593 13.4791 4.32593 13.2448 4.09162L12.6017 3.44852V13.338C12.6017 13.6694 12.3331 13.9381 12.0017 13.9381C11.6703 13.9381 11.4017 13.6694 11.4017 13.338V3.44852L10.7586 4.09162C10.5243 4.32593 10.1444 4.32593 9.91006 4.09162C9.67574 3.8573 9.67574 3.47741 9.91006 3.24309L11.5774 1.57573C11.6899 1.46321 11.8426 1.39999 12.0017 1.39999Z"/>
<path d="M1.39751 3.66444C1.39751 3.33307 1.66614 3.06444 1.99751 3.06444H8.00001C8.33139 3.06444 8.60001 3.33307 8.60001 3.66444C8.60001 3.99582 8.33139 4.26444 8.00001 4.26444H1.99751C1.66614 4.26444 1.39751 3.99582 1.39751 3.66444Z"/>
<path d="M2.73139 6.33223C2.73139 6.00086 3.00002 5.73223 3.33139 5.73223H8C8.33137 5.73223 8.6 6.00086 8.6 6.33223C8.6 6.6636 8.33137 6.93223 8 6.93223H3.33139C3.00002 6.93223 2.73139 6.6636 2.73139 6.33223Z"/>
<path d="M4.06528 9C4.06528 8.66863 4.33391 8.4 4.66528 8.4H8.00001C8.33138 8.4 8.60001 8.66863 8.60001 9C8.60001 9.33137 8.33138 9.6 8.00001 9.6H4.66528C4.33391 9.6 4.06528 9.33137 4.06528 9Z"/>
<path d="M4.999 11.6678C4.999 11.3364 5.26763 11.0678 5.599 11.0678H8C8.33137 11.0678 8.6 11.3364 8.6 11.6678C8.6 11.9992 8.33137 12.2678 8 12.2678H5.599C5.26763 12.2678 4.999 11.9992 4.999 11.6678Z"/>
</svg>
