<svg width="16" height="16" viewBox="0 0 16 16" xmlns="http://www.w3.org/2000/svg">
<path d="M12.6017 1.99999C12.6017 1.66862 12.333 1.39999 12.0017 1.39999C11.6703 1.39999 11.4017 1.66862 11.4017 1.99999V11.8895L10.7586 11.2464C10.5243 11.0121 10.1444 11.0121 9.91005 11.2464C9.67573 11.4807 9.67573 11.8606 9.91005 12.095L11.5774 13.7623C11.8117 13.9966 12.1916 13.9966 12.4259 13.7623L14.0933 12.095C14.3276 11.8606 14.3276 11.4807 14.0933 11.2464C13.859 11.0121 13.4791 11.0121 13.2448 11.2464L12.6017 11.8895V1.99999Z"/>
<path d="M1.9975 3.06444C1.66613 3.06444 1.3975 3.33307 1.3975 3.66444C1.3975 3.99582 1.66613 4.26444 1.9975 4.26444H8C8.33138 4.26444 8.6 3.99582 8.6 3.66444C8.6 3.33307 8.33138 3.06444 8 3.06444H1.9975Z"/>
<path d="M3.33138 5.73223C3.00001 5.73223 2.73138 6.00086 2.73138 6.33223C2.73138 6.6636 3.00001 6.93223 3.33138 6.93223H7.99999C8.33136 6.93223 8.59999 6.6636 8.59999 6.33223C8.59999 6.00086 8.33136 5.73223 7.99999 5.73223H3.33138Z"/>
<path d="M4.66528 8.4C4.3339 8.4 4.06528 8.66863 4.06528 9C4.06528 9.33137 4.3339 9.6 4.66528 9.6H8C8.33137 9.6 8.6 9.33137 8.6 9C8.6 8.66863 8.33137 8.4 8 8.4H4.66528Z"/>
<path d="M5.59899 11.0678C5.26762 11.0678 4.99899 11.3364 4.99899 11.6678C4.99899 11.9992 5.26762 12.2678 5.59899 12.2678H7.99999C8.33136 12.2678 8.59999 11.9992 8.59999 11.6678C8.59999 11.3364 8.33136 11.0678 7.99999 11.0678H5.59899Z"/>
</svg>
