<svg width="24" height="24" viewBox="0 0 24 24" xmlns="http://www.w3.org/2000/svg">
<path fill-rule="evenodd" clip-rule="evenodd" d="M10.8216 0.987429C11.5674 0.633706 12.4327 0.633707 13.1785 0.987431C13.6948 1.23231 14.061 1.69582 14.3855 2.2197C14.7118 2.74644 15.0698 3.46241 15.5156 4.35402L15.8923 5.10749C16.198 5.71886 16.2869 5.87908 16.3985 5.99589C16.5136 6.11637 16.6516 6.21263 16.8045 6.27899C16.9527 6.34332 17.1337 6.37135 17.8131 6.44684L18.1784 6.48743C19.2493 6.60641 20.1048 6.70146 20.7525 6.8332C21.3913 6.96313 21.9866 7.15547 22.4033 7.58063C22.9996 8.18893 23.2803 9.0392 23.1634 9.88292C23.0817 10.4726 22.7179 10.9816 22.282 11.4663C21.8401 11.9577 21.2093 12.5435 20.4197 13.2767L20.0465 13.6232C19.4483 14.1786 19.295 14.3357 19.2091 14.503C19.1204 14.6758 19.0731 14.8668 19.0711 15.061C19.0691 15.2488 19.1328 15.4631 19.4067 16.2438L19.4197 16.2808C19.8239 17.4328 20.144 18.3452 20.3258 19.055C20.5024 19.7445 20.6013 20.4216 20.3711 21.0079C20.0472 21.833 19.3454 22.4513 18.4861 22.6688C17.8772 22.823 17.2238 22.6434 16.5678 22.3847C15.8945 22.1191 15.0419 21.6928 13.9669 21.1553L13.0957 20.7197C12.5321 20.4379 12.3783 20.3686 12.2305 20.3408C12.0782 20.3123 11.9219 20.3123 11.7695 20.3408C11.6218 20.3686 11.468 20.4379 10.9044 20.7197L10.0331 21.1553C8.95814 21.6928 8.10553 22.1191 7.43219 22.3847C6.77627 22.6434 6.1228 22.823 5.51389 22.6688C4.65461 22.4513 3.95285 21.833 3.62892 21.0079C3.39874 20.4216 3.49767 19.7445 3.67424 19.055C3.856 18.3452 4.17614 17.4328 4.58037 16.2807L4.59333 16.2438C4.86725 15.4631 4.93095 15.2488 4.92897 15.061C4.92693 14.8668 4.87968 14.6758 4.79097 14.503C4.70505 14.3357 4.55169 14.1786 3.95356 13.6232L3.58037 13.2767C2.79075 12.5435 2.15997 11.9577 1.71801 11.4663C1.28213 10.9816 0.918334 10.4726 0.836645 9.88292C0.719766 9.0392 1.00046 8.18893 1.59669 7.58063C2.01341 7.15547 2.60872 6.96313 3.24751 6.8332C3.8952 6.70146 4.75071 6.60641 5.82166 6.48743L6.18696 6.44684C6.86631 6.37135 7.04738 6.34332 7.19557 6.27899C7.34842 6.21263 7.48645 6.11637 7.60157 5.99589C7.71316 5.87908 7.80206 5.71886 8.10775 5.1075L8.48449 4.35401C8.93028 3.46241 9.28826 2.74643 9.61455 2.2197C9.93907 1.69582 10.3053 1.2323 10.8216 0.987429ZM12.5357 2.34273C12.1967 2.18194 11.8034 2.18194 11.4644 2.34272C11.3574 2.39347 11.1816 2.53836 10.8897 3.0096C10.6038 3.47113 10.276 4.12516 9.80868 5.05974L9.44939 5.77832C9.435 5.8071 9.42081 5.83552 9.4068 5.8636C9.16449 6.34911 8.97401 6.73077 8.68613 7.03209C8.43289 7.29715 8.12921 7.50891 7.79294 7.6549C7.41068 7.82087 6.98669 7.86766 6.44736 7.92718C6.41617 7.93062 6.38459 7.93411 6.35261 7.93766L6.02644 7.9739C4.90748 8.09823 4.11978 8.1865 3.54649 8.3031C2.95642 8.42313 2.75019 8.54667 2.66793 8.6306C2.39692 8.9071 2.26933 9.29358 2.32246 9.6771C2.33858 9.7935 2.43072 10.0155 2.83336 10.4633C3.22455 10.8983 3.80488 11.4382 4.62989 12.2043L4.97424 12.524C5.00267 12.5504 5.03076 12.5764 5.0585 12.6022C5.53168 13.0408 5.90305 13.385 6.12528 13.8177C6.32045 14.1978 6.4244 14.618 6.42889 15.0452C6.434 15.5317 6.26427 16.0141 6.0476 16.6299C6.0348 16.6662 6.02183 16.7031 6.00873 16.7404C5.58869 17.9375 5.29095 18.7882 5.12735 19.4271C4.95663 20.0938 4.98376 20.3542 5.02517 20.4597C5.17241 20.8348 5.49139 21.1158 5.88197 21.2147C5.99353 21.2429 6.25274 21.2375 6.88181 20.9893C7.4861 20.751 8.27949 20.3551 9.3976 19.796L10.2335 19.3781C10.26 19.3648 10.2861 19.3518 10.3118 19.3389C10.7598 19.1145 11.1122 18.938 11.4929 18.8666C11.8281 18.8037 12.172 18.8037 12.5071 18.8666C12.8879 18.938 13.2402 19.1145 13.6882 19.3389C13.714 19.3518 13.7401 19.3648 13.7665 19.3781L14.6024 19.796C15.7205 20.3551 16.5139 20.751 17.1182 20.9893C17.7473 21.2375 18.0065 21.2429 18.1181 21.2147C18.5086 21.1158 18.8276 20.8348 18.9749 20.4597C19.0163 20.3542 19.0434 20.0938 18.8727 19.4271C18.7091 18.7882 18.4113 17.9375 17.9913 16.7404C17.9782 16.7031 17.9652 16.6663 17.9524 16.6299C17.7358 16.0141 17.566 15.5317 17.5711 15.0452C17.5756 14.618 17.6796 14.1978 17.8748 13.8177C18.097 13.385 18.4684 13.0408 18.9415 12.6022C18.9693 12.5765 18.9974 12.5504 19.0258 12.524L19.3701 12.2043C20.1952 11.4382 20.7755 10.8983 21.1667 10.4633C21.5693 10.0155 21.6615 9.7935 21.6776 9.6771C21.7307 9.29358 21.6031 8.9071 21.3321 8.6306C21.2499 8.54667 21.0436 8.42313 20.4536 8.3031C19.8803 8.1865 19.0926 8.09823 17.9736 7.9739L17.6474 7.93766C17.6155 7.93411 17.5839 7.93062 17.5527 7.92718C17.0133 7.86766 16.5894 7.82087 16.2071 7.6549C15.8708 7.50891 15.5671 7.29715 15.3139 7.03209C15.026 6.73077 14.8355 6.34911 14.5932 5.8636C14.5792 5.83552 14.565 5.80709 14.5507 5.77831L14.1914 5.05975C13.7241 4.12516 13.3962 3.47113 13.1103 3.00961C12.8184 2.53837 12.6427 2.39347 12.5357 2.34273Z"/>
</svg>
