<svg width="24" height="24" viewBox="0 0 24 24" xmlns="http://www.w3.org/2000/svg">
<path d="M11.0756 10.3256C11.0756 9.91137 10.7398 9.57558 10.3256 9.57558C9.91139 9.57558 9.5756 9.91137 9.5756 10.3256V16.186C9.5756 16.6003 9.91139 16.936 10.3256 16.936C10.7398 16.936 11.0756 16.6003 11.0756 16.186V10.3256Z"/>
<path d="M13.6744 9.57558C14.0887 9.57558 14.4244 9.91137 14.4244 10.3256V13.6744C14.4244 14.0886 14.0887 14.4244 13.6744 14.4244C13.2602 14.4244 12.9244 14.0886 12.9244 13.6744V10.3256C12.9244 9.91137 13.2602 9.57558 13.6744 9.57558Z"/>
<path fill-rule="evenodd" clip-rule="evenodd" d="M10.9366 2.87791L10.839 2.87778C10.418 2.87694 10.0177 2.87615 9.65939 3.01709C9.3469 3.13999 9.07026 3.33938 8.85484 3.59697C8.60783 3.89235 8.48202 4.2723 8.34966 4.672L8.31891 4.76464L8.11062 5.38953H3.62793C3.21372 5.38953 2.87793 5.72532 2.87793 6.13953C2.87793 6.55375 3.21372 6.88953 3.62793 6.88953H4.59517L5.09602 15.404C5.14666 16.265 5.18728 16.9556 5.26487 17.5133C5.34467 18.0867 5.47053 18.5808 5.7247 19.0327C6.13293 19.7585 6.75253 20.3427 7.50102 20.7076C7.96706 20.9348 8.46765 21.0314 9.04482 21.0774C9.60609 21.1221 10.2978 21.1221 11.1603 21.1221H12.8397C13.7021 21.1221 14.394 21.1221 14.9552 21.0774C15.5324 21.0314 16.033 20.9348 16.499 20.7076C17.2475 20.3427 17.8671 19.7585 18.2753 19.0327C18.5295 18.5808 18.6554 18.0867 18.7352 17.5133C18.8128 16.9556 18.8534 16.265 18.904 15.404L19.4049 6.88953H20.3721C20.7863 6.88953 21.1221 6.55375 21.1221 6.13953C21.1221 5.72532 20.7863 5.38953 20.3721 5.38953H15.8894L15.6811 4.76464L15.6504 4.672C15.518 4.2723 15.3922 3.89235 15.1452 3.59697C14.9298 3.33938 14.6531 3.13999 14.3407 3.01709C13.9823 2.87615 13.5821 2.87694 13.161 2.87778L13.0634 2.87791H10.9366ZM15.3314 6.88953C15.3429 6.88981 15.3545 6.88981 15.3662 6.88953H17.9023L17.4085 15.2846C17.3555 16.1841 17.3179 16.815 17.2495 17.3065C17.1823 17.7891 17.0927 18.0756 16.968 18.2973C16.7091 18.7575 16.3163 19.1279 15.8417 19.3593C15.6131 19.4707 15.3217 19.5434 14.8361 19.5821C14.3414 19.6215 13.7094 19.6221 12.8083 19.6221H11.1918C10.2906 19.6221 9.65866 19.6215 9.16394 19.5821C8.6783 19.5434 8.38698 19.4707 8.15834 19.3593C7.68377 19.1279 7.29092 18.7575 7.03208 18.2973C6.90738 18.0756 6.8177 17.7891 6.75056 17.3065C6.68217 16.815 6.6445 16.1841 6.59159 15.2846L6.09776 6.88953H8.63389C8.64552 6.88981 8.65712 6.88981 8.66869 6.88953H15.3314ZM14.3083 5.38953L14.2581 5.23898C14.0732 4.68423 14.034 4.60638 13.9945 4.55924C13.9402 4.49428 13.8704 4.444 13.7916 4.413C13.7345 4.39051 13.6482 4.37791 13.0634 4.37791H10.9366C10.3519 4.37791 10.2656 4.39051 10.2084 4.413C10.1296 4.444 10.0598 4.49428 10.0055 4.55924C9.96609 4.60638 9.92686 4.68423 9.74194 5.23898L9.69175 5.38953H14.3083Z"/>
</svg>
