<svg width="24" height="24" viewBox="0 0 24 24" xmlns="http://www.w3.org/2000/svg">
<path d="M2 3.25C1.58579 3.25 1.25 3.58579 1.25 4C1.25 4.41421 1.58579 4.75 2 4.75H7C7.41421 4.75 7.75 4.41421 7.75 4C7.75 3.58579 7.41421 3.25 7 3.25H2Z"/>
<path d="M2 6.25C1.58579 6.25 1.25 6.58579 1.25 7C1.25 7.41421 1.58579 7.75 2 7.75H5C5.41421 7.75 5.75 7.41421 5.75 7C5.75 6.58579 5.41421 6.25 5 6.25H2Z"/>
<path d="M2 9.25C1.58579 9.25 1.25 9.58579 1.25 10C1.25 10.4142 1.58579 10.75 2 10.75H3C3.41421 10.75 3.75 10.4142 3.75 10C3.75 9.58579 3.41421 9.25 3 9.25H2Z"/>
<path fill-rule="evenodd" clip-rule="evenodd" d="M9.25 4C9.25 3.58579 9.58579 3.25 10 3.25H14C14.9662 3.25 15.75 4.03379 15.75 5V6.25H19.323C20.0382 6.25 20.6831 6.68568 20.948 7.35204C21.4833 8.68998 22.0185 10.0277 22.5538 11.3655C22.6824 11.6886 22.75 12.0346 22.75 12.385V18.333C22.75 19.2992 21.9662 20.083 21 20.083H19.8215C19.7145 20.443 19.5188 20.7822 19.2343 21.0663C18.3227 21.978 16.8445 21.9786 15.9332 21.0659C15.6723 20.8048 15.486 20.4973 15.3745 20.17H8.79372C8.6822 20.4975 8.49575 20.8052 8.23433 21.0663C7.32267 21.978 5.84447 21.9786 4.93324 21.0659C4.67161 20.8038 4.48501 20.4949 4.37364 20.166H3C2.03379 20.166 1.25 19.3822 1.25 18.416V13C1.25 12.5858 1.58579 12.25 2 12.25C2.41421 12.25 2.75 12.5858 2.75 13V14.25H14.25V5C14.25 4.86221 14.1378 4.75 14 4.75H10C9.58579 4.75 9.25 4.41421 9.25 4ZM19.765 18.583C19.6513 18.2851 19.4744 18.0057 19.2343 17.7657C18.3232 16.8535 16.8456 16.8542 15.9341 17.7652C15.6703 18.0286 15.4828 18.3393 15.3716 18.67H8.79618C8.68492 18.3395 8.49762 18.029 8.23433 17.7657C7.32189 16.8532 5.84535 16.8555 4.9341 17.7652C4.6713 18.0276 4.48436 18.3369 4.37306 18.666H3C2.86221 18.666 2.75 18.5538 2.75 18.416V15.75H15C15.4142 15.75 15.75 15.4142 15.75 15V7.75H19.323C19.4257 7.75 19.5169 7.81248 19.554 7.90596L20.0918 9.25H18C17.5858 9.25 17.25 9.58579 17.25 10V14C17.25 14.4142 17.5858 14.75 18 14.75H21.25V18.333C21.25 18.4708 21.1378 18.583 21 18.583H19.765ZM21.25 12.385C21.25 12.2274 21.2196 12.0696 21.1603 11.9208L20.6919 10.75H18.75V13.25H21.25V12.385ZM7.17367 18.8263C6.84811 18.5008 6.32065 18.5005 5.9939 18.8268C5.66915 19.151 5.6683 19.6791 5.99476 20.0061C6.31953 20.3314 6.84776 20.3316 7.1741 20.0052C7.4994 19.6805 7.50001 19.1527 7.17367 18.8263ZM16.9943 20.0057C16.8353 19.8467 16.7539 19.6259 16.7499 19.418C16.7528 19.2085 16.8346 18.9858 16.9943 18.8263C17.3207 18.5 17.8489 18.501 18.1737 18.8263C18.5 19.1527 18.499 19.6809 18.1737 20.0057C17.8473 20.332 17.3191 20.331 16.9943 20.0057Z"/>
</svg>
