<svg id="tt_briefcase" viewBox="0 0 48 48" xmlns="http://www.w3.org/2000/svg">
	<path opacity="0.12" d="M10.4 44H37.6C39.8402 44 40.9603 44 41.816 43.564C42.5686 43.1805 43.1805 42.5686 43.564 41.816C44 40.9603 44 39.8402 44 37.6V21C40 24 30 26 24 26C18 26 8 24 4 21V37.6C4 39.8402 4 40.9603 4.43597 41.816C4.81947 42.5686 5.43139 43.1805 6.18404 43.564C7.03969 44 8.15979 44 10.4 44Z"/>
	<path fill-rule="evenodd" clip-rule="evenodd" d="M22.367 3.25C21.2749 3.24999 20.4094 3.24999 19.7117 3.30699C18.9983 3.36527 18.3947 3.48688 17.8435 3.76772C16.9498 4.22312 16.2231 4.94978 15.7677 5.84355C15.4869 6.39472 15.3653 6.99834 15.307 7.71173C15.25 8.40935 15.25 9.27483 15.25 10.367V11.25H10.367C9.27488 11.25 8.40934 11.25 7.71173 11.307C6.99834 11.3653 6.39472 11.4869 5.84354 11.7677C4.94978 12.2231 4.22312 12.9498 3.76772 13.8435C3.48688 14.3947 3.36527 14.9983 3.30699 15.7117C3.24999 16.4094 3.24999 17.2749 3.25 18.367V37.633C3.24999 38.7251 3.24999 39.5906 3.30699 40.2883C3.36527 41.0017 3.48688 41.6053 3.76772 42.1565C4.22312 43.0502 4.94978 43.7769 5.84354 44.2323C6.39472 44.5131 6.99834 44.6347 7.71173 44.693C8.40935 44.75 9.27484 44.75 10.367 44.75H37.633C38.7252 44.75 39.5906 44.75 40.2883 44.693C41.0017 44.6347 41.6053 44.5131 42.1565 44.2323C43.0502 43.7769 43.7769 43.0502 44.2323 42.1565C44.5131 41.6053 44.6347 41.0017 44.693 40.2883C44.75 39.5906 44.75 38.7252 44.75 37.633V18.367C44.75 17.2748 44.75 16.4094 44.693 15.7117C44.6347 14.9983 44.5131 14.3947 44.2323 13.8435C43.7769 12.9498 43.0502 12.2231 42.1565 11.7677C41.6053 11.4869 41.0017 11.3653 40.2883 11.307C39.5906 11.25 38.7251 11.25 37.633 11.25H32.75V10.367C32.75 9.27485 32.75 8.40935 32.693 7.71173C32.6347 6.99834 32.5131 6.39472 32.2323 5.84355C31.7769 4.94978 31.0502 4.22312 30.1565 3.76772C29.6053 3.48688 29.0017 3.36527 28.2883 3.30699C27.5906 3.24999 26.7251 3.24999 25.633 3.25H22.367ZM31.25 11.25V10.4C31.25 9.26752 31.2494 8.46326 31.198 7.83388C31.1473 7.21325 31.0509 6.829 30.8958 6.52453C30.5842 5.913 30.087 5.41582 29.4755 5.10423C29.171 4.94909 28.7867 4.85271 28.1661 4.80201C27.5367 4.75058 26.7325 4.75 25.6 4.75H22.4C21.2675 4.75 20.4633 4.75058 19.8339 4.80201C19.2133 4.85271 18.829 4.94909 18.5245 5.10423C17.913 5.41582 17.4158 5.913 17.1042 6.52453C16.9491 6.829 16.8527 7.21325 16.802 7.83388C16.7506 8.46326 16.75 9.26752 16.75 10.4V11.25H31.25ZM37.6 12.75C38.7325 12.75 39.5367 12.7506 40.1661 12.802C40.7867 12.8527 41.171 12.9491 41.4755 13.1042C42.087 13.4158 42.5842 13.913 42.8958 14.5245C43.0509 14.829 43.1473 15.2133 43.198 15.8339C43.2494 16.4633 43.25 17.2675 43.25 18.4V21.2929C43.0755 21.2312 42.878 21.2335 42.6956 21.3146L42.6911 21.3166L42.6738 21.3241C42.658 21.331 42.6336 21.3416 42.601 21.3556C42.5359 21.3835 42.4376 21.4251 42.3082 21.4784C42.0494 21.5849 41.6662 21.7382 41.1742 21.9228C40.1899 22.2919 38.7716 22.7852 37.044 23.2789C35.7627 23.6449 34.3147 24.0101 32.75 24.3249V22C32.75 21.5858 32.4142 21.25 32 21.25C31.5858 21.25 31.25 21.5858 31.25 22V24.6039C28.9833 24.9904 26.522 25.25 24 25.25C21.478 25.25 19.0167 24.9904 16.75 24.6039V22C16.75 21.5858 16.4142 21.25 16 21.25C15.5858 21.25 15.25 21.5858 15.25 22V24.3249C13.6853 24.0101 12.2373 23.6449 10.956 23.2789C9.22836 22.7852 7.81014 22.2919 6.82584 21.9228C6.33383 21.7382 5.95063 21.5849 5.69181 21.4784C5.56242 21.4251 5.46415 21.3835 5.39896 21.3556C5.36636 21.3416 5.34204 21.331 5.32623 21.3241L5.30894 21.3166L5.30514 21.3149C5.12267 21.2338 4.92447 21.2312 4.75 21.2929V18.4C4.75 17.2675 4.75058 16.4633 4.80201 15.8339C4.85271 15.2133 4.94909 14.829 5.10423 14.5245C5.41582 13.913 5.913 13.4158 6.52453 13.1042C6.829 12.9491 7.21325 12.8527 7.83388 12.802C8.46326 12.7506 9.26752 12.75 10.4 12.75H37.6ZM31.25 26.1249C28.982 26.5001 26.5242 26.75 24 26.75C21.4758 26.75 19.018 26.5001 16.75 26.1249V28C16.75 28.4142 16.4142 28.75 16 28.75C15.5858 28.75 15.25 28.4142 15.25 28V25.8542C13.5241 25.5169 11.9349 25.1186 10.544 24.7211C8.77164 24.2148 7.31486 23.7081 6.29916 23.3272C5.79117 23.1368 5.39312 22.9776 5.12069 22.8654C4.98446 22.8093 4.8796 22.7649 4.80808 22.7343L4.75 22.7092V37.6C4.75 38.7325 4.75058 39.5367 4.80201 40.1661C4.85271 40.7867 4.94909 41.171 5.10423 41.4755C5.41582 42.087 5.913 42.5842 6.52453 42.8958C6.829 43.0509 7.21325 43.1473 7.83388 43.198C8.46327 43.2494 9.26752 43.25 10.4 43.25H37.6C38.7325 43.25 39.5367 43.2494 40.1661 43.198C40.7867 43.1473 41.171 43.0509 41.4755 42.8958C42.087 42.5842 42.5842 42.087 42.8958 41.4755C43.0509 41.171 43.1473 40.7867 43.198 40.1661C43.2494 39.5367 43.25 38.7325 43.25 37.6V22.7092L43.1919 22.7343C43.1204 22.7649 43.0155 22.8093 42.8793 22.8654C42.6069 22.9776 42.2088 23.1368 41.7008 23.3272C40.6851 23.7081 39.2284 24.2148 37.456 24.7211C36.0651 25.1186 34.4759 25.5169 32.75 25.8542V28C32.75 28.4142 32.4142 28.75 32 28.75C31.5858 28.75 31.25 28.4142 31.25 28V26.1249Z"/>
</svg>