<svg id="tt_cart" viewBox="0 0 48 48" xmlns="http://www.w3.org/2000/svg">
	<path opacity="0.12" d="M20 13.2C20 12.0799 20 11.5198 20.218 11.092C20.4097 10.7157 20.7157 10.4097 21.092 10.218C21.5198 10 22.0799 10 23.2 10H36.8C37.9201 10 38.4802 10 38.908 10.218C39.2843 10.4097 39.5903 10.7157 39.782 11.092C40 11.5198 40 12.0799 40 13.2V26.8C40 27.9201 40 28.4802 39.782 28.908C39.5903 29.2843 39.2843 29.5903 38.908 29.782C38.4802 30 37.9201 30 36.8 30H23.2C22.0799 30 21.5198 30 21.092 29.782C20.7157 29.5903 20.4097 29.2843 20.218 28.908C20 28.4802 20 27.9201 20 26.8V13.2Z"/>
	<path fill-rule="evenodd" clip-rule="evenodd" d="M1.99991 1.2501L3.86659 1.25C4.57961 1.25001 5.15717 1.25002 5.62917 1.28616C6.11703 1.32351 6.54777 1.40238 6.95689 1.58937C7.61114 1.88838 8.16558 2.36926 8.5541 2.97465C8.79706 3.35323 8.93604 3.76849 9.042 4.24616C9.14451 4.7083 9.22619 5.28006 9.32701 5.9859L12.1537 25.7728C12.2597 26.5148 12.3338 27.0296 12.4224 27.4291C12.509 27.8195 12.5985 28.0443 12.7083 28.2153C12.9414 28.5786 13.2741 28.8671 13.6667 29.0465C13.8515 29.131 14.0867 29.1878 14.4854 29.2183C14.8934 29.2496 15.4135 29.2501 16.163 29.2501L19.5506 29.2501C19.5503 29.2495 19.55 29.249 19.5497 29.2485C19.3779 28.9112 19.3108 28.5545 19.2797 28.1746C19.25 27.8104 19.25 27.3646 19.25 26.8304V13.1695C19.25 12.6354 19.25 12.1895 19.2797 11.8253C19.3108 11.4454 19.3779 11.0888 19.5497 10.7515C19.8134 10.2341 20.2341 9.81336 20.7515 9.54971C21.0888 9.37787 21.4454 9.31076 21.8253 9.27972C22.1896 9.24996 22.6354 9.24997 23.1696 9.24998H36.8304C37.3646 9.24997 37.8104 9.24996 38.1747 9.27972C38.5546 9.31076 38.9112 9.37787 39.2485 9.54971C39.7659 9.81336 40.1866 10.2341 40.4503 10.7515C40.6221 11.0888 40.6892 11.4454 40.7203 11.8253C40.75 12.1895 40.75 12.6354 40.75 13.1695V26.8304C40.75 27.3646 40.75 27.8104 40.7203 28.1746C40.6892 28.5545 40.6221 28.9112 40.4503 29.2485C40.45 29.249 40.4497 29.2495 40.4495 29.25L44 29.25C44.4142 29.25 44.75 29.5858 44.75 30C44.75 30.4142 44.4142 30.75 44 30.75L16.1335 30.7501C15.4205 30.7501 14.8429 30.7501 14.3709 30.714C13.8831 30.6766 13.4523 30.5978 13.0432 30.4108C12.3889 30.1118 11.8344 29.6309 11.4459 29.0255C11.2029 28.6469 11.064 28.2317 10.958 27.754C10.8555 27.2919 10.7738 26.7202 10.673 26.0144L7.84626 6.22724C7.74027 5.4853 7.66622 4.97051 7.57759 4.571C7.491 4.18066 7.40145 3.95581 7.2917 3.78481C7.05859 3.42157 6.72593 3.13304 6.33338 2.95363C6.14857 2.86917 5.91332 2.81231 5.51466 2.78178C5.10663 2.75054 4.58654 2.75002 3.83707 2.75L2.00009 2.7501C1.58588 2.75015 1.25005 2.41441 1.25 2.00019C1.24995 1.58598 1.58569 1.25015 1.99991 1.2501ZM36.8 29.25C37.3724 29.25 37.7566 29.2494 38.0525 29.2252C38.3396 29.2018 38.4769 29.1599 38.5675 29.1137C38.8027 28.9939 38.9939 28.8027 39.1138 28.5675C39.1599 28.4769 39.2018 28.3396 39.2252 28.0525C39.2494 27.7566 39.25 27.3724 39.25 26.8V13.2C39.25 12.6276 39.2494 12.2433 39.2252 11.9475C39.2018 11.6603 39.1599 11.5231 39.1138 11.4325C38.9939 11.1973 38.8027 11.0061 38.5675 10.8862C38.4769 10.8401 38.3396 10.7982 38.0525 10.7747C37.7566 10.7506 37.3724 10.75 36.8 10.75H23.2C22.6276 10.75 22.2434 10.7506 21.9475 10.7747C21.6604 10.7982 21.5231 10.8401 21.4325 10.8862C21.1973 11.0061 21.0061 11.1973 20.8862 11.4325C20.8401 11.5231 20.7982 11.6603 20.7748 11.9475C20.7506 12.2433 20.75 12.6276 20.75 13.2V26.8C20.75 27.3724 20.7506 27.7566 20.7748 28.0525C20.7982 28.3396 20.8401 28.4769 20.8862 28.5675C21.0061 28.8027 21.1973 28.9939 21.4325 29.1137C21.5231 29.1599 21.6604 29.2018 21.9475 29.2252C22.2434 29.2494 22.6276 29.25 23.2 29.25H36.8Z"/>
	<path fill-rule="evenodd" clip-rule="evenodd" d="M18 35.25C15.3766 35.25 13.25 37.3766 13.25 40C13.25 42.6233 15.3766 44.75 18 44.75C20.6234 44.75 22.75 42.6233 22.75 40C22.75 37.3766 20.6234 35.25 18 35.25ZM14.75 40C14.75 38.2051 16.2051 36.75 18 36.75C19.7949 36.75 21.25 38.2051 21.25 40C21.25 41.7949 19.7949 43.25 18 43.25C16.2051 43.25 14.75 41.7949 14.75 40Z"/>
	<path fill-rule="evenodd" clip-rule="evenodd" d="M38 35.25C35.3766 35.25 33.25 37.3766 33.25 40C33.25 42.6233 35.3766 44.75 38 44.75C40.6234 44.75 42.75 42.6233 42.75 40C42.75 37.3766 40.6234 35.25 38 35.25ZM34.75 40C34.75 38.2051 36.2051 36.75 38 36.75C39.7949 36.75 41.25 38.2051 41.25 40C41.25 41.7949 39.7949 43.25 38 43.25C36.2051 43.25 34.75 41.7949 34.75 40Z"/>
</svg>