<svg id="tt_call" viewBox="0 0 48 48" xmlns="http://www.w3.org/2000/svg">
	<path opacity="0.12" d="M37.9042 31.4761L39.3208 31.8303C40.892 32.2231 41.6776 32.4195 42.2773 32.8349C42.9446 33.2971 43.4555 33.9515 43.7421 34.711C43.9997 35.3936 43.9997 36.1831 43.9997 37.7623C43.9997 39.7906 43.9997 40.8048 43.5827 41.645C43.1538 42.5092 42.2385 43.3191 41.3285 43.6396C40.4438 43.9512 39.5748 43.8446 37.8369 43.6315C31.6075 42.8676 26.0439 40.934 21.3154 38C16.4665 34.9912 12.4957 30.9304 9.58551 26C6.88325 21.4219 5.09542 16.094 4.36809 10.1624C4.15502 8.42467 4.04848 7.55581 4.3601 6.6711C4.68063 5.7611 5.49048 4.84589 6.3547 4.41698C7.19491 4 8.18886 4 10.1767 4C11.7963 4 12.6061 4 13.2887 4.25754C14.0482 4.54413 14.7025 5.05504 15.1648 5.72239C15.5802 6.3221 15.7766 7.10772 16.1694 8.67892L16.414 9.65723C16.9949 11.9809 17.2853 13.1427 17.2416 14.2829C17.2028 15.2926 16.9732 16.2858 16.5647 17.21C16.1034 18.2536 15.3324 19.17 13.7903 21.0027L9.58551 26C12.4957 30.9304 16.4665 34.9912 21.3154 38L27.1278 33.6479C28.9176 32.3077 29.8125 31.6377 30.8091 31.2438C31.692 30.8948 32.6299 30.7058 33.5791 30.6855C34.6504 30.6627 35.735 30.9338 37.9042 31.4761Z"/>
	<path fill-rule="evenodd" clip-rule="evenodd" d="M10.5048 26.0732L14.4512 21.383C15.9111 19.6481 16.7465 18.6554 17.2513 17.5132C17.6981 16.5024 17.9493 15.416 17.9917 14.3117C18.0395 13.0639 17.7248 11.8052 17.1748 9.60566L16.8585 8.34048C16.5039 6.92034 16.2763 6.00913 15.782 5.29539C15.233 4.50291 14.456 3.89621 13.5541 3.55589C12.7417 3.24938 11.8026 3.24963 10.3388 3.25003L10.1439 3.25006C9.17832 3.25005 8.40571 3.25004 7.77127 3.30498C7.11594 3.36172 6.5559 3.48021 6.02191 3.74523C4.98275 4.26095 4.03874 5.32779 3.65333 6.42199C3.28262 7.47443 3.40998 8.51036 3.60517 10.098L3.62429 10.2537C4.36316 16.2795 6.18148 21.7074 8.94025 26.3813C11.9119 31.4158 15.9685 35.5646 20.9206 38.6373C25.7489 41.6333 31.4178 43.6 37.7462 44.376L37.9019 44.3951C39.4898 44.5904 40.5259 44.7177 41.5783 44.347C42.6725 43.9616 43.7394 43.0176 44.2551 41.9785C44.5209 41.4429 44.6389 40.8767 44.6955 40.2129C44.7503 39.5688 44.7503 38.7815 44.7503 37.7955L44.7503 37.6071C44.7507 36.1778 44.7509 35.2586 44.4445 34.4463C44.1041 33.5443 43.4974 32.7673 42.705 32.2184C41.9912 31.724 41.08 31.4965 39.6599 31.1418L37.9657 30.7183C35.9117 30.2047 34.7362 29.9108 33.5637 29.9358C32.5256 29.9579 31.4997 30.1647 30.534 30.5463C29.4434 30.9774 28.4734 31.7038 26.7787 32.9729L21.2796 37.0904C16.8778 34.2698 13.2379 30.5493 10.5048 26.0732ZM13.0245 4.95931C12.5012 4.76185 11.8597 4.75006 10.1774 4.75006C9.17069 4.75006 8.4629 4.7507 7.90066 4.79938C7.35199 4.84689 6.99496 4.93688 6.68874 5.08886C5.99945 5.43094 5.32378 6.19452 5.06813 6.92032C4.82756 7.6033 4.89255 8.27215 5.11314 10.0712C5.78026 15.5117 7.35211 20.4227 9.70471 24.6942L13.2171 20.5199C14.7878 18.6531 15.4715 17.8296 15.8793 16.9069C16.2495 16.0693 16.4576 15.1692 16.4928 14.2542C16.5315 13.246 16.2787 12.206 15.687 9.83919L15.4424 8.86088C15.0344 7.22883 14.8674 6.60929 14.5489 6.1495C14.1733 5.60727 13.6416 5.19216 13.0245 4.95931ZM22.6598 37.9309C27.0798 40.4861 32.212 42.1861 37.9288 42.8872C39.7281 43.1078 40.397 43.1728 41.08 42.9322C41.8058 42.6766 42.5694 42.0009 42.9115 41.3116C43.0627 41.007 43.1531 40.646 43.2009 40.0856C43.2497 39.5126 43.2503 38.7891 43.2503 37.7624C43.2503 36.1228 43.2387 35.4996 43.041 34.9758C42.8082 34.3587 42.3931 33.827 41.8509 33.4515C41.3911 33.133 40.7715 32.9659 39.1395 32.5579L37.7229 32.2038C35.5137 31.6515 34.5431 31.4152 33.5957 31.4354C32.7355 31.4538 31.8855 31.6251 31.0854 31.9413C30.2041 32.2896 29.4008 32.8834 27.578 34.2483L22.6598 37.9309Z"/>
	<path d="M27.2503 14.0001C27.2503 13.5858 27.5861 13.2501 28.0003 13.2501C29.7494 13.2501 31.3794 14.353 32.5478 15.6013C33.1899 16.2873 33.731 17.0563 34.1151 17.8038C34.4917 18.5366 34.7503 19.3126 34.7503 20.0001C34.7503 20.4143 34.4145 20.7501 34.0003 20.7501C33.5861 20.7501 33.2503 20.4143 33.2503 20.0001C33.2503 19.651 33.1059 19.1217 32.781 18.4894C32.4637 17.8719 32.0048 17.2162 31.4527 16.6264C30.4016 15.5034 29.1414 14.7501 28.0003 14.7501C27.5861 14.7501 27.2503 14.4143 27.2503 14.0001Z"/>
	<path d="M27.2503 8.00006C27.2503 7.58584 27.5861 7.25006 28.0003 7.25006C35.0419 7.25006 40.7503 12.9584 40.7503 20.0001C40.7503 20.4143 40.4145 20.7501 40.0003 20.7501C39.5861 20.7501 39.2503 20.4143 39.2503 20.0001C39.2503 13.7869 34.2135 8.75006 28.0003 8.75006C27.5861 8.75006 27.2503 8.41427 27.2503 8.00006Z"/>
</svg>