<svg id="tt_file" viewBox="0 0 49 48" xmlns="http://www.w3.org/2000/svg">
	<path opacity="0.12" d="M28.4004 4.23214V9.60006C28.4004 11.8403 28.4004 12.9604 28.8364 13.816C29.2199 14.5687 29.8318 15.1806 30.5844 15.5641C31.4401 16.0001 32.5602 16.0001 34.8004 16.0001H40.1676C40.4004 17.098 40.4004 18.3172 40.4004 20.6274V28C40.4004 33.6005 40.4004 36.4008 39.3105 38.5399C38.3517 40.4215 36.8219 41.9513 34.9403 42.9101C32.8012 44 30.0009 44 24.4004 44C18.7999 44 15.9996 44 13.8605 42.9101C11.9789 41.9513 10.4491 40.4215 9.49033 38.5399C8.40039 36.4008 8.40039 33.6005 8.40039 28V19.5563C8.40039 14.3739 8.40039 11.7827 9.33758 9.77325C10.3311 7.64295 12.0433 5.93072 14.1736 4.93719C16.1831 4 18.7743 4 23.9567 4C26.2054 4 27.3376 4 28.4004 4.23214Z"/>
	<path fill-rule="evenodd" clip-rule="evenodd" d="M28.5853 3.50489C27.4353 3.2499 26.2266 3.24994 24.0603 3.25L23.9247 3.25C21.3606 3.25 19.3938 3.25 17.8187 3.36929C16.2292 3.48968 14.9776 3.73469 13.8566 4.25748C11.5666 5.32553 9.72592 7.16617 8.65787 9.45625C8.13508 10.5772 7.89006 11.8288 7.76968 13.4183C7.65039 14.9934 7.65039 16.9602 7.65039 19.5243V28.0347C7.65039 30.8056 7.65039 32.931 7.78912 34.6291C7.92915 36.343 8.21425 37.6875 8.82207 38.8804C9.85271 40.9031 11.4973 42.5477 13.52 43.5783C14.7129 44.1861 16.0574 44.4712 17.7713 44.6113C19.4694 44.75 21.5947 44.75 24.3656 44.75H24.4351C27.206 44.75 29.3314 44.75 31.0294 44.6113C32.7433 44.4712 34.0879 44.1861 35.2808 43.5783C37.3035 42.5477 38.9481 40.9031 39.9787 38.8804C40.5865 37.6875 40.8716 36.343 41.0117 34.6291C41.1504 32.931 41.1504 30.8057 41.1504 28.0347V20.5155C41.1505 18.1759 41.1505 16.8703 40.8534 15.6326C40.59 14.5357 40.1557 13.4871 39.5663 12.5253C38.9012 11.44 37.978 10.5168 36.3235 8.86248L35.4138 7.95279C33.8821 6.42095 33.0274 5.56625 32.0339 4.93337C30.9765 4.25974 29.8094 3.7763 28.5853 3.50489ZM27.6627 4.86412C26.8268 4.75265 25.7961 4.75 23.9567 4.75C21.3541 4.75 19.4439 4.7505 17.932 4.86501C16.4279 4.97892 15.3792 5.2025 14.4906 5.6169C12.5201 6.53592 10.9363 8.11973 10.0173 10.0903C9.60289 10.9788 9.37931 12.0275 9.2654 13.5316C9.15089 15.0435 9.15039 16.9537 9.15039 19.5564V28C9.15039 30.8126 9.15097 32.877 9.28414 34.5069C9.41659 36.1281 9.67646 37.2532 10.1586 38.1994C11.0454 39.9399 12.4605 41.355 14.201 42.2418C15.1472 42.7239 16.2723 42.9838 17.8935 43.1163C19.5234 43.2494 21.5878 43.25 24.4004 43.25C27.213 43.25 29.2774 43.2494 30.9073 43.1163C32.5284 42.9838 33.6536 42.7239 34.5998 42.2418C36.3403 41.355 37.7554 39.9399 38.6422 38.1994C39.1243 37.2532 39.3842 36.1281 39.5166 34.5069C39.6498 32.877 39.6504 30.8126 39.6504 28V20.6274C39.6504 18.722 39.6475 17.6201 39.5327 16.7384C39.4898 16.746 39.4455 16.75 39.4004 16.75H34.7674C33.6752 16.75 32.8097 16.75 32.1121 16.693C31.3987 16.6347 30.7951 16.5131 30.2439 16.2323C29.3502 15.7769 28.6235 15.0502 28.1681 14.1565C27.8873 13.6053 27.7657 13.0017 27.7074 12.2883C27.6504 11.5907 27.6504 10.7252 27.6504 9.63301V4.99995C27.6504 4.95357 27.6546 4.90817 27.6627 4.86412ZM39.1866 15.25C38.9632 14.5712 38.6616 13.9198 38.2873 13.309C37.7261 12.3932 36.9385 11.5988 35.1838 9.84404L34.4264 9.08668C32.8018 7.46207 32.0664 6.73257 31.228 6.19848C30.5781 5.78447 29.8801 5.45394 29.1504 5.21376V9.60001C29.1504 10.7325 29.151 11.5367 29.2024 12.1661C29.2531 12.7868 29.3495 13.171 29.5046 13.4755C29.8162 14.087 30.3134 14.5842 30.9249 14.8958C31.2294 15.0509 31.6136 15.1473 32.2343 15.198C32.8637 15.2494 33.6679 15.25 34.8004 15.25H39.1866Z"/>
</svg>