<svg id="tt_heart" viewBox="0 0 48 48" xmlns="http://www.w3.org/2000/svg">
	<path opacity="0.12" d="M24 42C26 42 44 32.0005 44 18.0009C44 11.0011 38 6.08811 32 6.00129C29 5.95789 26 7.00131 24 10.0012C22 7.00131 18.9481 6.0013 16 6.0013C10 6.0013 4 11.0011 4 18.0009C4 32.0005 22 42 24 42Z"/>
	<path fill-rule="evenodd" clip-rule="evenodd" d="M23.999 8.74355C26.1474 6.1296 29.1128 5.20943 32.0109 5.25136C38.3659 5.34332 44.75 10.5383 44.75 18.0008C44.75 25.3224 40.0548 31.5104 35.2501 35.8092C32.8343 37.9706 30.3557 39.6868 28.3486 40.8655C27.3453 41.4547 26.4518 41.9144 25.7356 42.2295C25.3782 42.3867 25.0561 42.5119 24.7809 42.5992C24.5247 42.6805 24.2458 42.75 24 42.75C23.7542 42.75 23.4753 42.6805 23.2191 42.5992C22.9439 42.5119 22.6218 42.3867 22.2644 42.2295C21.5482 41.9144 20.6547 41.4547 19.6515 40.8655C17.6443 39.6868 15.1657 37.9706 12.7499 35.8092C7.94523 31.5104 3.25 25.3224 3.25 18.0009C3.25 10.5471 9.62678 5.25129 16 5.25129C18.8337 5.25129 21.8393 6.13174 23.999 8.74355ZM31.9892 6.75121C29.1789 6.71054 26.4502 7.67801 24.624 10.4172C24.4849 10.6259 24.2508 10.7512 24 10.7512C23.7492 10.7512 23.5151 10.6259 23.376 10.4172C21.5543 7.68482 18.7774 6.75129 16 6.75129C10.3732 6.75129 4.75 11.4552 4.75 18.0009C4.75 24.6789 9.05478 30.4904 13.7501 34.6913C16.0843 36.7797 18.4807 38.4384 20.4111 39.5721C21.3766 40.1391 22.2174 40.57 22.8685 40.8565C23.1946 41 23.4643 41.1033 23.6725 41.1694C23.7765 41.2023 23.8585 41.2239 23.9199 41.2367C23.9686 41.2469 23.9937 41.2493 24 41.2498C24.0063 41.2493 24.0314 41.2469 24.0801 41.2367C24.1415 41.2239 24.2235 41.2023 24.3275 41.1694C24.5357 41.1033 24.8054 41 25.1316 40.8565C25.7826 40.57 26.6235 40.1391 27.589 39.5721C29.5193 38.4384 31.9157 36.7797 34.2499 34.6913C38.9452 30.4904 43.25 24.6789 43.25 18.0008C43.25 11.4639 37.6341 6.83288 31.9892 6.75121Z"/>
</svg>