<svg id="tt_lifebuoy" viewBox="0 0 48 48" xmlns="http://www.w3.org/2000/svg">
	<path opacity="0.12" fill-rule="evenodd" clip-rule="evenodd" d="M24 44C35.0457 44 44 35.0457 44 24C44 12.9543 35.0457 4 24 4C12.9543 4 4 12.9543 4 24C4 35.0457 12.9543 44 24 44ZM24 32C28.4183 32 32 28.4183 32 24C32 19.5817 28.4183 16 24 16C19.5817 16 16 19.5817 16 24C16 28.4183 19.5817 32 24 32Z"/>
	<path fill-rule="evenodd" clip-rule="evenodd" d="M24 3.25C18.2703 3.25 13.0817 5.57334 9.32753 9.32753C5.57334 13.0817 3.25 18.2703 3.25 24C3.25 29.7297 5.57334 34.9183 9.32753 38.6725C13.0817 42.4267 18.2703 44.75 24 44.75C29.7297 44.75 34.9183 42.4267 38.6725 38.6725C42.4267 34.9183 44.75 29.7297 44.75 24C44.75 18.2703 42.4267 13.0817 38.6725 9.32753C34.9183 5.57334 29.7297 3.25 24 3.25ZM18.3658 17.3051L10.9288 9.86813C14.3622 6.69076 18.9538 4.75 24 4.75C29.0462 4.75 33.6378 6.69076 37.0712 9.86813L29.6342 17.3051C28.112 16.0227 26.1462 15.25 24 15.25C21.8538 15.25 19.888 16.0227 18.3658 17.3051ZM17.3051 18.3658L9.86813 10.9288C6.69076 14.3622 4.75 18.9538 4.75 24C4.75 29.0462 6.69076 33.6378 9.86813 37.0712L17.3051 29.6342C16.0227 28.112 15.25 26.1462 15.25 24C15.25 21.8538 16.0227 19.888 17.3051 18.3658ZM18.3658 30.6949L10.9288 38.1319C14.3622 41.3092 18.9538 43.25 24 43.25C29.0462 43.25 33.6378 41.3092 37.0712 38.1319L29.6342 30.6949C28.112 31.9773 26.1462 32.75 24 32.75C21.8538 32.75 19.888 31.9773 18.3658 30.6949ZM30.6949 29.6342L38.1319 37.0712C41.3092 33.6378 43.25 29.0462 43.25 24C43.25 18.9538 41.3092 14.3622 38.1319 10.9288L30.6949 18.3658C31.9773 19.888 32.75 21.8538 32.75 24C32.75 26.1462 31.9773 28.112 30.6949 29.6342ZM16.75 24C16.75 19.9959 19.9959 16.75 24 16.75C28.0041 16.75 31.25 19.9959 31.25 24C31.25 28.0041 28.0041 31.25 24 31.25C19.9959 31.25 16.75 28.0041 16.75 24Z"/>
</svg>