<svg id="tt_newspaper" viewBox="0 0 49 48" xmlns="http://www.w3.org/2000/svg">
	<path opacity="0.12" d="M4.7998 3.99927V31.1993C4.7998 35.6797 4.7998 37.9199 5.67175 39.6312C6.43874 41.1365 7.66258 42.3603 9.16788 43.1273C10.8792 43.9993 13.1194 43.9993 17.5998 43.9993H36.7998V3.99927L31.3745 6.41051C30.1515 6.95405 29.54 7.22583 28.9212 7.29381C28.2426 7.36837 27.5562 7.268 26.9273 7.00225C26.3539 6.75992 25.8458 6.32443 24.8297 5.45346C23.4804 4.29688 22.8057 3.71859 22.059 3.47095C21.2414 3.19979 20.3582 3.19979 19.5406 3.47095C18.7939 3.71859 18.1193 4.29688 16.7699 5.45346C15.7538 6.32443 15.2457 6.75992 14.6723 7.00225C14.0434 7.268 13.357 7.36837 12.6784 7.29381C12.0596 7.22583 11.4481 6.95405 10.2251 6.41051L4.7998 3.99927Z"/>
	<path d="M14.0498 17.9993C14.0498 17.5851 14.3856 17.2493 14.7998 17.2493H22.7998C23.214 17.2493 23.5498 17.5851 23.5498 17.9993C23.5498 18.4135 23.214 18.7493 22.7998 18.7493H14.7998C14.3856 18.7493 14.0498 18.4135 14.0498 17.9993Z"/>
	<path d="M14.0498 25.9993C14.0498 25.5851 14.3856 25.2493 14.7998 25.2493H26.7998C27.214 25.2493 27.5498 25.5851 27.5498 25.9993C27.5498 26.4135 27.214 26.7493 26.7998 26.7493H14.7998C14.3856 26.7493 14.0498 26.4135 14.0498 25.9993Z"/>
	<path d="M14.7998 33.2493C14.3856 33.2493 14.0498 33.5851 14.0498 33.9993C14.0498 34.4135 14.3856 34.7493 14.7998 34.7493H26.7998C27.214 34.7493 27.5498 34.4135 27.5498 33.9993C27.5498 33.5851 27.214 33.2493 26.7998 33.2493H14.7998Z"/>
	<path fill-rule="evenodd" clip-rule="evenodd" d="M19.3045 2.75908C20.2754 2.43708 21.3242 2.43708 22.2951 2.75908C22.7744 2.91803 23.2026 3.17518 23.6658 3.51941C24.1174 3.85508 24.6398 4.30288 25.2967 4.86593L25.3178 4.88402C26.3723 5.7879 26.7791 6.12538 27.2193 6.3114C27.7302 6.52732 28.2879 6.60888 28.8393 6.5483C29.3144 6.49611 29.8007 6.28923 31.0699 5.72515L36.4952 3.31391C36.7272 3.2108 36.9956 3.23206 37.2085 3.3704C37.4214 3.50874 37.5498 3.74539 37.5498 3.99927V23.2493H38.4328C39.5249 23.2493 40.3904 23.2493 41.0881 23.3063C41.8015 23.3645 42.4051 23.4861 42.9563 23.767C43.85 24.2224 44.5767 24.949 45.0321 25.8428C45.3129 26.394 45.4345 26.9976 45.4928 27.711C45.5498 28.4086 45.5498 29.2741 45.5498 30.3662V39.9993C45.5498 42.6226 43.4232 44.7493 40.7998 44.7493H17.5654C15.3543 44.7493 13.6489 44.7493 12.2843 44.6378C10.9039 44.525 9.80639 44.2944 8.82739 43.7956C7.18097 42.9567 5.84239 41.6181 5.0035 39.9717C4.50467 38.9927 4.27407 37.8951 4.16129 36.5147C4.0498 35.1502 4.0498 33.4448 4.0498 31.2337V3.99927C4.0498 3.74539 4.17824 3.50874 4.39112 3.3704C4.604 3.23206 4.87241 3.2108 5.10441 3.31391L10.5297 5.72515C11.7989 6.28923 12.2853 6.49611 12.7603 6.5483C13.3117 6.60888 13.8694 6.52732 14.3803 6.3114C14.8205 6.12538 15.2273 5.7879 16.2818 4.88402L16.3027 4.86614C16.9596 4.30304 17.4822 3.8551 17.9339 3.51941C18.397 3.17518 18.8252 2.91803 19.3045 2.75908ZM40.7998 43.2493C42.5947 43.2493 44.0498 41.7942 44.0498 39.9993V30.3993C44.0498 29.2668 44.0492 28.4625 43.9978 27.8331C43.9471 27.2125 43.8507 26.8283 43.6956 26.5238C43.384 25.9123 42.8868 25.4151 42.2753 25.1035C41.9708 24.9484 41.5866 24.852 40.9659 24.8013C40.3365 24.7499 39.5323 24.7493 38.3998 24.7493H37.5498V39.9993C37.5498 41.7942 39.0049 43.2493 40.7998 43.2493ZM37.3357 43.2493H17.5998C15.3472 43.2493 13.7029 43.2487 12.4065 43.1428C11.1189 43.0376 10.2407 42.8322 9.50837 42.4591C8.1442 41.764 7.03509 40.6549 6.34001 39.2907C5.96688 38.5584 5.76151 37.6802 5.65631 36.3926C5.55039 35.0962 5.5498 33.4519 5.5498 31.1993V5.15334L10.0402 7.1491C11.1479 7.6417 11.8601 7.95842 12.5965 8.03933C13.4023 8.12786 14.2174 8.00867 14.9642 7.6931C15.6466 7.40471 16.2383 6.89732 17.1586 6.10817L17.258 6.0229C17.9405 5.43788 18.4238 5.02424 18.8287 4.7233C19.2269 4.42732 19.5093 4.27151 19.7767 4.18282C20.441 3.9625 21.1586 3.9625 21.8229 4.18282C22.0903 4.27151 22.3727 4.42732 22.771 4.7233C23.1759 5.02424 23.6591 5.43788 24.3416 6.0229L24.4411 6.10818C25.3613 6.89733 25.953 7.40472 26.6354 7.6931C27.3822 8.00867 28.1973 8.12786 29.0031 8.03933C29.7395 7.95842 30.4517 7.6417 31.5594 7.14911L36.0498 5.15334V39.9993C36.0498 41.2565 36.5382 42.3996 37.3357 43.2493Z"/>
</svg>