<svg id="tt_sad-smile" viewBox="0 0 60 60" xmlns="http://www.w3.org/2000/svg">
	<path opacity="0.12" d="M5 30C5 16.1929 16.1929 5 30 5C43.8071 5 55 16.1929 55 30C55 43.8071 43.8071 55 30 55C16.1929 55 5 43.8071 5 30Z"/>
	<path d="M20.7484 40.563C20.4374 40.977 19.8497 41.0606 19.4357 40.7496C19.0217 40.4386 18.9382 39.8509 19.2492 39.437C21.6992 36.1752 25.6028 34.0625 29.9997 34.0625C34.3966 34.0625 38.3002 36.1752 40.7502 39.437C41.0612 39.8509 40.9776 40.4386 40.5637 40.7496C40.1497 41.0606 39.562 40.977 39.251 40.563C37.1399 37.7525 33.7819 35.9375 29.9997 35.9375C26.2175 35.9375 22.8594 37.7525 20.7484 40.563Z"/>
	<path d="M25 25C25 26.3807 23.8807 27.5 22.5 27.5C21.1193 27.5 20 26.3807 20 25C20 23.6193 21.1193 22.5 22.5 22.5C23.8807 22.5 25 23.6193 25 25Z"/>
	<path d="M37.5 27.5C38.8807 27.5 40 26.3807 40 25C40 23.6193 38.8807 22.5 37.5 22.5C36.1193 22.5 35 23.6193 35 25C35 26.3807 36.1193 27.5 37.5 27.5Z"/>
	<path fill-rule="evenodd" clip-rule="evenodd" d="M30 4.0625C15.6751 4.0625 4.0625 15.6751 4.0625 30C4.0625 44.3249 15.6751 55.9375 30 55.9375C44.3249 55.9375 55.9375 44.3249 55.9375 30C55.9375 15.6751 44.3249 4.0625 30 4.0625ZM54.0625 30C54.0625 43.2894 43.2894 54.0625 30 54.0625C16.7106 54.0625 5.9375 43.2894 5.9375 30C5.9375 16.7106 16.7106 5.9375 30 5.9375C43.2894 5.9375 54.0625 16.7106 54.0625 30Z"/>
</svg>