<svg id="tt_truck" viewBox="0 0 49 48" xmlns="http://www.w3.org/2000/svg">
	<path opacity="0.12" d="M41.7996 4H27.3996C25.7195 4 24.8794 4 24.2376 4.32698C23.6732 4.6146 23.2142 5.07354 22.9266 5.63803C22.5996 6.27976 22.5996 7.11984 22.5996 8.8V18.8C22.5996 19.9201 22.5996 20.4802 22.3816 20.908C22.1899 21.2843 21.8839 21.5903 21.5076 21.782C21.0798 22 20.5197 22 19.3996 22H5.79961C4.6795 22 4.11945 22 3.69163 22.218C3.3153 22.4097 3.00934 22.7157 2.8176 23.092C2.59961 23.5198 2.59961 24.0799 2.59961 25.2V34.8C2.59961 35.9201 2.59961 36.4802 2.8176 36.908C3.00934 37.2843 3.3153 37.5903 3.69163 37.782C4.11945 38 4.6795 38 5.79961 38H8.59961C8.59961 34.6863 11.2859 32 14.5996 32C17.9133 32 20.5996 34.6863 20.5996 38H28.5996C28.5996 34.6863 31.2859 32 34.5996 32C37.9133 32 40.5996 34.6863 40.5996 38H41.7996C43.4798 38 44.3198 38 44.9616 37.673C45.5261 37.3854 45.985 36.9265 46.2726 36.362C46.5996 35.7202 46.5996 34.8802 46.5996 33.2V8.8C46.5996 7.11984 46.5996 6.27976 46.2726 5.63803C45.985 5.07354 45.5261 4.6146 44.9616 4.32698C44.3198 4 43.4798 4 41.7996 4Z"/>
	<path fill-rule="evenodd" clip-rule="evenodd" d="M27.3675 3.25H41.8317C42.6445 3.24999 43.3002 3.24999 43.8311 3.29336C44.3777 3.33803 44.8578 3.43239 45.3021 3.65873C46.0077 4.01825 46.5814 4.59193 46.9409 5.29754C47.1672 5.74175 47.2616 6.2219 47.3062 6.76853C47.3496 7.29944 47.3496 7.95505 47.3496 8.76788V33.2321C47.3496 34.045 47.3496 34.7006 47.3062 35.2315C47.2616 35.7781 47.1672 36.2582 46.9409 36.7025C46.5814 37.4081 46.0077 37.9817 45.3021 38.3413C44.8578 38.5676 44.3777 38.662 43.8311 38.7066C43.3002 38.75 42.6446 38.75 41.8317 38.75L41.3084 38.75C40.9353 42.1249 38.074 44.75 34.5996 44.75C31.1252 44.75 28.2639 42.1249 27.8908 38.75H21.3084C20.9353 42.1249 18.074 44.75 14.5996 44.75C11.1252 44.75 8.2639 42.1249 7.89082 38.75L5.76917 38.75C5.23502 38.75 4.78918 38.75 4.42495 38.7202C4.04506 38.6892 3.68841 38.6221 3.35115 38.4502C2.8337 38.1866 2.413 37.7659 2.14935 37.2484C1.97751 36.9112 1.9104 36.5545 1.87936 36.1746C1.8496 35.8104 1.84961 35.3645 1.84962 34.8304L1.84961 23.7103C1.84954 23.1099 1.8495 22.7227 1.91191 22.3412C1.96721 22.0031 2.05893 21.6719 2.18546 21.3535C2.32827 20.9942 2.5275 20.6623 2.83646 20.1475L6.09216 14.7213C6.11445 14.6842 6.13645 14.6475 6.15818 14.6112C6.77428 13.5839 7.17088 12.9225 7.72779 12.4328C8.2196 12.0004 8.79551 11.6743 9.41936 11.4751C10.1258 11.2495 10.897 11.2497 12.0949 11.2499C12.1371 11.2499 12.1799 11.25 12.2232 11.25H21.8496V8.76788C21.8496 7.95505 21.8496 7.29944 21.893 6.76853C21.9376 6.2219 22.032 5.74175 22.2583 5.29754C22.6179 4.59193 23.1915 4.01825 23.8971 3.65873C24.3414 3.43239 24.8215 3.33803 25.3681 3.29336C25.899 3.24999 26.5547 3.24999 27.3675 3.25ZM21.8496 12.75V16C21.8496 16.0018 21.8496 16.0036 21.8496 16.0054V18.8C21.8496 19.3724 21.849 19.7566 21.8249 20.0525C21.8014 20.3396 21.7595 20.4769 21.7134 20.5674C21.5935 20.8026 21.4023 20.9939 21.1671 21.1137C21.0765 21.1599 20.9393 21.2017 20.6521 21.2252C20.3563 21.2494 19.972 21.25 19.3996 21.25H3.92547C3.98956 21.1414 4.06499 21.0154 4.15478 20.8657L7.3784 15.4931C8.08374 14.3175 8.35884 13.8754 8.71829 13.5593C9.05479 13.2634 9.44884 13.0403 9.87569 12.904C10.3316 12.7584 10.8523 12.75 12.2232 12.75H21.8496ZM3.37443 22.7156C3.44551 22.7379 3.52116 22.75 3.59962 22.75H19.4301C19.9642 22.75 20.4101 22.75 20.7743 22.7202C21.1542 22.6892 21.5108 22.6221 21.8481 22.4502C22.3655 22.1866 22.7862 21.7659 23.0499 21.2484C23.2217 20.9112 23.2888 20.5545 23.3199 20.1746C23.3496 19.8104 23.3496 19.3646 23.3496 18.8304V12C23.3496 11.9981 23.3496 11.9963 23.3496 11.9945V8.8C23.3496 7.94755 23.3502 7.35331 23.388 6.89068C23.4251 6.4368 23.4942 6.17604 23.5948 5.97852C23.8106 5.55516 24.1548 5.21095 24.5781 4.99524C24.7756 4.8946 25.0364 4.82547 25.4903 4.78838C25.9529 4.75058 26.5471 4.75 27.3996 4.75H41.7996C42.6521 4.75 43.2463 4.75058 43.7089 4.78838C44.1628 4.82547 44.4236 4.8946 44.6211 4.99524C45.0444 5.21095 45.3886 5.55516 45.6044 5.97852C45.705 6.17604 45.7741 6.4368 45.8112 6.89068C45.849 7.35331 45.8496 7.94755 45.8496 8.8V33.2C45.8496 34.0525 45.849 34.6467 45.8112 35.1093C45.7741 35.5632 45.705 35.824 45.6044 36.0215C45.3886 36.4448 45.0444 36.7891 44.6211 37.0048C44.4236 37.1054 44.1628 37.1745 43.7089 37.2116C43.2463 37.2494 42.6521 37.25 41.7996 37.25L41.3084 37.25C40.9354 33.875 38.074 31.25 34.5996 31.25C31.1252 31.25 28.2639 33.875 27.8908 37.25H21.3084C20.9353 33.875 18.074 31.25 14.5996 31.25C11.1252 31.25 8.2639 33.875 7.89082 37.25L5.79962 37.25C5.22719 37.25 4.84298 37.2494 4.5471 37.2252C4.25997 37.2017 4.12269 37.1599 4.03213 37.1137C3.79693 36.9939 3.6057 36.8026 3.48586 36.5674C3.43972 36.4769 3.39784 36.3396 3.37438 36.0525C3.3502 35.7566 3.34962 35.3724 3.34962 34.8V23.7727C3.34962 23.2083 3.35116 22.9332 3.37443 22.7156ZM14.5996 32.75C11.7001 32.75 9.34962 35.1005 9.34962 38C9.34962 40.8994 11.7001 43.25 14.5996 43.25C17.4991 43.25 19.8496 40.8994 19.8496 38C19.8496 35.1005 17.4991 32.75 14.5996 32.75ZM34.5996 32.75C31.7001 32.75 29.3496 35.1005 29.3496 38C29.3496 40.8994 31.7001 43.25 34.5996 43.25C37.4991 43.25 39.8496 40.8994 39.8496 38C39.8496 35.1005 37.4991 32.75 34.5996 32.75Z"/>
</svg>