<svg id="tt_thumb" viewBox="0 0 48 48" xmlns="http://www.w3.org/2000/svg">
	<path opacity="0.12" d="M25.0898 2.91019L12.8118 15.1882C11.7741 16.2259 11.2552 16.7448 10.8842 17.3503C10.5552 17.8871 10.3128 18.4724 10.1658 19.0846C10 19.7751 10 20.5089 10 21.9764V37.2C10 38.8802 10 39.7202 10.327 40.362C10.6146 40.9265 11.0735 41.3854 11.638 41.673C12.2798 42 13.1198 42 14.8 42H37.882C39.3435 42 40.0742 42 40.6644 41.7326C41.1846 41.4969 41.6267 41.1176 41.9388 40.6393C42.2928 40.0966 42.4039 39.3744 42.6262 37.9299L45.1493 21.5299C45.4424 19.6247 45.5889 18.6721 45.3062 17.9309C45.0581 17.2803 44.5914 16.7363 43.9861 16.3921C43.2965 16 42.3327 16 40.4051 16H29.6397C28.4244 16 27.8168 16 27.4369 15.7441C27.1048 15.5205 26.8759 15.1734 26.8012 14.7801C26.7157 14.3301 26.955 13.7716 27.4337 12.6546L30.1435 6.33174C30.732 4.95863 31.0263 4.27208 30.9467 3.71661C30.8621 3.12523 30.5175 2.60265 30.0073 2.29189C29.5281 2 28.7811 2 27.2872 2C26.8358 2 26.6101 2 26.3969 2.04711C26.1682 2.09765 25.9501 2.18797 25.7527 2.31396C25.5686 2.4314 25.409 2.591 25.0898 2.91019Z"/>
	<path fill-rule="evenodd" clip-rule="evenodd" d="M27.2203 1.25002C26.834 1.24982 26.53 1.24965 26.2351 1.31482C25.9206 1.38431 25.6208 1.50851 25.3493 1.68174C25.0946 1.8442 24.8798 2.05925 24.6068 2.33257L12.2086 14.7308C11.2402 15.699 10.6625 16.2766 10.2447 16.9585C9.87459 17.5624 9.60186 18.2208 9.4365 18.9096C9.24981 19.6872 9.24988 20.5041 9.24999 21.8735L9.25 37.2322C9.24999 38.045 9.24999 38.7006 9.29336 39.2315C9.33803 39.7782 9.43238 40.2583 9.65873 40.7025C10.0183 41.4081 10.5919 41.9818 11.2975 42.3413C11.7418 42.5677 12.2219 42.662 12.7685 42.7067C13.2994 42.7501 13.955 42.7501 14.7678 42.75H37.9113C38.6172 42.7501 39.1891 42.7501 39.6569 42.7145C40.1404 42.6776 40.5675 42.5999 40.974 42.4158C41.6242 42.1211 42.1768 41.647 42.5669 41.0492C42.8107 40.6755 42.9525 40.2651 43.0624 39.7928C43.1687 39.3359 43.2557 38.7706 43.363 38.0729L45.8958 21.6095C46.0379 20.6862 46.1519 19.9451 46.192 19.3438C46.2331 18.7279 46.2039 18.18 46.007 17.6636C45.6968 16.8504 45.1134 16.1704 44.3568 15.7402C43.8764 15.467 43.3393 15.3549 42.7243 15.3018C42.1239 15.25 41.3741 15.25 40.4398 15.25H29.6397C29.0176 15.25 28.6023 15.2493 28.293 15.2212C27.985 15.1931 27.8892 15.1445 27.8559 15.1221C27.6898 15.0103 27.5754 14.8367 27.538 14.6401C27.5305 14.6006 27.5236 14.4935 27.6192 14.1992C27.7151 13.9039 27.8781 13.5219 28.1231 12.9501L30.8462 6.59626C31.1291 5.93606 31.3602 5.39701 31.5073 4.95417C31.657 4.50384 31.7536 4.06058 31.6892 3.61038C31.5728 2.79724 31.099 2.0787 30.3974 1.6514C30.009 1.41482 29.5635 1.32899 29.0907 1.28918C28.6257 1.25003 28.0392 1.25004 27.321 1.25005L27.2203 1.25002ZM26.5587 2.77949C26.6734 2.75416 26.8029 2.75005 27.2872 2.75005C28.0475 2.75005 28.5703 2.75068 28.9648 2.78389C29.3587 2.81705 29.5263 2.87716 29.6172 2.93248C29.936 3.12671 30.1514 3.45331 30.2043 3.82293C30.2194 3.9282 30.2086 4.10595 30.0839 4.48104C29.9591 4.85672 29.7537 5.33757 29.4542 6.03635L26.7306 12.3915C26.503 12.9224 26.3122 13.3676 26.1926 13.7358C26.0702 14.1126 25.9864 14.5096 26.0644 14.9201C26.1765 15.5101 26.5198 16.0308 27.0179 16.3663C27.3645 16.5997 27.7625 16.6791 28.157 16.715C28.5426 16.7501 29.0269 16.7501 29.6045 16.75H40.4051C41.3821 16.75 42.067 16.7507 42.5953 16.7963C43.1165 16.8413 43.4061 16.9252 43.6153 17.0441C44.0693 17.3023 44.4193 17.7103 44.6054 18.1982C44.6912 18.4231 44.7301 18.7221 44.6953 19.244C44.66 19.7732 44.5565 20.4502 44.408 21.4159L41.8849 37.8159C41.7721 38.5494 41.6933 39.0581 41.6014 39.4528C41.5117 39.8384 41.4209 40.0605 41.3106 40.2295C41.0766 40.5882 40.745 40.8727 40.3549 41.0495C40.1711 41.1327 39.9377 41.1887 39.543 41.2188C39.1389 41.2495 38.6241 41.25 37.882 41.25H14.8C13.9475 41.25 13.3533 41.2495 12.8907 41.2117C12.4368 41.1746 12.176 41.1054 11.9785 41.0048C11.5552 40.7891 11.211 40.4449 10.9952 40.0215C10.8946 39.824 10.8255 39.5632 10.7884 39.1094C10.7506 38.6467 10.75 38.0525 10.75 37.2V21.9765C10.75 20.4733 10.7548 19.8439 10.8951 19.2597C11.0237 18.724 11.2358 18.2119 11.5236 17.7422C11.8375 17.23 12.2792 16.7816 13.3421 15.7186L25.6201 3.44057C25.9626 3.09813 26.0571 3.00943 26.1561 2.94627C26.2795 2.86753 26.4158 2.81108 26.5587 2.77949Z"/>
	<path d="M4.75 16C4.75 15.5858 4.41421 15.25 4 15.25C3.58579 15.25 3.25 15.5858 3.25 16L3.25 40C3.25 40.4143 3.58579 40.75 4 40.75C4.41421 40.75 4.75 40.4143 4.75 40L4.75 16Z"/>
</svg>