<svg id="tt_watch" viewBox="0 0 48 48" xmlns="http://www.w3.org/2000/svg">
	<path opacity="0.12" d="M8 24C8 20.2801 8 18.4202 8.40889 16.8942C9.5185 12.7531 12.7531 9.51849 16.8942 8.40889C18.4202 8 20.2801 8 24 8C27.7199 8 29.5798 8 31.1058 8.40889C35.2469 9.51849 38.4815 12.7531 39.5911 16.8942C40 18.4202 40 20.2801 40 24C40 27.7199 40 29.5798 39.5911 31.1058C38.4815 35.2469 35.2469 38.4815 31.1058 39.5911C29.5798 40 27.7199 40 24 40C20.2801 40 18.4202 40 16.8942 39.5911C12.7531 38.4815 9.5185 35.2469 8.40889 31.1058C8 29.5798 8 27.7199 8 24Z"/>
	<path d="M24.75 20.0002C24.75 19.586 24.4142 19.2502 24 19.2502C23.5858 19.2502 23.25 19.586 23.25 20.0002L23.25 24.0002C23.25 24.251 23.3753 24.4851 23.584 24.6242L26.584 26.6242C26.9286 26.854 27.3943 26.7609 27.6241 26.4162C27.8538 26.0716 27.7607 25.6059 27.4161 25.3762L24.75 23.5988L24.75 20.0002Z"/>
	<path fill-rule="evenodd" clip-rule="evenodd" d="M20.3613 1.25008C19.6038 1.24933 19.0107 1.24875 18.4964 1.46485C18.0455 1.65426 17.6534 1.96046 17.3603 2.35188C17.0259 2.79847 16.8826 3.37401 16.6996 4.10904L15.7304 7.98619C11.7991 9.38261 8.77531 12.6291 7.68445 16.7002C7.24987 18.3221 7.24992 20.272 7.25001 23.8438L7.25001 24.1565C7.24992 27.7284 7.24987 29.6782 7.68446 31.3001C8.77532 35.3713 11.7991 38.6177 15.7304 40.0142L16.6996 43.8913C16.8826 44.6264 17.0259 45.2019 17.3603 45.6485C17.6534 46.0399 18.0456 46.3461 18.4964 46.5355C19.0107 46.7516 19.6039 46.751 20.3613 46.7503L27.6387 46.7503C28.3962 46.751 28.9893 46.7516 29.5037 46.5355C29.9545 46.3461 30.3467 46.0399 30.6397 45.6485C30.9741 45.2019 31.1174 44.6263 31.3004 43.8913L32.2696 40.0141C36.2009 38.6177 39.2247 35.3713 40.3156 31.3001C40.7502 29.6782 40.7501 27.7284 40.75 24.1566L40.75 23.8438C40.7501 20.272 40.7502 18.3221 40.3156 16.7002C39.2247 12.6291 36.2009 9.3826 32.2696 7.98618L31.3004 4.10905C31.1174 3.37402 30.9741 2.79846 30.6397 2.35188C30.3466 1.96045 29.9545 1.65426 29.5036 1.46485C28.9893 1.24875 28.3962 1.24933 27.6387 1.25008L20.3613 1.25008ZM23.8436 7.25017C20.7628 7.25009 18.8887 7.25005 17.3909 7.5289L18.1216 4.60596C18.3552 3.67173 18.4321 3.42305 18.561 3.25095C18.6942 3.07303 18.8725 2.93385 19.0774 2.84775C19.2756 2.76448 19.5355 2.75017 20.4985 2.75017L27.5015 2.75017C28.4645 2.75017 28.7244 2.76448 28.9226 2.84775C29.1276 2.93385 29.3058 3.07303 29.439 3.25095C29.5679 3.42304 29.6448 3.67174 29.8784 4.60596L30.6091 7.5289C29.1113 7.25004 27.2372 7.25009 24.1564 7.25017L23.8436 7.25017ZM18.1217 43.3944L17.3909 40.4714C18.8887 40.7503 20.7628 40.7502 23.8436 40.7502L24.1564 40.7502C27.2372 40.7502 29.1113 40.7503 30.6091 40.4714L29.8784 43.3944C29.6448 44.3286 29.5679 44.5773 29.4391 44.7494C29.3058 44.9273 29.1276 45.0665 28.9226 45.1526C28.7244 45.2359 28.4645 45.2502 27.5015 45.2502L20.4985 45.2502C19.5355 45.2502 19.2756 45.2359 19.0774 45.1526C18.8725 45.0665 18.6942 44.9273 18.561 44.7494C18.4321 44.5773 18.3552 44.3286 18.1217 43.3944ZM17.0883 9.13351C18.4949 8.75662 20.2318 8.75017 24 8.75017C27.7682 8.75017 29.5051 8.75661 30.9117 9.13351C31.0808 9.17881 31.2482 9.22788 31.414 9.28064C35.0543 10.4394 37.8717 13.3752 38.8667 17.0885C39.2436 18.495 39.25 20.232 39.25 24.0002C39.25 27.7683 39.2436 29.5053 38.8667 30.9119C37.8717 34.6251 35.0543 37.5609 31.414 38.7197C31.2483 38.7725 31.0808 38.8215 30.9117 38.8668C29.5051 39.2437 27.7682 39.2502 24 39.2502C20.2318 39.2502 18.4949 39.2437 17.0883 38.8668C16.9192 38.8215 16.7518 38.7725 16.5861 38.7197C12.9457 37.5609 10.1283 34.6251 9.13334 30.9119C8.75645 29.5053 8.75001 27.7683 8.75001 24.0002C8.75001 20.232 8.75645 18.495 9.13334 17.0885C10.1283 13.3752 12.9457 10.4394 16.586 9.28064C16.7518 9.22789 16.9192 9.17881 17.0883 9.13351Z"/>
</svg>