<svg width="24" height="24" viewBox="0 0 24 24" xmlns="http://www.w3.org/2000/svg">
<path d="M5.64133 10.5072C6.05138 10.4486 6.43128 10.7336 6.48985 11.1436L6.71364 12.7101L7.32052 11.4288C7.44459 11.1669 7.70849 10.9999 7.99833 10.9999C8.28817 10.9999 8.55206 11.1669 8.67614 11.4288L9.28302 12.7101L9.5068 11.1436C9.56538 10.7336 9.94528 10.4486 10.3553 10.5072C10.7654 10.5658 11.0503 10.9457 10.9917 11.3558L10.4915 14.8572C10.4387 15.2267 10.1223 15.5011 9.74906 15.5011H9.41992C9.13008 15.5011 8.86619 15.3341 8.74211 15.0722L7.99833 13.5019L7.25455 15.0722C7.13047 15.3341 6.86658 15.5011 6.57674 15.5011H6.2476C5.87436 15.5011 5.55792 15.2267 5.50514 14.8572L5.00493 11.3558C4.94635 10.9457 5.23128 10.5658 5.64133 10.5072Z"/>
<path fill-rule="evenodd" clip-rule="evenodd" d="M7.99833 2.24625C6.47909 2.24625 5.2475 3.47784 5.2475 4.99708V7.32309C3.53519 7.67006 2.24625 9.18367 2.24625 10.9983V15.0025C2.24625 16.8172 3.53519 18.3308 5.2475 18.6777V19.0029C5.2475 20.5222 6.47909 21.7537 7.99833 21.7537H18.0025C19.5217 21.7537 20.7533 20.5222 20.7533 19.0029L20.7533 7.82626C20.7533 7.09657 20.4631 6.39693 19.9473 5.88126C19.9473 5.88126 17.5 3.2684 17.1182 3.05216C15.912 2.24625 15.0013 2.24625 15.0013 2.24625H7.99833ZM7.99833 3.74625C7.30751 3.74625 6.7475 4.30627 6.7475 4.99708V7.24833H10.0004C12.0715 7.24833 13.7504 8.92727 13.7504 10.9983V15.0025C13.7504 17.0736 12.0715 18.7525 10.0004 18.7525H6.7475V19.0029C6.7475 19.6937 7.30751 20.2537 7.99833 20.2537H18.0025C18.6933 20.2537 19.2533 19.6937 19.2533 19.0029L19.2533 8.74833H16.0017C15.0349 8.74833 14.2513 7.96464 14.2513 6.99792V3.74625H7.99833ZM5.99624 17.2525L5.9975 17.2525L10.0004 17.2525C11.2431 17.2525 12.2504 16.2451 12.2504 15.0025V10.9983C12.2504 9.75569 11.2431 8.74833 10.0004 8.74833L5.9975 8.74833L5.99625 8.74833C4.7536 8.74833 3.74625 9.75569 3.74625 10.9983V15.0025C3.74625 16.2451 4.7536 17.2525 5.99624 17.2525ZM16.0017 7.24833C15.8634 7.24833 15.7513 7.13622 15.7513 6.99792V3.88796C15.8632 3.94632 15.9666 4.02181 16.0575 4.11274L18.8868 6.942C18.9777 7.03291 19.0533 7.13643 19.1116 7.24833H16.0017Z"/>
<path fill-rule="evenodd" clip-rule="evenodd" d="M6.48985 11.1436C6.43128 10.7336 6.05138 10.4486 5.64133 10.5072C5.23128 10.5658 4.94635 10.9457 5.00493 11.3558L5.50514 14.8572C5.55792 15.2267 5.87436 15.5011 6.2476 15.5011H6.57674C6.86658 15.5011 7.13047 15.3341 7.25455 15.0722L7.99833 13.5019L8.74211 15.0722C8.86619 15.3341 9.13008 15.5011 9.41992 15.5011H9.74906C10.1223 15.5011 10.4387 15.2267 10.4915 14.8572L10.9917 11.3558C11.0503 10.9457 10.7654 10.5658 10.3553 10.5072C9.94528 10.4486 9.56538 10.7336 9.5068 11.1436L9.28302 12.7101L8.67614 11.4288C8.55206 11.1669 8.28817 10.9999 7.99833 10.9999C7.70849 10.9999 7.44459 11.1669 7.32052 11.4288L6.71364 12.7101L6.48985 11.1436Z"/>
</svg>
